<mxfile host="app.diagrams.net" modified="2021-05-06T08:02:10.108Z" agent="5.0 (Windows NT 10.0; Win64; x64) AppleWebKit/537.36 (KHTML, like Gecko) Chrome/88.0.4324.190 Safari/537.36" etag="kSNbihDC2eF5NqWsCZcf" version="14.6.10" type="github">
  <diagram id="dsE-PpVP6D-OGsWYXRit" name="Page-1">
    <mxGraphModel dx="1221" dy="645" grid="0" gridSize="10" guides="1" tooltips="1" connect="1" arrows="1" fold="1" page="1" pageScale="1" pageWidth="3300" pageHeight="4681" math="0" shadow="0">
      <root>
        <mxCell id="0" />
        <mxCell id="1" parent="0" />
        <mxCell id="yGgz9N2xFHgXJwQMNSEJ-1" value="&lt;strong style=&quot;box-sizing: inherit; font-weight: 700; color: rgb(0, 0, 255); font-size: 16px; font-style: normal; letter-spacing: normal; text-align: left; text-indent: 0px; text-transform: none; word-spacing: 0px; background-color: rgb(255, 255, 255);&quot;&gt;12&amp;nbsp;&amp;nbsp; 1&amp;nbsp;&amp;nbsp; 9&amp;nbsp;&amp;nbsp; 2&amp;nbsp;&amp;nbsp; 0&amp;nbsp;&amp;nbsp; 11&amp;nbsp;&amp;nbsp; 7&amp;nbsp;&amp;nbsp; 19&amp;nbsp;&amp;nbsp; 4&amp;nbsp;&amp;nbsp; 15&amp;nbsp;&amp;nbsp; 18&amp;nbsp;&amp;nbsp; 5&amp;nbsp;&amp;nbsp; 14&amp;nbsp;&amp;nbsp; 13&amp;nbsp;&amp;nbsp; 10&amp;nbsp;&amp;nbsp; 16&amp;nbsp;&amp;nbsp; 6&amp;nbsp;&amp;nbsp; 3&amp;nbsp;&amp;nbsp; 8&amp;nbsp;&amp;nbsp; 17&lt;/strong&gt;" style="text;whiteSpace=wrap;html=1;" vertex="1" parent="1">
          <mxGeometry x="26.000024414062494" y="22.0000244140625" width="540" height="28" as="geometry" />
        </mxCell>
        <mxCell id="yGgz9N2xFHgXJwQMNSEJ-2" value="12" style="rounded=0;whiteSpace=wrap;html=1;fillColor=#ffffff;" vertex="1" parent="1">
          <mxGeometry x="124" y="95" width="56" height="26" as="geometry" />
        </mxCell>
        <mxCell id="yGgz9N2xFHgXJwQMNSEJ-3" value="1" style="rounded=0;whiteSpace=wrap;html=1;fillColor=#ffffff;" vertex="1" parent="1">
          <mxGeometry x="124" y="159" width="56" height="26" as="geometry" />
        </mxCell>
        <mxCell id="yGgz9N2xFHgXJwQMNSEJ-4" value="12" style="rounded=0;whiteSpace=wrap;html=1;fillColor=#ffffff;" vertex="1" parent="1">
          <mxGeometry x="180" y="159" width="56" height="26" as="geometry" />
        </mxCell>
        <mxCell id="yGgz9N2xFHgXJwQMNSEJ-5" value="1" style="rounded=0;whiteSpace=wrap;html=1;fillColor=#ffffff;" vertex="1" parent="1">
          <mxGeometry x="124" y="230" width="56" height="26" as="geometry" />
        </mxCell>
        <mxCell id="yGgz9N2xFHgXJwQMNSEJ-6" value="9" style="rounded=0;whiteSpace=wrap;html=1;fillColor=#ffffff;" vertex="1" parent="1">
          <mxGeometry x="180" y="230" width="56" height="26" as="geometry" />
        </mxCell>
        <mxCell id="yGgz9N2xFHgXJwQMNSEJ-7" value="12" style="rounded=0;whiteSpace=wrap;html=1;fillColor=#ffffff;" vertex="1" parent="1">
          <mxGeometry x="236" y="230" width="56" height="26" as="geometry" />
        </mxCell>
        <mxCell id="yGgz9N2xFHgXJwQMNSEJ-8" value="1" style="rounded=0;whiteSpace=wrap;html=1;fillColor=#ffffff;" vertex="1" parent="1">
          <mxGeometry x="124" y="305" width="56" height="26" as="geometry" />
        </mxCell>
        <mxCell id="yGgz9N2xFHgXJwQMNSEJ-9" value="9" style="rounded=0;whiteSpace=wrap;html=1;fillColor=#ffffff;" vertex="1" parent="1">
          <mxGeometry x="236" y="305" width="56" height="26" as="geometry" />
        </mxCell>
        <mxCell id="yGgz9N2xFHgXJwQMNSEJ-10" value="12" style="rounded=0;whiteSpace=wrap;html=1;fillColor=#ffffff;" vertex="1" parent="1">
          <mxGeometry x="292" y="305" width="56" height="26" as="geometry" />
        </mxCell>
        <mxCell id="yGgz9N2xFHgXJwQMNSEJ-11" value="2" style="rounded=0;whiteSpace=wrap;html=1;fillColor=#ffffff;" vertex="1" parent="1">
          <mxGeometry x="180" y="305" width="56" height="26" as="geometry" />
        </mxCell>
        <mxCell id="yGgz9N2xFHgXJwQMNSEJ-12" value="1" style="rounded=0;whiteSpace=wrap;html=1;fillColor=#ffffff;" vertex="1" parent="1">
          <mxGeometry x="392" y="305" width="56" height="26" as="geometry" />
        </mxCell>
        <mxCell id="yGgz9N2xFHgXJwQMNSEJ-13" value="9" style="rounded=0;whiteSpace=wrap;html=1;fillColor=#ffffff;" vertex="1" parent="1">
          <mxGeometry x="504" y="305" width="56" height="26" as="geometry" />
        </mxCell>
        <mxCell id="yGgz9N2xFHgXJwQMNSEJ-14" value="12" style="rounded=0;whiteSpace=wrap;html=1;fillColor=#ffffff;" vertex="1" parent="1">
          <mxGeometry x="560" y="305" width="56" height="26" as="geometry" />
        </mxCell>
        <mxCell id="yGgz9N2xFHgXJwQMNSEJ-16" style="edgeStyle=none;rounded=0;orthogonalLoop=1;jettySize=auto;html=1;exitX=0;exitY=1;exitDx=0;exitDy=0;entryX=0.5;entryY=0;entryDx=0;entryDy=0;" edge="1" parent="1" source="yGgz9N2xFHgXJwQMNSEJ-15" target="yGgz9N2xFHgXJwQMNSEJ-12">
          <mxGeometry relative="1" as="geometry" />
        </mxCell>
        <mxCell id="yGgz9N2xFHgXJwQMNSEJ-17" style="edgeStyle=none;rounded=0;orthogonalLoop=1;jettySize=auto;html=1;exitX=1;exitY=1;exitDx=0;exitDy=0;" edge="1" parent="1" source="yGgz9N2xFHgXJwQMNSEJ-15">
          <mxGeometry relative="1" as="geometry">
            <mxPoint x="558.800048828125" y="304.5999755859375" as="targetPoint" />
          </mxGeometry>
        </mxCell>
        <mxCell id="yGgz9N2xFHgXJwQMNSEJ-15" value="2" style="rounded=0;whiteSpace=wrap;html=1;fillColor=#ffffff;" vertex="1" parent="1">
          <mxGeometry x="466" y="220" width="56" height="26" as="geometry" />
        </mxCell>
        <mxCell id="yGgz9N2xFHgXJwQMNSEJ-18" value="1" style="rounded=0;whiteSpace=wrap;html=1;fillColor=#ffffff;" vertex="1" parent="1">
          <mxGeometry x="124" y="494" width="56" height="26" as="geometry" />
        </mxCell>
        <mxCell id="yGgz9N2xFHgXJwQMNSEJ-19" value="9" style="rounded=0;whiteSpace=wrap;html=1;fillColor=#ffffff;" vertex="1" parent="1">
          <mxGeometry x="236" y="494" width="56" height="26" as="geometry" />
        </mxCell>
        <mxCell id="yGgz9N2xFHgXJwQMNSEJ-20" value="12" style="rounded=0;whiteSpace=wrap;html=1;fillColor=#ffffff;" vertex="1" parent="1">
          <mxGeometry x="292" y="494" width="56" height="26" as="geometry" />
        </mxCell>
        <mxCell id="yGgz9N2xFHgXJwQMNSEJ-21" style="edgeStyle=none;rounded=0;orthogonalLoop=1;jettySize=auto;html=1;exitX=0;exitY=1;exitDx=0;exitDy=0;entryX=0.5;entryY=0;entryDx=0;entryDy=0;" edge="1" parent="1" source="yGgz9N2xFHgXJwQMNSEJ-23" target="yGgz9N2xFHgXJwQMNSEJ-18">
          <mxGeometry relative="1" as="geometry" />
        </mxCell>
        <mxCell id="yGgz9N2xFHgXJwQMNSEJ-22" style="edgeStyle=none;rounded=0;orthogonalLoop=1;jettySize=auto;html=1;exitX=1;exitY=1;exitDx=0;exitDy=0;" edge="1" parent="1" source="yGgz9N2xFHgXJwQMNSEJ-23">
          <mxGeometry relative="1" as="geometry">
            <mxPoint x="290.800048828125" y="493.5999755859375" as="targetPoint" />
          </mxGeometry>
        </mxCell>
        <mxCell id="yGgz9N2xFHgXJwQMNSEJ-23" value="2" style="rounded=0;whiteSpace=wrap;html=1;fillColor=#ffffff;" vertex="1" parent="1">
          <mxGeometry x="198" y="409" width="56" height="26" as="geometry" />
        </mxCell>
        <mxCell id="yGgz9N2xFHgXJwQMNSEJ-24" value="1" style="rounded=0;whiteSpace=wrap;html=1;fillColor=#ffffff;" vertex="1" parent="1">
          <mxGeometry x="448" y="494" width="56" height="26" as="geometry" />
        </mxCell>
        <mxCell id="yGgz9N2xFHgXJwQMNSEJ-25" value="9" style="rounded=0;whiteSpace=wrap;html=1;fillColor=#ffffff;" vertex="1" parent="1">
          <mxGeometry x="560" y="494" width="56" height="26" as="geometry" />
        </mxCell>
        <mxCell id="yGgz9N2xFHgXJwQMNSEJ-26" value="12" style="rounded=0;whiteSpace=wrap;html=1;fillColor=#ffffff;" vertex="1" parent="1">
          <mxGeometry x="616" y="494" width="56" height="26" as="geometry" />
        </mxCell>
        <mxCell id="yGgz9N2xFHgXJwQMNSEJ-27" style="edgeStyle=none;rounded=0;orthogonalLoop=1;jettySize=auto;html=1;exitX=0;exitY=1;exitDx=0;exitDy=0;entryX=1;entryY=0;entryDx=0;entryDy=0;" edge="1" parent="1" source="yGgz9N2xFHgXJwQMNSEJ-29" target="yGgz9N2xFHgXJwQMNSEJ-30">
          <mxGeometry relative="1" as="geometry" />
        </mxCell>
        <mxCell id="yGgz9N2xFHgXJwQMNSEJ-28" style="edgeStyle=none;rounded=0;orthogonalLoop=1;jettySize=auto;html=1;exitX=1;exitY=1;exitDx=0;exitDy=0;" edge="1" parent="1" source="yGgz9N2xFHgXJwQMNSEJ-29">
          <mxGeometry relative="1" as="geometry">
            <mxPoint x="614.800048828125" y="493.5999755859375" as="targetPoint" />
          </mxGeometry>
        </mxCell>
        <mxCell id="yGgz9N2xFHgXJwQMNSEJ-29" value="2" style="rounded=0;whiteSpace=wrap;html=1;fillColor=#ffffff;" vertex="1" parent="1">
          <mxGeometry x="510" y="409" width="56" height="26" as="geometry" />
        </mxCell>
        <mxCell id="yGgz9N2xFHgXJwQMNSEJ-30" value="0" style="rounded=0;whiteSpace=wrap;html=1;fillColor=#f8cecc;strokeColor=#b85450;" vertex="1" parent="1">
          <mxGeometry x="392" y="494" width="56" height="26" as="geometry" />
        </mxCell>
        <mxCell id="yGgz9N2xFHgXJwQMNSEJ-31" value="1" style="rounded=0;whiteSpace=wrap;html=1;fillColor=#ffffff;" vertex="1" parent="1">
          <mxGeometry x="142" y="673" width="56" height="26" as="geometry" />
        </mxCell>
        <mxCell id="yGgz9N2xFHgXJwQMNSEJ-32" value="9" style="rounded=0;whiteSpace=wrap;html=1;fillColor=#ffffff;" vertex="1" parent="1">
          <mxGeometry x="254" y="673" width="56" height="26" as="geometry" />
        </mxCell>
        <mxCell id="yGgz9N2xFHgXJwQMNSEJ-33" value="12" style="rounded=0;whiteSpace=wrap;html=1;fillColor=#ffffff;" vertex="1" parent="1">
          <mxGeometry x="310" y="673" width="56" height="26" as="geometry" />
        </mxCell>
        <mxCell id="yGgz9N2xFHgXJwQMNSEJ-34" style="edgeStyle=none;rounded=0;orthogonalLoop=1;jettySize=auto;html=1;exitX=0;exitY=1;exitDx=0;exitDy=0;entryX=1;entryY=0;entryDx=0;entryDy=0;" edge="1" parent="1" source="yGgz9N2xFHgXJwQMNSEJ-36" target="yGgz9N2xFHgXJwQMNSEJ-37">
          <mxGeometry relative="1" as="geometry" />
        </mxCell>
        <mxCell id="yGgz9N2xFHgXJwQMNSEJ-35" style="edgeStyle=none;rounded=0;orthogonalLoop=1;jettySize=auto;html=1;exitX=1;exitY=1;exitDx=0;exitDy=0;" edge="1" parent="1" source="yGgz9N2xFHgXJwQMNSEJ-36">
          <mxGeometry relative="1" as="geometry">
            <mxPoint x="308.800048828125" y="672.5999755859375" as="targetPoint" />
          </mxGeometry>
        </mxCell>
        <mxCell id="yGgz9N2xFHgXJwQMNSEJ-36" value="2" style="rounded=0;whiteSpace=wrap;html=1;fillColor=#ffffff;" vertex="1" parent="1">
          <mxGeometry x="204" y="588" width="56" height="26" as="geometry" />
        </mxCell>
        <mxCell id="yGgz9N2xFHgXJwQMNSEJ-37" value="0" style="rounded=0;whiteSpace=wrap;html=1;" vertex="1" parent="1">
          <mxGeometry x="86" y="673" width="56" height="26" as="geometry" />
        </mxCell>
        <mxCell id="yGgz9N2xFHgXJwQMNSEJ-38" value="1" style="rounded=0;whiteSpace=wrap;html=1;fillColor=#ffffff;" vertex="1" parent="1">
          <mxGeometry x="466" y="673" width="56" height="26" as="geometry" />
        </mxCell>
        <mxCell id="yGgz9N2xFHgXJwQMNSEJ-39" value="9" style="rounded=0;whiteSpace=wrap;html=1;fillColor=#ffffff;" vertex="1" parent="1">
          <mxGeometry x="578" y="673" width="56" height="26" as="geometry" />
        </mxCell>
        <mxCell id="yGgz9N2xFHgXJwQMNSEJ-40" value="11" style="rounded=0;whiteSpace=wrap;html=1;fillColor=#f8cecc;strokeColor=#b85450;" vertex="1" parent="1">
          <mxGeometry x="634" y="673" width="56" height="26" as="geometry" />
        </mxCell>
        <mxCell id="yGgz9N2xFHgXJwQMNSEJ-41" style="edgeStyle=none;rounded=0;orthogonalLoop=1;jettySize=auto;html=1;exitX=0;exitY=1;exitDx=0;exitDy=0;entryX=1;entryY=0;entryDx=0;entryDy=0;" edge="1" parent="1" source="yGgz9N2xFHgXJwQMNSEJ-43" target="yGgz9N2xFHgXJwQMNSEJ-44">
          <mxGeometry relative="1" as="geometry" />
        </mxCell>
        <mxCell id="yGgz9N2xFHgXJwQMNSEJ-42" style="edgeStyle=none;rounded=0;orthogonalLoop=1;jettySize=auto;html=1;exitX=1;exitY=1;exitDx=0;exitDy=0;entryX=0.5;entryY=0;entryDx=0;entryDy=0;" edge="1" parent="1" source="yGgz9N2xFHgXJwQMNSEJ-43" target="yGgz9N2xFHgXJwQMNSEJ-40">
          <mxGeometry relative="1" as="geometry">
            <mxPoint x="632.800048828125" y="672.5999755859375" as="targetPoint" />
          </mxGeometry>
        </mxCell>
        <mxCell id="yGgz9N2xFHgXJwQMNSEJ-43" value="2" style="rounded=0;whiteSpace=wrap;html=1;fillColor=#ffffff;" vertex="1" parent="1">
          <mxGeometry x="539" y="588" width="56" height="26" as="geometry" />
        </mxCell>
        <mxCell id="yGgz9N2xFHgXJwQMNSEJ-44" value="0" style="rounded=0;whiteSpace=wrap;html=1;" vertex="1" parent="1">
          <mxGeometry x="410" y="673" width="56" height="26" as="geometry" />
        </mxCell>
        <mxCell id="yGgz9N2xFHgXJwQMNSEJ-45" value="12" style="rounded=0;whiteSpace=wrap;html=1;fillColor=#ffffff;" vertex="1" parent="1">
          <mxGeometry x="690" y="673" width="56" height="26" as="geometry" />
        </mxCell>
        <mxCell id="yGgz9N2xFHgXJwQMNSEJ-46" value="1" style="rounded=0;whiteSpace=wrap;html=1;fillColor=#ffffff;" vertex="1" parent="1">
          <mxGeometry x="120" y="853" width="56" height="26" as="geometry" />
        </mxCell>
        <mxCell id="yGgz9N2xFHgXJwQMNSEJ-47" value="9" style="rounded=0;whiteSpace=wrap;html=1;fillColor=#ffffff;" vertex="1" parent="1">
          <mxGeometry x="232" y="853" width="56" height="26" as="geometry" />
        </mxCell>
        <mxCell id="yGgz9N2xFHgXJwQMNSEJ-48" value="11" style="rounded=0;whiteSpace=wrap;html=1;" vertex="1" parent="1">
          <mxGeometry x="288" y="853" width="56" height="26" as="geometry" />
        </mxCell>
        <mxCell id="yGgz9N2xFHgXJwQMNSEJ-49" style="edgeStyle=none;rounded=0;orthogonalLoop=1;jettySize=auto;html=1;exitX=0;exitY=1;exitDx=0;exitDy=0;entryX=1;entryY=0;entryDx=0;entryDy=0;" edge="1" parent="1" source="yGgz9N2xFHgXJwQMNSEJ-51" target="yGgz9N2xFHgXJwQMNSEJ-52">
          <mxGeometry relative="1" as="geometry" />
        </mxCell>
        <mxCell id="yGgz9N2xFHgXJwQMNSEJ-50" style="edgeStyle=none;rounded=0;orthogonalLoop=1;jettySize=auto;html=1;exitX=1;exitY=1;exitDx=0;exitDy=0;entryX=0.5;entryY=0;entryDx=0;entryDy=0;" edge="1" parent="1" source="yGgz9N2xFHgXJwQMNSEJ-51" target="yGgz9N2xFHgXJwQMNSEJ-48">
          <mxGeometry relative="1" as="geometry">
            <mxPoint x="286.800048828125" y="852.5999755859375" as="targetPoint" />
          </mxGeometry>
        </mxCell>
        <mxCell id="yGgz9N2xFHgXJwQMNSEJ-51" value="2" style="rounded=0;whiteSpace=wrap;html=1;fillColor=#ffffff;" vertex="1" parent="1">
          <mxGeometry x="193" y="768" width="56" height="26" as="geometry" />
        </mxCell>
        <mxCell id="yGgz9N2xFHgXJwQMNSEJ-52" value="0" style="rounded=0;whiteSpace=wrap;html=1;" vertex="1" parent="1">
          <mxGeometry x="64" y="853" width="56" height="26" as="geometry" />
        </mxCell>
        <mxCell id="yGgz9N2xFHgXJwQMNSEJ-53" value="12" style="rounded=0;whiteSpace=wrap;html=1;fillColor=#ffffff;" vertex="1" parent="1">
          <mxGeometry x="344" y="853" width="56" height="26" as="geometry" />
        </mxCell>
        <mxCell id="yGgz9N2xFHgXJwQMNSEJ-54" value="1" style="rounded=0;whiteSpace=wrap;html=1;fillColor=#ffffff;" vertex="1" parent="1">
          <mxGeometry x="500" y="853" width="56" height="26" as="geometry" />
        </mxCell>
        <mxCell id="yGgz9N2xFHgXJwQMNSEJ-55" value="9" style="rounded=0;whiteSpace=wrap;html=1;fillColor=#ffffff;" vertex="1" parent="1">
          <mxGeometry x="662" y="853" width="56" height="26" as="geometry" />
        </mxCell>
        <mxCell id="yGgz9N2xFHgXJwQMNSEJ-56" value="11" style="rounded=0;whiteSpace=wrap;html=1;" vertex="1" parent="1">
          <mxGeometry x="718" y="853" width="56" height="26" as="geometry" />
        </mxCell>
        <mxCell id="yGgz9N2xFHgXJwQMNSEJ-57" style="edgeStyle=none;rounded=0;orthogonalLoop=1;jettySize=auto;html=1;exitX=0;exitY=1;exitDx=0;exitDy=0;entryX=1;entryY=0;entryDx=0;entryDy=0;" edge="1" parent="1" source="yGgz9N2xFHgXJwQMNSEJ-59" target="yGgz9N2xFHgXJwQMNSEJ-60">
          <mxGeometry relative="1" as="geometry" />
        </mxCell>
        <mxCell id="yGgz9N2xFHgXJwQMNSEJ-58" style="edgeStyle=none;rounded=0;orthogonalLoop=1;jettySize=auto;html=1;exitX=1;exitY=1;exitDx=0;exitDy=0;entryX=0.5;entryY=0;entryDx=0;entryDy=0;" edge="1" parent="1" source="yGgz9N2xFHgXJwQMNSEJ-59" target="yGgz9N2xFHgXJwQMNSEJ-56">
          <mxGeometry relative="1" as="geometry">
            <mxPoint x="666.800048828125" y="852.5999755859375" as="targetPoint" />
          </mxGeometry>
        </mxCell>
        <mxCell id="yGgz9N2xFHgXJwQMNSEJ-59" value="2" style="rounded=0;whiteSpace=wrap;html=1;fillColor=#ffffff;" vertex="1" parent="1">
          <mxGeometry x="599" y="768" width="56" height="26" as="geometry" />
        </mxCell>
        <mxCell id="yGgz9N2xFHgXJwQMNSEJ-60" value="0" style="rounded=0;whiteSpace=wrap;html=1;" vertex="1" parent="1">
          <mxGeometry x="444" y="853" width="56" height="26" as="geometry" />
        </mxCell>
        <mxCell id="yGgz9N2xFHgXJwQMNSEJ-61" value="12" style="rounded=0;whiteSpace=wrap;html=1;fillColor=#ffffff;" vertex="1" parent="1">
          <mxGeometry x="774" y="853" width="56" height="26" as="geometry" />
        </mxCell>
        <mxCell id="yGgz9N2xFHgXJwQMNSEJ-62" value="7" style="rounded=0;whiteSpace=wrap;html=1;fillColor=#f8cecc;strokeColor=#b85450;" vertex="1" parent="1">
          <mxGeometry x="606" y="853" width="56" height="26" as="geometry" />
        </mxCell>
        <mxCell id="yGgz9N2xFHgXJwQMNSEJ-63" value="1" style="rounded=0;whiteSpace=wrap;html=1;fillColor=#ffffff;" vertex="1" parent="1">
          <mxGeometry x="948" y="851" width="56" height="26" as="geometry" />
        </mxCell>
        <mxCell id="yGgz9N2xFHgXJwQMNSEJ-73" style="edgeStyle=none;rounded=0;orthogonalLoop=1;jettySize=auto;html=1;exitX=1;exitY=1;exitDx=0;exitDy=0;entryX=0;entryY=0;entryDx=0;entryDy=0;" edge="1" parent="1" source="yGgz9N2xFHgXJwQMNSEJ-64" target="yGgz9N2xFHgXJwQMNSEJ-70">
          <mxGeometry relative="1" as="geometry" />
        </mxCell>
        <mxCell id="yGgz9N2xFHgXJwQMNSEJ-64" value="9" style="rounded=0;whiteSpace=wrap;html=1;fillColor=#ffffff;" vertex="1" parent="1">
          <mxGeometry x="1076" y="766" width="56" height="26" as="geometry" />
        </mxCell>
        <mxCell id="yGgz9N2xFHgXJwQMNSEJ-65" value="11" style="rounded=0;whiteSpace=wrap;html=1;" vertex="1" parent="1">
          <mxGeometry x="1139" y="851" width="56" height="26" as="geometry" />
        </mxCell>
        <mxCell id="yGgz9N2xFHgXJwQMNSEJ-66" style="edgeStyle=none;rounded=0;orthogonalLoop=1;jettySize=auto;html=1;exitX=0;exitY=1;exitDx=0;exitDy=0;entryX=1;entryY=0;entryDx=0;entryDy=0;" edge="1" parent="1" source="yGgz9N2xFHgXJwQMNSEJ-68" target="yGgz9N2xFHgXJwQMNSEJ-69">
          <mxGeometry relative="1" as="geometry" />
        </mxCell>
        <mxCell id="yGgz9N2xFHgXJwQMNSEJ-72" style="edgeStyle=none;rounded=0;orthogonalLoop=1;jettySize=auto;html=1;exitX=1;exitY=1;exitDx=0;exitDy=0;entryX=0.5;entryY=0;entryDx=0;entryDy=0;" edge="1" parent="1" source="yGgz9N2xFHgXJwQMNSEJ-68" target="yGgz9N2xFHgXJwQMNSEJ-71">
          <mxGeometry relative="1" as="geometry" />
        </mxCell>
        <mxCell id="yGgz9N2xFHgXJwQMNSEJ-68" value="2" style="rounded=0;whiteSpace=wrap;html=1;fillColor=#ffffff;" vertex="1" parent="1">
          <mxGeometry x="1020" y="766" width="56" height="26" as="geometry" />
        </mxCell>
        <mxCell id="yGgz9N2xFHgXJwQMNSEJ-69" value="0" style="rounded=0;whiteSpace=wrap;html=1;" vertex="1" parent="1">
          <mxGeometry x="892" y="851" width="56" height="26" as="geometry" />
        </mxCell>
        <mxCell id="yGgz9N2xFHgXJwQMNSEJ-70" value="12" style="rounded=0;whiteSpace=wrap;html=1;fillColor=#ffffff;" vertex="1" parent="1">
          <mxGeometry x="1195" y="851" width="56" height="26" as="geometry" />
        </mxCell>
        <mxCell id="yGgz9N2xFHgXJwQMNSEJ-71" value="7" style="rounded=0;whiteSpace=wrap;html=1;" vertex="1" parent="1">
          <mxGeometry x="1048" y="851" width="56" height="26" as="geometry" />
        </mxCell>
        <mxCell id="yGgz9N2xFHgXJwQMNSEJ-74" value="1" style="rounded=0;whiteSpace=wrap;html=1;fillColor=#ffffff;" vertex="1" parent="1">
          <mxGeometry x="84.5" y="1055" width="56" height="26" as="geometry" />
        </mxCell>
        <mxCell id="yGgz9N2xFHgXJwQMNSEJ-75" style="edgeStyle=none;rounded=0;orthogonalLoop=1;jettySize=auto;html=1;exitX=1;exitY=1;exitDx=0;exitDy=0;entryX=0;entryY=0;entryDx=0;entryDy=0;" edge="1" parent="1" source="yGgz9N2xFHgXJwQMNSEJ-76" target="yGgz9N2xFHgXJwQMNSEJ-82">
          <mxGeometry relative="1" as="geometry" />
        </mxCell>
        <mxCell id="yGgz9N2xFHgXJwQMNSEJ-76" value="9" style="rounded=0;whiteSpace=wrap;html=1;fillColor=#ffffff;" vertex="1" parent="1">
          <mxGeometry x="212.5" y="970" width="56" height="26" as="geometry" />
        </mxCell>
        <mxCell id="yGgz9N2xFHgXJwQMNSEJ-77" value="11" style="rounded=0;whiteSpace=wrap;html=1;" vertex="1" parent="1">
          <mxGeometry x="275.5" y="1055" width="56" height="26" as="geometry" />
        </mxCell>
        <mxCell id="yGgz9N2xFHgXJwQMNSEJ-78" style="edgeStyle=none;rounded=0;orthogonalLoop=1;jettySize=auto;html=1;exitX=0;exitY=1;exitDx=0;exitDy=0;entryX=1;entryY=0;entryDx=0;entryDy=0;" edge="1" parent="1" source="yGgz9N2xFHgXJwQMNSEJ-80" target="yGgz9N2xFHgXJwQMNSEJ-81">
          <mxGeometry relative="1" as="geometry" />
        </mxCell>
        <mxCell id="yGgz9N2xFHgXJwQMNSEJ-79" style="edgeStyle=none;rounded=0;orthogonalLoop=1;jettySize=auto;html=1;exitX=1;exitY=1;exitDx=0;exitDy=0;entryX=0.5;entryY=0;entryDx=0;entryDy=0;" edge="1" parent="1" source="yGgz9N2xFHgXJwQMNSEJ-80" target="yGgz9N2xFHgXJwQMNSEJ-83">
          <mxGeometry relative="1" as="geometry" />
        </mxCell>
        <mxCell id="yGgz9N2xFHgXJwQMNSEJ-80" value="2" style="rounded=0;whiteSpace=wrap;html=1;fillColor=#ffffff;" vertex="1" parent="1">
          <mxGeometry x="156.5" y="970" width="56" height="26" as="geometry" />
        </mxCell>
        <mxCell id="yGgz9N2xFHgXJwQMNSEJ-81" value="0" style="rounded=0;whiteSpace=wrap;html=1;" vertex="1" parent="1">
          <mxGeometry x="28.5" y="1055" width="56" height="26" as="geometry" />
        </mxCell>
        <mxCell id="yGgz9N2xFHgXJwQMNSEJ-82" value="12" style="rounded=0;whiteSpace=wrap;html=1;fillColor=#ffffff;" vertex="1" parent="1">
          <mxGeometry x="331.5" y="1055" width="56" height="26" as="geometry" />
        </mxCell>
        <mxCell id="yGgz9N2xFHgXJwQMNSEJ-83" value="7" style="rounded=0;whiteSpace=wrap;html=1;" vertex="1" parent="1">
          <mxGeometry x="184.5" y="1055" width="56" height="26" as="geometry" />
        </mxCell>
        <mxCell id="yGgz9N2xFHgXJwQMNSEJ-84" value="1" style="rounded=0;whiteSpace=wrap;html=1;fillColor=#ffffff;" vertex="1" parent="1">
          <mxGeometry x="486" y="1055" width="56" height="26" as="geometry" />
        </mxCell>
        <mxCell id="yGgz9N2xFHgXJwQMNSEJ-85" style="edgeStyle=none;rounded=0;orthogonalLoop=1;jettySize=auto;html=1;exitX=1;exitY=1;exitDx=0;exitDy=0;entryX=0;entryY=0;entryDx=0;entryDy=0;" edge="1" parent="1" source="yGgz9N2xFHgXJwQMNSEJ-86" target="yGgz9N2xFHgXJwQMNSEJ-92">
          <mxGeometry relative="1" as="geometry" />
        </mxCell>
        <mxCell id="yGgz9N2xFHgXJwQMNSEJ-86" value="9" style="rounded=0;whiteSpace=wrap;html=1;fillColor=#ffffff;" vertex="1" parent="1">
          <mxGeometry x="614" y="970" width="56" height="26" as="geometry" />
        </mxCell>
        <mxCell id="yGgz9N2xFHgXJwQMNSEJ-87" value="11" style="rounded=0;whiteSpace=wrap;html=1;" vertex="1" parent="1">
          <mxGeometry x="677" y="1055" width="56" height="26" as="geometry" />
        </mxCell>
        <mxCell id="yGgz9N2xFHgXJwQMNSEJ-88" style="edgeStyle=none;rounded=0;orthogonalLoop=1;jettySize=auto;html=1;exitX=0;exitY=1;exitDx=0;exitDy=0;entryX=1;entryY=0;entryDx=0;entryDy=0;" edge="1" parent="1" source="yGgz9N2xFHgXJwQMNSEJ-90" target="yGgz9N2xFHgXJwQMNSEJ-91">
          <mxGeometry relative="1" as="geometry" />
        </mxCell>
        <mxCell id="yGgz9N2xFHgXJwQMNSEJ-89" style="edgeStyle=none;rounded=0;orthogonalLoop=1;jettySize=auto;html=1;exitX=1;exitY=1;exitDx=0;exitDy=0;entryX=0.5;entryY=0;entryDx=0;entryDy=0;" edge="1" parent="1" source="yGgz9N2xFHgXJwQMNSEJ-90" target="yGgz9N2xFHgXJwQMNSEJ-93">
          <mxGeometry relative="1" as="geometry" />
        </mxCell>
        <mxCell id="yGgz9N2xFHgXJwQMNSEJ-90" value="2" style="rounded=0;whiteSpace=wrap;html=1;fillColor=#ffffff;" vertex="1" parent="1">
          <mxGeometry x="558" y="970" width="56" height="26" as="geometry" />
        </mxCell>
        <mxCell id="yGgz9N2xFHgXJwQMNSEJ-91" value="0" style="rounded=0;whiteSpace=wrap;html=1;" vertex="1" parent="1">
          <mxGeometry x="430" y="1055" width="56" height="26" as="geometry" />
        </mxCell>
        <mxCell id="yGgz9N2xFHgXJwQMNSEJ-92" value="12" style="rounded=0;whiteSpace=wrap;html=1;fillColor=#ffffff;" vertex="1" parent="1">
          <mxGeometry x="733" y="1055" width="56" height="26" as="geometry" />
        </mxCell>
        <mxCell id="yGgz9N2xFHgXJwQMNSEJ-93" value="7" style="rounded=0;whiteSpace=wrap;html=1;" vertex="1" parent="1">
          <mxGeometry x="586" y="1055" width="56" height="26" as="geometry" />
        </mxCell>
        <mxCell id="yGgz9N2xFHgXJwQMNSEJ-94" value="19" style="rounded=0;whiteSpace=wrap;html=1;fillColor=#f8cecc;strokeColor=#b85450;" vertex="1" parent="1">
          <mxGeometry x="789" y="1055" width="56" height="26" as="geometry" />
        </mxCell>
        <mxCell id="yGgz9N2xFHgXJwQMNSEJ-106" value="1" style="rounded=0;whiteSpace=wrap;html=1;fillColor=#ffffff;" vertex="1" parent="1">
          <mxGeometry x="74.5" y="1253" width="56" height="26" as="geometry" />
        </mxCell>
        <mxCell id="yGgz9N2xFHgXJwQMNSEJ-107" style="edgeStyle=none;rounded=0;orthogonalLoop=1;jettySize=auto;html=1;exitX=1;exitY=1;exitDx=0;exitDy=0;entryX=0;entryY=0;entryDx=0;entryDy=0;" edge="1" parent="1" source="yGgz9N2xFHgXJwQMNSEJ-108" target="yGgz9N2xFHgXJwQMNSEJ-114">
          <mxGeometry relative="1" as="geometry" />
        </mxCell>
        <mxCell id="yGgz9N2xFHgXJwQMNSEJ-108" value="9" style="rounded=0;whiteSpace=wrap;html=1;fillColor=#ffffff;" vertex="1" parent="1">
          <mxGeometry x="202.5" y="1168" width="56" height="26" as="geometry" />
        </mxCell>
        <mxCell id="yGgz9N2xFHgXJwQMNSEJ-109" value="11" style="rounded=0;whiteSpace=wrap;html=1;" vertex="1" parent="1">
          <mxGeometry x="265.5" y="1253" width="56" height="26" as="geometry" />
        </mxCell>
        <mxCell id="yGgz9N2xFHgXJwQMNSEJ-110" style="edgeStyle=none;rounded=0;orthogonalLoop=1;jettySize=auto;html=1;exitX=0;exitY=1;exitDx=0;exitDy=0;entryX=1;entryY=0;entryDx=0;entryDy=0;" edge="1" parent="1" source="yGgz9N2xFHgXJwQMNSEJ-112" target="yGgz9N2xFHgXJwQMNSEJ-113">
          <mxGeometry relative="1" as="geometry" />
        </mxCell>
        <mxCell id="yGgz9N2xFHgXJwQMNSEJ-111" style="edgeStyle=none;rounded=0;orthogonalLoop=1;jettySize=auto;html=1;exitX=1;exitY=1;exitDx=0;exitDy=0;entryX=0.5;entryY=0;entryDx=0;entryDy=0;" edge="1" parent="1" source="yGgz9N2xFHgXJwQMNSEJ-112" target="yGgz9N2xFHgXJwQMNSEJ-115">
          <mxGeometry relative="1" as="geometry" />
        </mxCell>
        <mxCell id="yGgz9N2xFHgXJwQMNSEJ-112" value="2" style="rounded=0;whiteSpace=wrap;html=1;fillColor=#ffffff;" vertex="1" parent="1">
          <mxGeometry x="146.5" y="1168" width="56" height="26" as="geometry" />
        </mxCell>
        <mxCell id="yGgz9N2xFHgXJwQMNSEJ-113" value="0" style="rounded=0;whiteSpace=wrap;html=1;" vertex="1" parent="1">
          <mxGeometry x="18.5" y="1253" width="56" height="26" as="geometry" />
        </mxCell>
        <mxCell id="yGgz9N2xFHgXJwQMNSEJ-114" value="12" style="rounded=0;whiteSpace=wrap;html=1;fillColor=#ffffff;" vertex="1" parent="1">
          <mxGeometry x="321.5" y="1253" width="56" height="26" as="geometry" />
        </mxCell>
        <mxCell id="yGgz9N2xFHgXJwQMNSEJ-115" value="7" style="rounded=0;whiteSpace=wrap;html=1;" vertex="1" parent="1">
          <mxGeometry x="174.5" y="1253" width="56" height="26" as="geometry" />
        </mxCell>
        <mxCell id="yGgz9N2xFHgXJwQMNSEJ-116" value="19" style="rounded=0;whiteSpace=wrap;html=1;" vertex="1" parent="1">
          <mxGeometry x="377.5" y="1253" width="56" height="26" as="geometry" />
        </mxCell>
        <mxCell id="yGgz9N2xFHgXJwQMNSEJ-117" value="1" style="rounded=0;whiteSpace=wrap;html=1;fillColor=#ffffff;" vertex="1" parent="1">
          <mxGeometry x="542" y="1253" width="56" height="26" as="geometry" />
        </mxCell>
        <mxCell id="yGgz9N2xFHgXJwQMNSEJ-118" style="edgeStyle=none;rounded=0;orthogonalLoop=1;jettySize=auto;html=1;exitX=1;exitY=1;exitDx=0;exitDy=0;entryX=0;entryY=0;entryDx=0;entryDy=0;" edge="1" parent="1" source="yGgz9N2xFHgXJwQMNSEJ-119" target="yGgz9N2xFHgXJwQMNSEJ-125">
          <mxGeometry relative="1" as="geometry" />
        </mxCell>
        <mxCell id="yGgz9N2xFHgXJwQMNSEJ-119" value="9" style="rounded=0;whiteSpace=wrap;html=1;fillColor=#ffffff;" vertex="1" parent="1">
          <mxGeometry x="689" y="1168" width="56" height="26" as="geometry" />
        </mxCell>
        <mxCell id="yGgz9N2xFHgXJwQMNSEJ-120" value="11" style="rounded=0;whiteSpace=wrap;html=1;" vertex="1" parent="1">
          <mxGeometry x="780" y="1253" width="56" height="26" as="geometry" />
        </mxCell>
        <mxCell id="yGgz9N2xFHgXJwQMNSEJ-121" style="edgeStyle=none;rounded=0;orthogonalLoop=1;jettySize=auto;html=1;exitX=0;exitY=1;exitDx=0;exitDy=0;entryX=1;entryY=0;entryDx=0;entryDy=0;" edge="1" parent="1" source="yGgz9N2xFHgXJwQMNSEJ-123" target="yGgz9N2xFHgXJwQMNSEJ-124">
          <mxGeometry relative="1" as="geometry" />
        </mxCell>
        <mxCell id="yGgz9N2xFHgXJwQMNSEJ-122" style="edgeStyle=none;rounded=0;orthogonalLoop=1;jettySize=auto;html=1;exitX=1;exitY=1;exitDx=0;exitDy=0;entryX=1;entryY=0;entryDx=0;entryDy=0;" edge="1" parent="1" source="yGgz9N2xFHgXJwQMNSEJ-123" target="yGgz9N2xFHgXJwQMNSEJ-128">
          <mxGeometry relative="1" as="geometry" />
        </mxCell>
        <mxCell id="yGgz9N2xFHgXJwQMNSEJ-123" value="2" style="rounded=0;whiteSpace=wrap;html=1;fillColor=#ffffff;" vertex="1" parent="1">
          <mxGeometry x="633" y="1168" width="56" height="26" as="geometry" />
        </mxCell>
        <mxCell id="yGgz9N2xFHgXJwQMNSEJ-124" value="0" style="rounded=0;whiteSpace=wrap;html=1;" vertex="1" parent="1">
          <mxGeometry x="486" y="1253" width="56" height="26" as="geometry" />
        </mxCell>
        <mxCell id="yGgz9N2xFHgXJwQMNSEJ-125" value="12" style="rounded=0;whiteSpace=wrap;html=1;fillColor=#ffffff;" vertex="1" parent="1">
          <mxGeometry x="836" y="1253" width="56" height="26" as="geometry" />
        </mxCell>
        <mxCell id="yGgz9N2xFHgXJwQMNSEJ-126" value="7" style="rounded=0;whiteSpace=wrap;html=1;" vertex="1" parent="1">
          <mxGeometry x="689" y="1253" width="56" height="26" as="geometry" />
        </mxCell>
        <mxCell id="yGgz9N2xFHgXJwQMNSEJ-127" value="19" style="rounded=0;whiteSpace=wrap;html=1;" vertex="1" parent="1">
          <mxGeometry x="892" y="1253" width="56" height="26" as="geometry" />
        </mxCell>
        <mxCell id="yGgz9N2xFHgXJwQMNSEJ-128" value="4" style="rounded=0;whiteSpace=wrap;html=1;fillColor=#f8cecc;strokeColor=#b85450;" vertex="1" parent="1">
          <mxGeometry x="633" y="1253" width="56" height="26" as="geometry" />
        </mxCell>
        <mxCell id="yGgz9N2xFHgXJwQMNSEJ-141" value="1" style="rounded=0;whiteSpace=wrap;html=1;fillColor=#ffffff;" vertex="1" parent="1">
          <mxGeometry x="84.5" y="1443" width="56" height="26" as="geometry" />
        </mxCell>
        <mxCell id="yGgz9N2xFHgXJwQMNSEJ-142" style="edgeStyle=none;rounded=0;orthogonalLoop=1;jettySize=auto;html=1;exitX=1;exitY=1;exitDx=0;exitDy=0;entryX=0;entryY=0;entryDx=0;entryDy=0;" edge="1" parent="1" source="yGgz9N2xFHgXJwQMNSEJ-143" target="yGgz9N2xFHgXJwQMNSEJ-149">
          <mxGeometry relative="1" as="geometry" />
        </mxCell>
        <mxCell id="yGgz9N2xFHgXJwQMNSEJ-143" value="9" style="rounded=0;whiteSpace=wrap;html=1;fillColor=#ffffff;" vertex="1" parent="1">
          <mxGeometry x="231.5" y="1358" width="56" height="26" as="geometry" />
        </mxCell>
        <mxCell id="yGgz9N2xFHgXJwQMNSEJ-144" value="11" style="rounded=0;whiteSpace=wrap;html=1;" vertex="1" parent="1">
          <mxGeometry x="322.5" y="1443" width="56" height="26" as="geometry" />
        </mxCell>
        <mxCell id="yGgz9N2xFHgXJwQMNSEJ-145" style="edgeStyle=none;rounded=0;orthogonalLoop=1;jettySize=auto;html=1;exitX=0;exitY=1;exitDx=0;exitDy=0;entryX=1;entryY=0;entryDx=0;entryDy=0;" edge="1" parent="1" source="yGgz9N2xFHgXJwQMNSEJ-147" target="yGgz9N2xFHgXJwQMNSEJ-148">
          <mxGeometry relative="1" as="geometry" />
        </mxCell>
        <mxCell id="yGgz9N2xFHgXJwQMNSEJ-146" style="edgeStyle=none;rounded=0;orthogonalLoop=1;jettySize=auto;html=1;exitX=1;exitY=1;exitDx=0;exitDy=0;entryX=1;entryY=0;entryDx=0;entryDy=0;" edge="1" parent="1" source="yGgz9N2xFHgXJwQMNSEJ-147" target="yGgz9N2xFHgXJwQMNSEJ-152">
          <mxGeometry relative="1" as="geometry" />
        </mxCell>
        <mxCell id="yGgz9N2xFHgXJwQMNSEJ-147" value="2" style="rounded=0;whiteSpace=wrap;html=1;fillColor=#ffffff;" vertex="1" parent="1">
          <mxGeometry x="175.5" y="1358" width="56" height="26" as="geometry" />
        </mxCell>
        <mxCell id="yGgz9N2xFHgXJwQMNSEJ-148" value="0" style="rounded=0;whiteSpace=wrap;html=1;" vertex="1" parent="1">
          <mxGeometry x="28.5" y="1443" width="56" height="26" as="geometry" />
        </mxCell>
        <mxCell id="yGgz9N2xFHgXJwQMNSEJ-149" value="12" style="rounded=0;whiteSpace=wrap;html=1;fillColor=#ffffff;" vertex="1" parent="1">
          <mxGeometry x="378.5" y="1443" width="56" height="26" as="geometry" />
        </mxCell>
        <mxCell id="yGgz9N2xFHgXJwQMNSEJ-150" value="7" style="rounded=0;whiteSpace=wrap;html=1;" vertex="1" parent="1">
          <mxGeometry x="231.5" y="1443" width="56" height="26" as="geometry" />
        </mxCell>
        <mxCell id="yGgz9N2xFHgXJwQMNSEJ-151" value="19" style="rounded=0;whiteSpace=wrap;html=1;" vertex="1" parent="1">
          <mxGeometry x="434.5" y="1443" width="56" height="26" as="geometry" />
        </mxCell>
        <mxCell id="yGgz9N2xFHgXJwQMNSEJ-152" value="4" style="rounded=0;whiteSpace=wrap;html=1;" vertex="1" parent="1">
          <mxGeometry x="175.5" y="1443" width="56" height="26" as="geometry" />
        </mxCell>
        <mxCell id="yGgz9N2xFHgXJwQMNSEJ-153" value="1" style="rounded=0;whiteSpace=wrap;html=1;fillColor=#ffffff;" vertex="1" parent="1">
          <mxGeometry x="574" y="1443" width="56" height="26" as="geometry" />
        </mxCell>
        <mxCell id="yGgz9N2xFHgXJwQMNSEJ-154" style="edgeStyle=none;rounded=0;orthogonalLoop=1;jettySize=auto;html=1;exitX=1;exitY=1;exitDx=0;exitDy=0;entryX=0;entryY=0;entryDx=0;entryDy=0;" edge="1" parent="1" source="yGgz9N2xFHgXJwQMNSEJ-155" target="yGgz9N2xFHgXJwQMNSEJ-161">
          <mxGeometry relative="1" as="geometry" />
        </mxCell>
        <mxCell id="yGgz9N2xFHgXJwQMNSEJ-155" value="9" style="rounded=0;whiteSpace=wrap;html=1;fillColor=#ffffff;" vertex="1" parent="1">
          <mxGeometry x="721" y="1358" width="56" height="26" as="geometry" />
        </mxCell>
        <mxCell id="yGgz9N2xFHgXJwQMNSEJ-156" value="11" style="rounded=0;whiteSpace=wrap;html=1;" vertex="1" parent="1">
          <mxGeometry x="812" y="1443" width="56" height="26" as="geometry" />
        </mxCell>
        <mxCell id="yGgz9N2xFHgXJwQMNSEJ-157" style="edgeStyle=none;rounded=0;orthogonalLoop=1;jettySize=auto;html=1;exitX=0;exitY=1;exitDx=0;exitDy=0;entryX=1;entryY=0;entryDx=0;entryDy=0;" edge="1" parent="1" source="yGgz9N2xFHgXJwQMNSEJ-159" target="yGgz9N2xFHgXJwQMNSEJ-160">
          <mxGeometry relative="1" as="geometry" />
        </mxCell>
        <mxCell id="yGgz9N2xFHgXJwQMNSEJ-158" style="edgeStyle=none;rounded=0;orthogonalLoop=1;jettySize=auto;html=1;exitX=1;exitY=1;exitDx=0;exitDy=0;entryX=1;entryY=0;entryDx=0;entryDy=0;" edge="1" parent="1" source="yGgz9N2xFHgXJwQMNSEJ-159" target="yGgz9N2xFHgXJwQMNSEJ-164">
          <mxGeometry relative="1" as="geometry" />
        </mxCell>
        <mxCell id="yGgz9N2xFHgXJwQMNSEJ-159" value="2" style="rounded=0;whiteSpace=wrap;html=1;fillColor=#ffffff;" vertex="1" parent="1">
          <mxGeometry x="665" y="1358" width="56" height="26" as="geometry" />
        </mxCell>
        <mxCell id="yGgz9N2xFHgXJwQMNSEJ-160" value="0" style="rounded=0;whiteSpace=wrap;html=1;" vertex="1" parent="1">
          <mxGeometry x="518" y="1443" width="56" height="26" as="geometry" />
        </mxCell>
        <mxCell id="yGgz9N2xFHgXJwQMNSEJ-161" value="12" style="rounded=0;whiteSpace=wrap;html=1;fillColor=#ffffff;" vertex="1" parent="1">
          <mxGeometry x="868" y="1443" width="56" height="26" as="geometry" />
        </mxCell>
        <mxCell id="yGgz9N2xFHgXJwQMNSEJ-162" value="7" style="rounded=0;whiteSpace=wrap;html=1;" vertex="1" parent="1">
          <mxGeometry x="721" y="1443" width="56" height="26" as="geometry" />
        </mxCell>
        <mxCell id="yGgz9N2xFHgXJwQMNSEJ-163" value="15" style="rounded=0;whiteSpace=wrap;html=1;fillColor=#f8cecc;strokeColor=#b85450;" vertex="1" parent="1">
          <mxGeometry x="924" y="1443" width="56" height="26" as="geometry" />
        </mxCell>
        <mxCell id="yGgz9N2xFHgXJwQMNSEJ-164" value="4" style="rounded=0;whiteSpace=wrap;html=1;" vertex="1" parent="1">
          <mxGeometry x="665" y="1443" width="56" height="26" as="geometry" />
        </mxCell>
        <mxCell id="yGgz9N2xFHgXJwQMNSEJ-165" value="19" style="rounded=0;whiteSpace=wrap;html=1;" vertex="1" parent="1">
          <mxGeometry x="980" y="1443" width="56" height="26" as="geometry" />
        </mxCell>
        <mxCell id="yGgz9N2xFHgXJwQMNSEJ-166" value="1" style="rounded=0;whiteSpace=wrap;html=1;fillColor=#ffffff;" vertex="1" parent="1">
          <mxGeometry x="1121" y="1443" width="56" height="26" as="geometry" />
        </mxCell>
        <mxCell id="yGgz9N2xFHgXJwQMNSEJ-179" style="edgeStyle=none;rounded=0;orthogonalLoop=1;jettySize=auto;html=1;exitX=1;exitY=1;exitDx=0;exitDy=0;entryX=0.5;entryY=0;entryDx=0;entryDy=0;" edge="1" parent="1" source="yGgz9N2xFHgXJwQMNSEJ-168" target="yGgz9N2xFHgXJwQMNSEJ-169">
          <mxGeometry relative="1" as="geometry" />
        </mxCell>
        <mxCell id="yGgz9N2xFHgXJwQMNSEJ-168" value="9" style="rounded=0;whiteSpace=wrap;html=1;fillColor=#ffffff;" vertex="1" parent="1">
          <mxGeometry x="1288" y="1358" width="56" height="26" as="geometry" />
        </mxCell>
        <mxCell id="yGgz9N2xFHgXJwQMNSEJ-169" value="11" style="rounded=0;whiteSpace=wrap;html=1;" vertex="1" parent="1">
          <mxGeometry x="1359" y="1443" width="56" height="26" as="geometry" />
        </mxCell>
        <mxCell id="yGgz9N2xFHgXJwQMNSEJ-170" style="edgeStyle=none;rounded=0;orthogonalLoop=1;jettySize=auto;html=1;exitX=0;exitY=1;exitDx=0;exitDy=0;entryX=1;entryY=0;entryDx=0;entryDy=0;" edge="1" parent="1" source="yGgz9N2xFHgXJwQMNSEJ-172" target="yGgz9N2xFHgXJwQMNSEJ-173">
          <mxGeometry relative="1" as="geometry" />
        </mxCell>
        <mxCell id="yGgz9N2xFHgXJwQMNSEJ-171" style="edgeStyle=none;rounded=0;orthogonalLoop=1;jettySize=auto;html=1;exitX=1;exitY=1;exitDx=0;exitDy=0;entryX=1;entryY=0;entryDx=0;entryDy=0;" edge="1" parent="1" source="yGgz9N2xFHgXJwQMNSEJ-172" target="yGgz9N2xFHgXJwQMNSEJ-177">
          <mxGeometry relative="1" as="geometry" />
        </mxCell>
        <mxCell id="yGgz9N2xFHgXJwQMNSEJ-172" value="2" style="rounded=0;whiteSpace=wrap;html=1;fillColor=#ffffff;" vertex="1" parent="1">
          <mxGeometry x="1232" y="1358" width="56" height="26" as="geometry" />
        </mxCell>
        <mxCell id="yGgz9N2xFHgXJwQMNSEJ-173" value="0" style="rounded=0;whiteSpace=wrap;html=1;" vertex="1" parent="1">
          <mxGeometry x="1065" y="1443" width="56" height="26" as="geometry" />
        </mxCell>
        <mxCell id="yGgz9N2xFHgXJwQMNSEJ-180" style="edgeStyle=none;rounded=0;orthogonalLoop=1;jettySize=auto;html=1;exitX=1;exitY=1;exitDx=0;exitDy=0;entryX=0;entryY=0;entryDx=0;entryDy=0;" edge="1" parent="1" source="yGgz9N2xFHgXJwQMNSEJ-174" target="yGgz9N2xFHgXJwQMNSEJ-178">
          <mxGeometry relative="1" as="geometry" />
        </mxCell>
        <mxCell id="yGgz9N2xFHgXJwQMNSEJ-174" value="12" style="rounded=0;whiteSpace=wrap;html=1;fillColor=#ffffff;" vertex="1" parent="1">
          <mxGeometry x="1344" y="1358" width="56" height="26" as="geometry" />
        </mxCell>
        <mxCell id="yGgz9N2xFHgXJwQMNSEJ-175" value="7" style="rounded=0;whiteSpace=wrap;html=1;" vertex="1" parent="1">
          <mxGeometry x="1268" y="1443" width="56" height="26" as="geometry" />
        </mxCell>
        <mxCell id="yGgz9N2xFHgXJwQMNSEJ-176" value="15" style="rounded=0;whiteSpace=wrap;html=1;" vertex="1" parent="1">
          <mxGeometry x="1471" y="1443" width="56" height="26" as="geometry" />
        </mxCell>
        <mxCell id="yGgz9N2xFHgXJwQMNSEJ-177" value="4" style="rounded=0;whiteSpace=wrap;html=1;" vertex="1" parent="1">
          <mxGeometry x="1212" y="1443" width="56" height="26" as="geometry" />
        </mxCell>
        <mxCell id="yGgz9N2xFHgXJwQMNSEJ-178" value="19" style="rounded=0;whiteSpace=wrap;html=1;" vertex="1" parent="1">
          <mxGeometry x="1527" y="1443" width="56" height="26" as="geometry" />
        </mxCell>
        <mxCell id="yGgz9N2xFHgXJwQMNSEJ-181" value="1" style="rounded=0;whiteSpace=wrap;html=1;fillColor=#ffffff;" vertex="1" parent="1">
          <mxGeometry x="90.5" y="1674" width="56" height="26" as="geometry" />
        </mxCell>
        <mxCell id="yGgz9N2xFHgXJwQMNSEJ-182" style="edgeStyle=none;rounded=0;orthogonalLoop=1;jettySize=auto;html=1;exitX=1;exitY=1;exitDx=0;exitDy=0;entryX=0.5;entryY=0;entryDx=0;entryDy=0;" edge="1" parent="1" source="yGgz9N2xFHgXJwQMNSEJ-183" target="yGgz9N2xFHgXJwQMNSEJ-184">
          <mxGeometry relative="1" as="geometry" />
        </mxCell>
        <mxCell id="yGgz9N2xFHgXJwQMNSEJ-183" value="9" style="rounded=0;whiteSpace=wrap;html=1;fillColor=#ffffff;" vertex="1" parent="1">
          <mxGeometry x="257.5" y="1589" width="56" height="26" as="geometry" />
        </mxCell>
        <mxCell id="yGgz9N2xFHgXJwQMNSEJ-184" value="11" style="rounded=0;whiteSpace=wrap;html=1;" vertex="1" parent="1">
          <mxGeometry x="328.5" y="1674" width="56" height="26" as="geometry" />
        </mxCell>
        <mxCell id="yGgz9N2xFHgXJwQMNSEJ-185" style="edgeStyle=none;rounded=0;orthogonalLoop=1;jettySize=auto;html=1;exitX=0;exitY=1;exitDx=0;exitDy=0;entryX=1;entryY=0;entryDx=0;entryDy=0;" edge="1" parent="1" source="yGgz9N2xFHgXJwQMNSEJ-187" target="yGgz9N2xFHgXJwQMNSEJ-188">
          <mxGeometry relative="1" as="geometry" />
        </mxCell>
        <mxCell id="yGgz9N2xFHgXJwQMNSEJ-186" style="edgeStyle=none;rounded=0;orthogonalLoop=1;jettySize=auto;html=1;exitX=1;exitY=1;exitDx=0;exitDy=0;entryX=1;entryY=0;entryDx=0;entryDy=0;" edge="1" parent="1" source="yGgz9N2xFHgXJwQMNSEJ-187" target="yGgz9N2xFHgXJwQMNSEJ-193">
          <mxGeometry relative="1" as="geometry" />
        </mxCell>
        <mxCell id="yGgz9N2xFHgXJwQMNSEJ-187" value="2" style="rounded=0;whiteSpace=wrap;html=1;fillColor=#ffffff;" vertex="1" parent="1">
          <mxGeometry x="201.5" y="1589" width="56" height="26" as="geometry" />
        </mxCell>
        <mxCell id="yGgz9N2xFHgXJwQMNSEJ-188" value="0" style="rounded=0;whiteSpace=wrap;html=1;" vertex="1" parent="1">
          <mxGeometry x="34.5" y="1674" width="56" height="26" as="geometry" />
        </mxCell>
        <mxCell id="yGgz9N2xFHgXJwQMNSEJ-189" style="edgeStyle=none;rounded=0;orthogonalLoop=1;jettySize=auto;html=1;exitX=1;exitY=1;exitDx=0;exitDy=0;entryX=0;entryY=0;entryDx=0;entryDy=0;" edge="1" parent="1" source="yGgz9N2xFHgXJwQMNSEJ-190" target="yGgz9N2xFHgXJwQMNSEJ-194">
          <mxGeometry relative="1" as="geometry" />
        </mxCell>
        <mxCell id="yGgz9N2xFHgXJwQMNSEJ-190" value="12" style="rounded=0;whiteSpace=wrap;html=1;fillColor=#ffffff;" vertex="1" parent="1">
          <mxGeometry x="313.5" y="1589" width="56" height="26" as="geometry" />
        </mxCell>
        <mxCell id="yGgz9N2xFHgXJwQMNSEJ-191" value="7" style="rounded=0;whiteSpace=wrap;html=1;" vertex="1" parent="1">
          <mxGeometry x="237.5" y="1674" width="56" height="26" as="geometry" />
        </mxCell>
        <mxCell id="yGgz9N2xFHgXJwQMNSEJ-192" value="15" style="rounded=0;whiteSpace=wrap;html=1;" vertex="1" parent="1">
          <mxGeometry x="440.5" y="1674" width="56" height="26" as="geometry" />
        </mxCell>
        <mxCell id="yGgz9N2xFHgXJwQMNSEJ-193" value="4" style="rounded=0;whiteSpace=wrap;html=1;" vertex="1" parent="1">
          <mxGeometry x="181.5" y="1674" width="56" height="26" as="geometry" />
        </mxCell>
        <mxCell id="yGgz9N2xFHgXJwQMNSEJ-194" value="19" style="rounded=0;whiteSpace=wrap;html=1;" vertex="1" parent="1">
          <mxGeometry x="496.5" y="1674" width="56" height="26" as="geometry" />
        </mxCell>
        <mxCell id="yGgz9N2xFHgXJwQMNSEJ-195" value="&lt;strong style=&quot;box-sizing: inherit; font-weight: 700; color: rgb(0, 0, 255); font-size: 16px; font-style: normal; letter-spacing: normal; text-align: left; text-indent: 0px; text-transform: none; word-spacing: 0px; background-color: rgb(255, 255, 255);&quot;&gt;12&amp;nbsp;&amp;nbsp; 1&amp;nbsp;&amp;nbsp; 9&amp;nbsp;&amp;nbsp; 2&amp;nbsp;&amp;nbsp; 0&amp;nbsp;&amp;nbsp; 11&amp;nbsp;&amp;nbsp; 7&amp;nbsp;&amp;nbsp; 19&amp;nbsp;&amp;nbsp; 4&amp;nbsp;&amp;nbsp; 15&amp;nbsp;&amp;nbsp; 18&amp;nbsp;&amp;nbsp; 5&amp;nbsp;&amp;nbsp; 14&amp;nbsp;&amp;nbsp; 13&amp;nbsp;&amp;nbsp; 10&amp;nbsp;&amp;nbsp; 16&amp;nbsp;&amp;nbsp; 6&amp;nbsp;&amp;nbsp; 3&amp;nbsp;&amp;nbsp; 8&amp;nbsp;&amp;nbsp; 17&lt;/strong&gt;" style="text;whiteSpace=wrap;html=1;" vertex="1" parent="1">
          <mxGeometry x="28.500024414062494" y="1757.0000244140624" width="540" height="28" as="geometry" />
        </mxCell>
        <mxCell id="yGgz9N2xFHgXJwQMNSEJ-196" value="1" style="rounded=0;whiteSpace=wrap;html=1;fillColor=#ffffff;" vertex="1" parent="1">
          <mxGeometry x="654" y="1674" width="56" height="26" as="geometry" />
        </mxCell>
        <mxCell id="yGgz9N2xFHgXJwQMNSEJ-197" style="edgeStyle=none;rounded=0;orthogonalLoop=1;jettySize=auto;html=1;exitX=1;exitY=1;exitDx=0;exitDy=0;entryX=0.5;entryY=0;entryDx=0;entryDy=0;" edge="1" parent="1" source="yGgz9N2xFHgXJwQMNSEJ-198" target="yGgz9N2xFHgXJwQMNSEJ-199">
          <mxGeometry relative="1" as="geometry" />
        </mxCell>
        <mxCell id="yGgz9N2xFHgXJwQMNSEJ-198" value="9" style="rounded=0;whiteSpace=wrap;html=1;fillColor=#ffffff;" vertex="1" parent="1">
          <mxGeometry x="821" y="1589" width="56" height="26" as="geometry" />
        </mxCell>
        <mxCell id="yGgz9N2xFHgXJwQMNSEJ-199" value="11" style="rounded=0;whiteSpace=wrap;html=1;" vertex="1" parent="1">
          <mxGeometry x="892" y="1674" width="56" height="26" as="geometry" />
        </mxCell>
        <mxCell id="yGgz9N2xFHgXJwQMNSEJ-200" style="edgeStyle=none;rounded=0;orthogonalLoop=1;jettySize=auto;html=1;exitX=0;exitY=1;exitDx=0;exitDy=0;entryX=1;entryY=0;entryDx=0;entryDy=0;" edge="1" parent="1" source="yGgz9N2xFHgXJwQMNSEJ-202" target="yGgz9N2xFHgXJwQMNSEJ-203">
          <mxGeometry relative="1" as="geometry" />
        </mxCell>
        <mxCell id="yGgz9N2xFHgXJwQMNSEJ-201" style="edgeStyle=none;rounded=0;orthogonalLoop=1;jettySize=auto;html=1;exitX=1;exitY=1;exitDx=0;exitDy=0;entryX=1;entryY=0;entryDx=0;entryDy=0;" edge="1" parent="1" source="yGgz9N2xFHgXJwQMNSEJ-202" target="yGgz9N2xFHgXJwQMNSEJ-208">
          <mxGeometry relative="1" as="geometry" />
        </mxCell>
        <mxCell id="yGgz9N2xFHgXJwQMNSEJ-202" value="2" style="rounded=0;whiteSpace=wrap;html=1;fillColor=#ffffff;" vertex="1" parent="1">
          <mxGeometry x="765" y="1589" width="56" height="26" as="geometry" />
        </mxCell>
        <mxCell id="yGgz9N2xFHgXJwQMNSEJ-203" value="0" style="rounded=0;whiteSpace=wrap;html=1;" vertex="1" parent="1">
          <mxGeometry x="598" y="1674" width="56" height="26" as="geometry" />
        </mxCell>
        <mxCell id="yGgz9N2xFHgXJwQMNSEJ-204" style="edgeStyle=none;rounded=0;orthogonalLoop=1;jettySize=auto;html=1;exitX=1;exitY=1;exitDx=0;exitDy=0;entryX=0.5;entryY=0;entryDx=0;entryDy=0;" edge="1" parent="1" source="yGgz9N2xFHgXJwQMNSEJ-205" target="yGgz9N2xFHgXJwQMNSEJ-209">
          <mxGeometry relative="1" as="geometry" />
        </mxCell>
        <mxCell id="yGgz9N2xFHgXJwQMNSEJ-205" value="12" style="rounded=0;whiteSpace=wrap;html=1;fillColor=#ffffff;" vertex="1" parent="1">
          <mxGeometry x="877" y="1589" width="56" height="26" as="geometry" />
        </mxCell>
        <mxCell id="yGgz9N2xFHgXJwQMNSEJ-206" value="7" style="rounded=0;whiteSpace=wrap;html=1;" vertex="1" parent="1">
          <mxGeometry x="801" y="1674" width="56" height="26" as="geometry" />
        </mxCell>
        <mxCell id="yGgz9N2xFHgXJwQMNSEJ-207" value="15" style="rounded=0;whiteSpace=wrap;html=1;" vertex="1" parent="1">
          <mxGeometry x="1004" y="1674" width="56" height="26" as="geometry" />
        </mxCell>
        <mxCell id="yGgz9N2xFHgXJwQMNSEJ-208" value="4" style="rounded=0;whiteSpace=wrap;html=1;" vertex="1" parent="1">
          <mxGeometry x="745" y="1674" width="56" height="26" as="geometry" />
        </mxCell>
        <mxCell id="yGgz9N2xFHgXJwQMNSEJ-209" value="18" style="rounded=0;whiteSpace=wrap;html=1;fillColor=#f8cecc;strokeColor=#b85450;" vertex="1" parent="1">
          <mxGeometry x="1060" y="1674" width="56" height="26" as="geometry" />
        </mxCell>
        <mxCell id="yGgz9N2xFHgXJwQMNSEJ-210" value="19" style="rounded=0;whiteSpace=wrap;html=1;" vertex="1" parent="1">
          <mxGeometry x="1116" y="1674" width="56" height="26" as="geometry" />
        </mxCell>
        <mxCell id="yGgz9N2xFHgXJwQMNSEJ-211" value="1" style="rounded=0;whiteSpace=wrap;html=1;fillColor=#ffffff;" vertex="1" parent="1">
          <mxGeometry x="98" y="1949" width="56" height="26" as="geometry" />
        </mxCell>
        <mxCell id="yGgz9N2xFHgXJwQMNSEJ-212" style="edgeStyle=none;rounded=0;orthogonalLoop=1;jettySize=auto;html=1;exitX=1;exitY=1;exitDx=0;exitDy=0;entryX=0.5;entryY=0;entryDx=0;entryDy=0;" edge="1" parent="1" source="yGgz9N2xFHgXJwQMNSEJ-213" target="yGgz9N2xFHgXJwQMNSEJ-214">
          <mxGeometry relative="1" as="geometry" />
        </mxCell>
        <mxCell id="yGgz9N2xFHgXJwQMNSEJ-213" value="9" style="rounded=0;whiteSpace=wrap;html=1;fillColor=#ffffff;" vertex="1" parent="1">
          <mxGeometry x="265" y="1864" width="56" height="26" as="geometry" />
        </mxCell>
        <mxCell id="yGgz9N2xFHgXJwQMNSEJ-214" value="11" style="rounded=0;whiteSpace=wrap;html=1;" vertex="1" parent="1">
          <mxGeometry x="336" y="1949" width="56" height="26" as="geometry" />
        </mxCell>
        <mxCell id="yGgz9N2xFHgXJwQMNSEJ-215" style="edgeStyle=none;rounded=0;orthogonalLoop=1;jettySize=auto;html=1;exitX=0;exitY=1;exitDx=0;exitDy=0;entryX=1;entryY=0;entryDx=0;entryDy=0;" edge="1" parent="1" source="yGgz9N2xFHgXJwQMNSEJ-217" target="yGgz9N2xFHgXJwQMNSEJ-218">
          <mxGeometry relative="1" as="geometry" />
        </mxCell>
        <mxCell id="yGgz9N2xFHgXJwQMNSEJ-216" style="edgeStyle=none;rounded=0;orthogonalLoop=1;jettySize=auto;html=1;exitX=1;exitY=1;exitDx=0;exitDy=0;entryX=1;entryY=0;entryDx=0;entryDy=0;" edge="1" parent="1" source="yGgz9N2xFHgXJwQMNSEJ-217" target="yGgz9N2xFHgXJwQMNSEJ-223">
          <mxGeometry relative="1" as="geometry" />
        </mxCell>
        <mxCell id="yGgz9N2xFHgXJwQMNSEJ-217" value="2" style="rounded=0;whiteSpace=wrap;html=1;fillColor=#ffffff;" vertex="1" parent="1">
          <mxGeometry x="209" y="1864" width="56" height="26" as="geometry" />
        </mxCell>
        <mxCell id="yGgz9N2xFHgXJwQMNSEJ-218" value="0" style="rounded=0;whiteSpace=wrap;html=1;" vertex="1" parent="1">
          <mxGeometry x="42" y="1949" width="56" height="26" as="geometry" />
        </mxCell>
        <mxCell id="yGgz9N2xFHgXJwQMNSEJ-219" style="edgeStyle=none;rounded=0;orthogonalLoop=1;jettySize=auto;html=1;exitX=1;exitY=1;exitDx=0;exitDy=0;entryX=0.5;entryY=0;entryDx=0;entryDy=0;" edge="1" parent="1" source="yGgz9N2xFHgXJwQMNSEJ-220" target="yGgz9N2xFHgXJwQMNSEJ-224">
          <mxGeometry relative="1" as="geometry" />
        </mxCell>
        <mxCell id="yGgz9N2xFHgXJwQMNSEJ-220" value="12" style="rounded=0;whiteSpace=wrap;html=1;fillColor=#ffffff;" vertex="1" parent="1">
          <mxGeometry x="321" y="1864" width="56" height="26" as="geometry" />
        </mxCell>
        <mxCell id="yGgz9N2xFHgXJwQMNSEJ-221" value="7" style="rounded=0;whiteSpace=wrap;html=1;" vertex="1" parent="1">
          <mxGeometry x="245" y="1949" width="56" height="26" as="geometry" />
        </mxCell>
        <mxCell id="yGgz9N2xFHgXJwQMNSEJ-222" value="15" style="rounded=0;whiteSpace=wrap;html=1;" vertex="1" parent="1">
          <mxGeometry x="448" y="1949" width="56" height="26" as="geometry" />
        </mxCell>
        <mxCell id="yGgz9N2xFHgXJwQMNSEJ-223" value="4" style="rounded=0;whiteSpace=wrap;html=1;" vertex="1" parent="1">
          <mxGeometry x="189" y="1949" width="56" height="26" as="geometry" />
        </mxCell>
        <mxCell id="yGgz9N2xFHgXJwQMNSEJ-224" value="18" style="rounded=0;whiteSpace=wrap;html=1;" vertex="1" parent="1">
          <mxGeometry x="504" y="1949" width="56" height="26" as="geometry" />
        </mxCell>
        <mxCell id="yGgz9N2xFHgXJwQMNSEJ-225" value="19" style="rounded=0;whiteSpace=wrap;html=1;" vertex="1" parent="1">
          <mxGeometry x="560" y="1949" width="56" height="26" as="geometry" />
        </mxCell>
        <mxCell id="yGgz9N2xFHgXJwQMNSEJ-226" value="1" style="rounded=0;whiteSpace=wrap;html=1;fillColor=#ffffff;" vertex="1" parent="1">
          <mxGeometry x="714" y="1949" width="56" height="26" as="geometry" />
        </mxCell>
        <mxCell id="yGgz9N2xFHgXJwQMNSEJ-227" style="edgeStyle=none;rounded=0;orthogonalLoop=1;jettySize=auto;html=1;exitX=1;exitY=1;exitDx=0;exitDy=0;entryX=0.5;entryY=0;entryDx=0;entryDy=0;" edge="1" parent="1" source="yGgz9N2xFHgXJwQMNSEJ-228" target="yGgz9N2xFHgXJwQMNSEJ-229">
          <mxGeometry relative="1" as="geometry" />
        </mxCell>
        <mxCell id="yGgz9N2xFHgXJwQMNSEJ-228" value="9" style="rounded=0;whiteSpace=wrap;html=1;fillColor=#ffffff;" vertex="1" parent="1">
          <mxGeometry x="921" y="1864" width="56" height="26" as="geometry" />
        </mxCell>
        <mxCell id="yGgz9N2xFHgXJwQMNSEJ-229" value="11" style="rounded=0;whiteSpace=wrap;html=1;" vertex="1" parent="1">
          <mxGeometry x="992" y="1949" width="56" height="26" as="geometry" />
        </mxCell>
        <mxCell id="yGgz9N2xFHgXJwQMNSEJ-230" style="edgeStyle=none;rounded=0;orthogonalLoop=1;jettySize=auto;html=1;exitX=0;exitY=1;exitDx=0;exitDy=0;entryX=1;entryY=0;entryDx=0;entryDy=0;" edge="1" parent="1" source="yGgz9N2xFHgXJwQMNSEJ-232" target="yGgz9N2xFHgXJwQMNSEJ-233">
          <mxGeometry relative="1" as="geometry" />
        </mxCell>
        <mxCell id="yGgz9N2xFHgXJwQMNSEJ-231" style="edgeStyle=none;rounded=0;orthogonalLoop=1;jettySize=auto;html=1;exitX=1;exitY=1;exitDx=0;exitDy=0;entryX=0.5;entryY=0;entryDx=0;entryDy=0;" edge="1" parent="1" source="yGgz9N2xFHgXJwQMNSEJ-232" target="yGgz9N2xFHgXJwQMNSEJ-236">
          <mxGeometry relative="1" as="geometry" />
        </mxCell>
        <mxCell id="yGgz9N2xFHgXJwQMNSEJ-232" value="2" style="rounded=0;whiteSpace=wrap;html=1;fillColor=#ffffff;" vertex="1" parent="1">
          <mxGeometry x="865" y="1864" width="56" height="26" as="geometry" />
        </mxCell>
        <mxCell id="yGgz9N2xFHgXJwQMNSEJ-233" value="0" style="rounded=0;whiteSpace=wrap;html=1;" vertex="1" parent="1">
          <mxGeometry x="658" y="1949" width="56" height="26" as="geometry" />
        </mxCell>
        <mxCell id="yGgz9N2xFHgXJwQMNSEJ-234" style="edgeStyle=none;rounded=0;orthogonalLoop=1;jettySize=auto;html=1;exitX=1;exitY=1;exitDx=0;exitDy=0;entryX=0.5;entryY=0;entryDx=0;entryDy=0;" edge="1" parent="1" source="yGgz9N2xFHgXJwQMNSEJ-235" target="yGgz9N2xFHgXJwQMNSEJ-239">
          <mxGeometry relative="1" as="geometry" />
        </mxCell>
        <mxCell id="yGgz9N2xFHgXJwQMNSEJ-235" value="12" style="rounded=0;whiteSpace=wrap;html=1;fillColor=#ffffff;" vertex="1" parent="1">
          <mxGeometry x="977" y="1864" width="56" height="26" as="geometry" />
        </mxCell>
        <mxCell id="yGgz9N2xFHgXJwQMNSEJ-236" value="5" style="rounded=0;whiteSpace=wrap;html=1;fillColor=#f8cecc;strokeColor=#b85450;" vertex="1" parent="1">
          <mxGeometry x="861" y="1949" width="56" height="26" as="geometry" />
        </mxCell>
        <mxCell id="yGgz9N2xFHgXJwQMNSEJ-237" value="15" style="rounded=0;whiteSpace=wrap;html=1;" vertex="1" parent="1">
          <mxGeometry x="1064" y="1949" width="56" height="26" as="geometry" />
        </mxCell>
        <mxCell id="yGgz9N2xFHgXJwQMNSEJ-238" value="4" style="rounded=0;whiteSpace=wrap;html=1;" vertex="1" parent="1">
          <mxGeometry x="805" y="1949" width="56" height="26" as="geometry" />
        </mxCell>
        <mxCell id="yGgz9N2xFHgXJwQMNSEJ-239" value="18" style="rounded=0;whiteSpace=wrap;html=1;" vertex="1" parent="1">
          <mxGeometry x="1120" y="1949" width="56" height="26" as="geometry" />
        </mxCell>
        <mxCell id="yGgz9N2xFHgXJwQMNSEJ-240" value="19" style="rounded=0;whiteSpace=wrap;html=1;" vertex="1" parent="1">
          <mxGeometry x="1176" y="1949" width="56" height="26" as="geometry" />
        </mxCell>
        <mxCell id="yGgz9N2xFHgXJwQMNSEJ-241" value="7" style="rounded=0;whiteSpace=wrap;html=1;" vertex="1" parent="1">
          <mxGeometry x="917" y="1949" width="56" height="26" as="geometry" />
        </mxCell>
        <mxCell id="yGgz9N2xFHgXJwQMNSEJ-242" value="1" style="rounded=0;whiteSpace=wrap;html=1;fillColor=#ffffff;" vertex="1" parent="1">
          <mxGeometry x="72.5" y="2181" width="56" height="26" as="geometry" />
        </mxCell>
        <mxCell id="yGgz9N2xFHgXJwQMNSEJ-243" style="edgeStyle=none;rounded=0;orthogonalLoop=1;jettySize=auto;html=1;exitX=1;exitY=1;exitDx=0;exitDy=0;entryX=0.5;entryY=0;entryDx=0;entryDy=0;" edge="1" parent="1" source="yGgz9N2xFHgXJwQMNSEJ-244" target="yGgz9N2xFHgXJwQMNSEJ-245">
          <mxGeometry relative="1" as="geometry" />
        </mxCell>
        <mxCell id="yGgz9N2xFHgXJwQMNSEJ-244" value="9" style="rounded=0;whiteSpace=wrap;html=1;fillColor=#ffffff;" vertex="1" parent="1">
          <mxGeometry x="279.5" y="2096" width="56" height="26" as="geometry" />
        </mxCell>
        <mxCell id="yGgz9N2xFHgXJwQMNSEJ-245" value="11" style="rounded=0;whiteSpace=wrap;html=1;" vertex="1" parent="1">
          <mxGeometry x="350.5" y="2181" width="56" height="26" as="geometry" />
        </mxCell>
        <mxCell id="yGgz9N2xFHgXJwQMNSEJ-246" style="edgeStyle=none;rounded=0;orthogonalLoop=1;jettySize=auto;html=1;exitX=0;exitY=1;exitDx=0;exitDy=0;entryX=1;entryY=0;entryDx=0;entryDy=0;" edge="1" parent="1" source="yGgz9N2xFHgXJwQMNSEJ-248" target="yGgz9N2xFHgXJwQMNSEJ-249">
          <mxGeometry relative="1" as="geometry" />
        </mxCell>
        <mxCell id="yGgz9N2xFHgXJwQMNSEJ-247" style="edgeStyle=none;rounded=0;orthogonalLoop=1;jettySize=auto;html=1;exitX=1;exitY=1;exitDx=0;exitDy=0;entryX=1;entryY=0;entryDx=0;entryDy=0;" edge="1" parent="1" source="yGgz9N2xFHgXJwQMNSEJ-248" target="yGgz9N2xFHgXJwQMNSEJ-254">
          <mxGeometry relative="1" as="geometry" />
        </mxCell>
        <mxCell id="yGgz9N2xFHgXJwQMNSEJ-248" value="2" style="rounded=0;whiteSpace=wrap;html=1;fillColor=#ffffff;" vertex="1" parent="1">
          <mxGeometry x="223.5" y="2096" width="56" height="26" as="geometry" />
        </mxCell>
        <mxCell id="yGgz9N2xFHgXJwQMNSEJ-249" value="0" style="rounded=0;whiteSpace=wrap;html=1;" vertex="1" parent="1">
          <mxGeometry x="16.5" y="2181" width="56" height="26" as="geometry" />
        </mxCell>
        <mxCell id="yGgz9N2xFHgXJwQMNSEJ-250" style="edgeStyle=none;rounded=0;orthogonalLoop=1;jettySize=auto;html=1;exitX=1;exitY=1;exitDx=0;exitDy=0;entryX=0.5;entryY=0;entryDx=0;entryDy=0;" edge="1" parent="1" source="yGgz9N2xFHgXJwQMNSEJ-251" target="yGgz9N2xFHgXJwQMNSEJ-255">
          <mxGeometry relative="1" as="geometry" />
        </mxCell>
        <mxCell id="yGgz9N2xFHgXJwQMNSEJ-251" value="12" style="rounded=0;whiteSpace=wrap;html=1;fillColor=#ffffff;" vertex="1" parent="1">
          <mxGeometry x="335.5" y="2096" width="56" height="26" as="geometry" />
        </mxCell>
        <mxCell id="yGgz9N2xFHgXJwQMNSEJ-252" value="5" style="rounded=0;whiteSpace=wrap;html=1;" vertex="1" parent="1">
          <mxGeometry x="219.5" y="2181" width="56" height="26" as="geometry" />
        </mxCell>
        <mxCell id="yGgz9N2xFHgXJwQMNSEJ-253" value="15" style="rounded=0;whiteSpace=wrap;html=1;" vertex="1" parent="1">
          <mxGeometry x="422.5" y="2181" width="56" height="26" as="geometry" />
        </mxCell>
        <mxCell id="yGgz9N2xFHgXJwQMNSEJ-254" value="4" style="rounded=0;whiteSpace=wrap;html=1;" vertex="1" parent="1">
          <mxGeometry x="163.5" y="2181" width="56" height="26" as="geometry" />
        </mxCell>
        <mxCell id="yGgz9N2xFHgXJwQMNSEJ-255" value="18" style="rounded=0;whiteSpace=wrap;html=1;" vertex="1" parent="1">
          <mxGeometry x="478.5" y="2181" width="56" height="26" as="geometry" />
        </mxCell>
        <mxCell id="yGgz9N2xFHgXJwQMNSEJ-256" value="19" style="rounded=0;whiteSpace=wrap;html=1;" vertex="1" parent="1">
          <mxGeometry x="534.5" y="2181" width="56" height="26" as="geometry" />
        </mxCell>
        <mxCell id="yGgz9N2xFHgXJwQMNSEJ-257" value="7" style="rounded=0;whiteSpace=wrap;html=1;" vertex="1" parent="1">
          <mxGeometry x="275.5" y="2181" width="56" height="26" as="geometry" />
        </mxCell>
        <mxCell id="yGgz9N2xFHgXJwQMNSEJ-258" value="1" style="rounded=0;whiteSpace=wrap;html=1;fillColor=#ffffff;" vertex="1" parent="1">
          <mxGeometry x="689" y="2181" width="56" height="26" as="geometry" />
        </mxCell>
        <mxCell id="yGgz9N2xFHgXJwQMNSEJ-259" style="edgeStyle=none;rounded=0;orthogonalLoop=1;jettySize=auto;html=1;exitX=1;exitY=1;exitDx=0;exitDy=0;entryX=0.5;entryY=0;entryDx=0;entryDy=0;" edge="1" parent="1" source="yGgz9N2xFHgXJwQMNSEJ-260" target="yGgz9N2xFHgXJwQMNSEJ-261">
          <mxGeometry relative="1" as="geometry" />
        </mxCell>
        <mxCell id="yGgz9N2xFHgXJwQMNSEJ-260" value="9" style="rounded=0;whiteSpace=wrap;html=1;fillColor=#ffffff;" vertex="1" parent="1">
          <mxGeometry x="896" y="2096" width="56" height="26" as="geometry" />
        </mxCell>
        <mxCell id="yGgz9N2xFHgXJwQMNSEJ-261" value="11" style="rounded=0;whiteSpace=wrap;html=1;" vertex="1" parent="1">
          <mxGeometry x="967" y="2181" width="56" height="26" as="geometry" />
        </mxCell>
        <mxCell id="yGgz9N2xFHgXJwQMNSEJ-262" style="edgeStyle=none;rounded=0;orthogonalLoop=1;jettySize=auto;html=1;exitX=0;exitY=1;exitDx=0;exitDy=0;entryX=1;entryY=0;entryDx=0;entryDy=0;" edge="1" parent="1" source="yGgz9N2xFHgXJwQMNSEJ-264" target="yGgz9N2xFHgXJwQMNSEJ-265">
          <mxGeometry relative="1" as="geometry" />
        </mxCell>
        <mxCell id="yGgz9N2xFHgXJwQMNSEJ-263" style="edgeStyle=none;rounded=0;orthogonalLoop=1;jettySize=auto;html=1;exitX=1;exitY=1;exitDx=0;exitDy=0;entryX=0.5;entryY=0;entryDx=0;entryDy=0;" edge="1" parent="1" source="yGgz9N2xFHgXJwQMNSEJ-264" target="yGgz9N2xFHgXJwQMNSEJ-268">
          <mxGeometry relative="1" as="geometry" />
        </mxCell>
        <mxCell id="yGgz9N2xFHgXJwQMNSEJ-264" value="2" style="rounded=0;whiteSpace=wrap;html=1;fillColor=#ffffff;" vertex="1" parent="1">
          <mxGeometry x="840" y="2096" width="56" height="26" as="geometry" />
        </mxCell>
        <mxCell id="yGgz9N2xFHgXJwQMNSEJ-265" value="0" style="rounded=0;whiteSpace=wrap;html=1;" vertex="1" parent="1">
          <mxGeometry x="633" y="2181" width="56" height="26" as="geometry" />
        </mxCell>
        <mxCell id="yGgz9N2xFHgXJwQMNSEJ-266" style="edgeStyle=none;rounded=0;orthogonalLoop=1;jettySize=auto;html=1;exitX=1;exitY=1;exitDx=0;exitDy=0;entryX=0;entryY=0;entryDx=0;entryDy=0;" edge="1" parent="1" source="yGgz9N2xFHgXJwQMNSEJ-267" target="yGgz9N2xFHgXJwQMNSEJ-271">
          <mxGeometry relative="1" as="geometry" />
        </mxCell>
        <mxCell id="yGgz9N2xFHgXJwQMNSEJ-267" value="12" style="rounded=0;whiteSpace=wrap;html=1;fillColor=#ffffff;" vertex="1" parent="1">
          <mxGeometry x="952" y="2096" width="56" height="26" as="geometry" />
        </mxCell>
        <mxCell id="yGgz9N2xFHgXJwQMNSEJ-268" value="5" style="rounded=0;whiteSpace=wrap;html=1;" vertex="1" parent="1">
          <mxGeometry x="836" y="2181" width="56" height="26" as="geometry" />
        </mxCell>
        <mxCell id="yGgz9N2xFHgXJwQMNSEJ-269" value="15" style="rounded=0;whiteSpace=wrap;html=1;" vertex="1" parent="1">
          <mxGeometry x="1096" y="2181" width="56" height="26" as="geometry" />
        </mxCell>
        <mxCell id="yGgz9N2xFHgXJwQMNSEJ-270" value="4" style="rounded=0;whiteSpace=wrap;html=1;" vertex="1" parent="1">
          <mxGeometry x="780" y="2181" width="56" height="26" as="geometry" />
        </mxCell>
        <mxCell id="yGgz9N2xFHgXJwQMNSEJ-271" value="18" style="rounded=0;whiteSpace=wrap;html=1;" vertex="1" parent="1">
          <mxGeometry x="1152" y="2181" width="56" height="26" as="geometry" />
        </mxCell>
        <mxCell id="yGgz9N2xFHgXJwQMNSEJ-272" value="19" style="rounded=0;whiteSpace=wrap;html=1;" vertex="1" parent="1">
          <mxGeometry x="1208" y="2181" width="56" height="26" as="geometry" />
        </mxCell>
        <mxCell id="yGgz9N2xFHgXJwQMNSEJ-273" value="7" style="rounded=0;whiteSpace=wrap;html=1;" vertex="1" parent="1">
          <mxGeometry x="892" y="2181" width="56" height="26" as="geometry" />
        </mxCell>
        <mxCell id="yGgz9N2xFHgXJwQMNSEJ-274" value="14" style="rounded=0;whiteSpace=wrap;html=1;fillColor=#f8cecc;strokeColor=#b85450;" vertex="1" parent="1">
          <mxGeometry x="1040" y="2181" width="56" height="26" as="geometry" />
        </mxCell>
        <mxCell id="yGgz9N2xFHgXJwQMNSEJ-275" value="1" style="rounded=0;whiteSpace=wrap;html=1;fillColor=#ffffff;" vertex="1" parent="1">
          <mxGeometry x="1362" y="2181" width="56" height="26" as="geometry" />
        </mxCell>
        <mxCell id="yGgz9N2xFHgXJwQMNSEJ-276" style="edgeStyle=none;rounded=0;orthogonalLoop=1;jettySize=auto;html=1;exitX=1;exitY=1;exitDx=0;exitDy=0;entryX=0.5;entryY=0;entryDx=0;entryDy=0;" edge="1" parent="1" source="yGgz9N2xFHgXJwQMNSEJ-277" target="yGgz9N2xFHgXJwQMNSEJ-278">
          <mxGeometry relative="1" as="geometry" />
        </mxCell>
        <mxCell id="yGgz9N2xFHgXJwQMNSEJ-277" value="9" style="rounded=0;whiteSpace=wrap;html=1;fillColor=#ffffff;" vertex="1" parent="1">
          <mxGeometry x="1569" y="2096" width="56" height="26" as="geometry" />
        </mxCell>
        <mxCell id="yGgz9N2xFHgXJwQMNSEJ-278" value="11" style="rounded=0;whiteSpace=wrap;html=1;" vertex="1" parent="1">
          <mxGeometry x="1640" y="2181" width="56" height="26" as="geometry" />
        </mxCell>
        <mxCell id="yGgz9N2xFHgXJwQMNSEJ-279" style="edgeStyle=none;rounded=0;orthogonalLoop=1;jettySize=auto;html=1;exitX=0;exitY=1;exitDx=0;exitDy=0;entryX=1;entryY=0;entryDx=0;entryDy=0;" edge="1" parent="1" source="yGgz9N2xFHgXJwQMNSEJ-281" target="yGgz9N2xFHgXJwQMNSEJ-282">
          <mxGeometry relative="1" as="geometry" />
        </mxCell>
        <mxCell id="yGgz9N2xFHgXJwQMNSEJ-280" style="edgeStyle=none;rounded=0;orthogonalLoop=1;jettySize=auto;html=1;exitX=1;exitY=1;exitDx=0;exitDy=0;entryX=0.5;entryY=0;entryDx=0;entryDy=0;" edge="1" parent="1" source="yGgz9N2xFHgXJwQMNSEJ-281" target="yGgz9N2xFHgXJwQMNSEJ-285">
          <mxGeometry relative="1" as="geometry" />
        </mxCell>
        <mxCell id="yGgz9N2xFHgXJwQMNSEJ-281" value="2" style="rounded=0;whiteSpace=wrap;html=1;fillColor=#ffffff;" vertex="1" parent="1">
          <mxGeometry x="1513" y="2096" width="56" height="26" as="geometry" />
        </mxCell>
        <mxCell id="yGgz9N2xFHgXJwQMNSEJ-282" value="0" style="rounded=0;whiteSpace=wrap;html=1;" vertex="1" parent="1">
          <mxGeometry x="1306" y="2181" width="56" height="26" as="geometry" />
        </mxCell>
        <mxCell id="yGgz9N2xFHgXJwQMNSEJ-292" style="edgeStyle=none;rounded=0;orthogonalLoop=1;jettySize=auto;html=1;exitX=1;exitY=1;exitDx=0;exitDy=0;entryX=0.5;entryY=0;entryDx=0;entryDy=0;" edge="1" parent="1" source="yGgz9N2xFHgXJwQMNSEJ-284" target="yGgz9N2xFHgXJwQMNSEJ-291">
          <mxGeometry relative="1" as="geometry" />
        </mxCell>
        <mxCell id="yGgz9N2xFHgXJwQMNSEJ-284" value="12" style="rounded=0;whiteSpace=wrap;html=1;fillColor=#ffffff;" vertex="1" parent="1">
          <mxGeometry x="1625" y="2096" width="56" height="26" as="geometry" />
        </mxCell>
        <mxCell id="yGgz9N2xFHgXJwQMNSEJ-285" value="5" style="rounded=0;whiteSpace=wrap;html=1;" vertex="1" parent="1">
          <mxGeometry x="1509" y="2181" width="56" height="26" as="geometry" />
        </mxCell>
        <mxCell id="yGgz9N2xFHgXJwQMNSEJ-293" style="edgeStyle=none;rounded=0;orthogonalLoop=1;jettySize=auto;html=1;exitX=1;exitY=1;exitDx=0;exitDy=0;entryX=0;entryY=0;entryDx=0;entryDy=0;" edge="1" parent="1" source="yGgz9N2xFHgXJwQMNSEJ-286" target="yGgz9N2xFHgXJwQMNSEJ-289">
          <mxGeometry relative="1" as="geometry" />
        </mxCell>
        <mxCell id="yGgz9N2xFHgXJwQMNSEJ-286" value="15" style="rounded=0;whiteSpace=wrap;html=1;" vertex="1" parent="1">
          <mxGeometry x="1681" y="2096" width="56" height="26" as="geometry" />
        </mxCell>
        <mxCell id="yGgz9N2xFHgXJwQMNSEJ-287" value="4" style="rounded=0;whiteSpace=wrap;html=1;" vertex="1" parent="1">
          <mxGeometry x="1453" y="2181" width="56" height="26" as="geometry" />
        </mxCell>
        <mxCell id="yGgz9N2xFHgXJwQMNSEJ-288" value="18" style="rounded=0;whiteSpace=wrap;html=1;" vertex="1" parent="1">
          <mxGeometry x="1812" y="2181" width="56" height="26" as="geometry" />
        </mxCell>
        <mxCell id="yGgz9N2xFHgXJwQMNSEJ-289" value="19" style="rounded=0;whiteSpace=wrap;html=1;" vertex="1" parent="1">
          <mxGeometry x="1868" y="2181" width="56" height="26" as="geometry" />
        </mxCell>
        <mxCell id="yGgz9N2xFHgXJwQMNSEJ-290" value="7" style="rounded=0;whiteSpace=wrap;html=1;" vertex="1" parent="1">
          <mxGeometry x="1565" y="2181" width="56" height="26" as="geometry" />
        </mxCell>
        <mxCell id="yGgz9N2xFHgXJwQMNSEJ-291" value="14" style="rounded=0;whiteSpace=wrap;html=1;" vertex="1" parent="1">
          <mxGeometry x="1713" y="2181" width="56" height="26" as="geometry" />
        </mxCell>
        <mxCell id="yGgz9N2xFHgXJwQMNSEJ-294" value="1" style="rounded=0;whiteSpace=wrap;html=1;fillColor=#ffffff;" vertex="1" parent="1">
          <mxGeometry x="2054" y="2184" width="56" height="26" as="geometry" />
        </mxCell>
        <mxCell id="yGgz9N2xFHgXJwQMNSEJ-312" style="edgeStyle=none;rounded=0;orthogonalLoop=1;jettySize=auto;html=1;exitX=0;exitY=1;exitDx=0;exitDy=0;entryX=0.5;entryY=0;entryDx=0;entryDy=0;" edge="1" parent="1" source="yGgz9N2xFHgXJwQMNSEJ-296" target="yGgz9N2xFHgXJwQMNSEJ-300">
          <mxGeometry relative="1" as="geometry" />
        </mxCell>
        <mxCell id="yGgz9N2xFHgXJwQMNSEJ-313" style="edgeStyle=none;rounded=0;orthogonalLoop=1;jettySize=auto;html=1;exitX=1;exitY=1;exitDx=0;exitDy=0;entryX=0;entryY=0;entryDx=0;entryDy=0;" edge="1" parent="1" source="yGgz9N2xFHgXJwQMNSEJ-296" target="yGgz9N2xFHgXJwQMNSEJ-306">
          <mxGeometry relative="1" as="geometry" />
        </mxCell>
        <mxCell id="yGgz9N2xFHgXJwQMNSEJ-296" value="9" style="rounded=0;whiteSpace=wrap;html=1;fillColor=#ffffff;" vertex="1" parent="1">
          <mxGeometry x="2261" y="2024" width="56" height="26" as="geometry" />
        </mxCell>
        <mxCell id="yGgz9N2xFHgXJwQMNSEJ-297" value="11" style="rounded=0;whiteSpace=wrap;html=1;" vertex="1" parent="1">
          <mxGeometry x="2332" y="2184" width="56" height="26" as="geometry" />
        </mxCell>
        <mxCell id="yGgz9N2xFHgXJwQMNSEJ-298" style="edgeStyle=none;rounded=0;orthogonalLoop=1;jettySize=auto;html=1;exitX=0;exitY=1;exitDx=0;exitDy=0;entryX=1;entryY=0;entryDx=0;entryDy=0;" edge="1" parent="1" source="yGgz9N2xFHgXJwQMNSEJ-300" target="yGgz9N2xFHgXJwQMNSEJ-301">
          <mxGeometry relative="1" as="geometry" />
        </mxCell>
        <mxCell id="yGgz9N2xFHgXJwQMNSEJ-299" style="edgeStyle=none;rounded=0;orthogonalLoop=1;jettySize=auto;html=1;exitX=1;exitY=1;exitDx=0;exitDy=0;entryX=0.5;entryY=0;entryDx=0;entryDy=0;" edge="1" parent="1" source="yGgz9N2xFHgXJwQMNSEJ-300" target="yGgz9N2xFHgXJwQMNSEJ-304">
          <mxGeometry relative="1" as="geometry" />
        </mxCell>
        <mxCell id="yGgz9N2xFHgXJwQMNSEJ-300" value="2" style="rounded=0;whiteSpace=wrap;html=1;fillColor=#ffffff;" vertex="1" parent="1">
          <mxGeometry x="2119" y="2096" width="56" height="26" as="geometry" />
        </mxCell>
        <mxCell id="yGgz9N2xFHgXJwQMNSEJ-301" value="0" style="rounded=0;whiteSpace=wrap;html=1;" vertex="1" parent="1">
          <mxGeometry x="1998" y="2184" width="56" height="26" as="geometry" />
        </mxCell>
        <mxCell id="yGgz9N2xFHgXJwQMNSEJ-302" style="edgeStyle=none;rounded=0;orthogonalLoop=1;jettySize=auto;html=1;exitX=1;exitY=1;exitDx=0;exitDy=0;entryX=0.5;entryY=0;entryDx=0;entryDy=0;" edge="1" parent="1" source="yGgz9N2xFHgXJwQMNSEJ-303" target="yGgz9N2xFHgXJwQMNSEJ-311">
          <mxGeometry relative="1" as="geometry" />
        </mxCell>
        <mxCell id="yGgz9N2xFHgXJwQMNSEJ-314" style="edgeStyle=none;rounded=0;orthogonalLoop=1;jettySize=auto;html=1;exitX=0;exitY=1;exitDx=0;exitDy=0;entryX=0.5;entryY=0;entryDx=0;entryDy=0;" edge="1" parent="1" source="yGgz9N2xFHgXJwQMNSEJ-303" target="yGgz9N2xFHgXJwQMNSEJ-297">
          <mxGeometry relative="1" as="geometry" />
        </mxCell>
        <mxCell id="yGgz9N2xFHgXJwQMNSEJ-303" value="12" style="rounded=0;whiteSpace=wrap;html=1;fillColor=#ffffff;" vertex="1" parent="1">
          <mxGeometry x="2395" y="2096" width="56" height="26" as="geometry" />
        </mxCell>
        <mxCell id="yGgz9N2xFHgXJwQMNSEJ-304" value="5" style="rounded=0;whiteSpace=wrap;html=1;" vertex="1" parent="1">
          <mxGeometry x="2201" y="2184" width="56" height="26" as="geometry" />
        </mxCell>
        <mxCell id="yGgz9N2xFHgXJwQMNSEJ-305" style="edgeStyle=none;rounded=0;orthogonalLoop=1;jettySize=auto;html=1;exitX=1;exitY=1;exitDx=0;exitDy=0;entryX=0;entryY=0;entryDx=0;entryDy=0;" edge="1" parent="1" source="yGgz9N2xFHgXJwQMNSEJ-306" target="yGgz9N2xFHgXJwQMNSEJ-309">
          <mxGeometry relative="1" as="geometry" />
        </mxCell>
        <mxCell id="yGgz9N2xFHgXJwQMNSEJ-306" value="15" style="rounded=0;whiteSpace=wrap;html=1;" vertex="1" parent="1">
          <mxGeometry x="2451" y="2096" width="56" height="26" as="geometry" />
        </mxCell>
        <mxCell id="yGgz9N2xFHgXJwQMNSEJ-307" value="4" style="rounded=0;whiteSpace=wrap;html=1;" vertex="1" parent="1">
          <mxGeometry x="2145" y="2184" width="56" height="26" as="geometry" />
        </mxCell>
        <mxCell id="yGgz9N2xFHgXJwQMNSEJ-308" value="18" style="rounded=0;whiteSpace=wrap;html=1;" vertex="1" parent="1">
          <mxGeometry x="2504" y="2184" width="56" height="26" as="geometry" />
        </mxCell>
        <mxCell id="yGgz9N2xFHgXJwQMNSEJ-309" value="19" style="rounded=0;whiteSpace=wrap;html=1;" vertex="1" parent="1">
          <mxGeometry x="2560" y="2184" width="56" height="26" as="geometry" />
        </mxCell>
        <mxCell id="yGgz9N2xFHgXJwQMNSEJ-310" value="7" style="rounded=0;whiteSpace=wrap;html=1;" vertex="1" parent="1">
          <mxGeometry x="2257" y="2184" width="56" height="26" as="geometry" />
        </mxCell>
        <mxCell id="yGgz9N2xFHgXJwQMNSEJ-311" value="14" style="rounded=0;whiteSpace=wrap;html=1;" vertex="1" parent="1">
          <mxGeometry x="2423" y="2184" width="56" height="26" as="geometry" />
        </mxCell>
        <mxCell id="yGgz9N2xFHgXJwQMNSEJ-315" value="1" style="rounded=0;whiteSpace=wrap;html=1;fillColor=#ffffff;" vertex="1" parent="1">
          <mxGeometry x="93" y="2504" width="56" height="26" as="geometry" />
        </mxCell>
        <mxCell id="yGgz9N2xFHgXJwQMNSEJ-316" style="edgeStyle=none;rounded=0;orthogonalLoop=1;jettySize=auto;html=1;exitX=0;exitY=1;exitDx=0;exitDy=0;entryX=0.5;entryY=0;entryDx=0;entryDy=0;" edge="1" parent="1" source="yGgz9N2xFHgXJwQMNSEJ-318" target="yGgz9N2xFHgXJwQMNSEJ-322">
          <mxGeometry relative="1" as="geometry" />
        </mxCell>
        <mxCell id="yGgz9N2xFHgXJwQMNSEJ-317" style="edgeStyle=none;rounded=0;orthogonalLoop=1;jettySize=auto;html=1;exitX=1;exitY=1;exitDx=0;exitDy=0;entryX=0;entryY=0;entryDx=0;entryDy=0;" edge="1" parent="1" source="yGgz9N2xFHgXJwQMNSEJ-318" target="yGgz9N2xFHgXJwQMNSEJ-329">
          <mxGeometry relative="1" as="geometry" />
        </mxCell>
        <mxCell id="yGgz9N2xFHgXJwQMNSEJ-318" value="9" style="rounded=0;whiteSpace=wrap;html=1;fillColor=#ffffff;" vertex="1" parent="1">
          <mxGeometry x="300" y="2344" width="56" height="26" as="geometry" />
        </mxCell>
        <mxCell id="yGgz9N2xFHgXJwQMNSEJ-319" value="11" style="rounded=0;whiteSpace=wrap;html=1;" vertex="1" parent="1">
          <mxGeometry x="371" y="2504" width="56" height="26" as="geometry" />
        </mxCell>
        <mxCell id="yGgz9N2xFHgXJwQMNSEJ-320" style="edgeStyle=none;rounded=0;orthogonalLoop=1;jettySize=auto;html=1;exitX=0;exitY=1;exitDx=0;exitDy=0;entryX=1;entryY=0;entryDx=0;entryDy=0;" edge="1" parent="1" source="yGgz9N2xFHgXJwQMNSEJ-322" target="yGgz9N2xFHgXJwQMNSEJ-323">
          <mxGeometry relative="1" as="geometry" />
        </mxCell>
        <mxCell id="yGgz9N2xFHgXJwQMNSEJ-321" style="edgeStyle=none;rounded=0;orthogonalLoop=1;jettySize=auto;html=1;exitX=1;exitY=1;exitDx=0;exitDy=0;entryX=0.5;entryY=0;entryDx=0;entryDy=0;" edge="1" parent="1" source="yGgz9N2xFHgXJwQMNSEJ-322" target="yGgz9N2xFHgXJwQMNSEJ-327">
          <mxGeometry relative="1" as="geometry" />
        </mxCell>
        <mxCell id="yGgz9N2xFHgXJwQMNSEJ-322" value="2" style="rounded=0;whiteSpace=wrap;html=1;fillColor=#ffffff;" vertex="1" parent="1">
          <mxGeometry x="158" y="2416" width="56" height="26" as="geometry" />
        </mxCell>
        <mxCell id="yGgz9N2xFHgXJwQMNSEJ-323" value="0" style="rounded=0;whiteSpace=wrap;html=1;" vertex="1" parent="1">
          <mxGeometry x="37" y="2504" width="56" height="26" as="geometry" />
        </mxCell>
        <mxCell id="yGgz9N2xFHgXJwQMNSEJ-324" style="edgeStyle=none;rounded=0;orthogonalLoop=1;jettySize=auto;html=1;exitX=1;exitY=1;exitDx=0;exitDy=0;entryX=0.5;entryY=0;entryDx=0;entryDy=0;" edge="1" parent="1" source="yGgz9N2xFHgXJwQMNSEJ-326" target="yGgz9N2xFHgXJwQMNSEJ-334">
          <mxGeometry relative="1" as="geometry" />
        </mxCell>
        <mxCell id="yGgz9N2xFHgXJwQMNSEJ-325" style="edgeStyle=none;rounded=0;orthogonalLoop=1;jettySize=auto;html=1;exitX=0;exitY=1;exitDx=0;exitDy=0;entryX=0.5;entryY=0;entryDx=0;entryDy=0;" edge="1" parent="1" source="yGgz9N2xFHgXJwQMNSEJ-326" target="yGgz9N2xFHgXJwQMNSEJ-319">
          <mxGeometry relative="1" as="geometry" />
        </mxCell>
        <mxCell id="yGgz9N2xFHgXJwQMNSEJ-326" value="12" style="rounded=0;whiteSpace=wrap;html=1;fillColor=#ffffff;" vertex="1" parent="1">
          <mxGeometry x="472" y="2416" width="56" height="26" as="geometry" />
        </mxCell>
        <mxCell id="yGgz9N2xFHgXJwQMNSEJ-327" value="5" style="rounded=0;whiteSpace=wrap;html=1;" vertex="1" parent="1">
          <mxGeometry x="240" y="2504" width="56" height="26" as="geometry" />
        </mxCell>
        <mxCell id="yGgz9N2xFHgXJwQMNSEJ-328" style="edgeStyle=none;rounded=0;orthogonalLoop=1;jettySize=auto;html=1;exitX=1;exitY=1;exitDx=0;exitDy=0;entryX=0;entryY=0;entryDx=0;entryDy=0;" edge="1" parent="1" source="yGgz9N2xFHgXJwQMNSEJ-329" target="yGgz9N2xFHgXJwQMNSEJ-332">
          <mxGeometry relative="1" as="geometry" />
        </mxCell>
        <mxCell id="yGgz9N2xFHgXJwQMNSEJ-329" value="15" style="rounded=0;whiteSpace=wrap;html=1;" vertex="1" parent="1">
          <mxGeometry x="528" y="2416" width="56" height="26" as="geometry" />
        </mxCell>
        <mxCell id="yGgz9N2xFHgXJwQMNSEJ-330" value="4" style="rounded=0;whiteSpace=wrap;html=1;" vertex="1" parent="1">
          <mxGeometry x="184" y="2504" width="56" height="26" as="geometry" />
        </mxCell>
        <mxCell id="yGgz9N2xFHgXJwQMNSEJ-331" value="18" style="rounded=0;whiteSpace=wrap;html=1;" vertex="1" parent="1">
          <mxGeometry x="598.5" y="2504" width="56" height="26" as="geometry" />
        </mxCell>
        <mxCell id="yGgz9N2xFHgXJwQMNSEJ-332" value="19" style="rounded=0;whiteSpace=wrap;html=1;" vertex="1" parent="1">
          <mxGeometry x="654.5" y="2504" width="56" height="26" as="geometry" />
        </mxCell>
        <mxCell id="yGgz9N2xFHgXJwQMNSEJ-333" value="7" style="rounded=0;whiteSpace=wrap;html=1;" vertex="1" parent="1">
          <mxGeometry x="296" y="2504" width="56" height="26" as="geometry" />
        </mxCell>
        <mxCell id="yGgz9N2xFHgXJwQMNSEJ-334" value="14" style="rounded=0;whiteSpace=wrap;html=1;" vertex="1" parent="1">
          <mxGeometry x="500" y="2504" width="56" height="26" as="geometry" />
        </mxCell>
        <mxCell id="yGgz9N2xFHgXJwQMNSEJ-337" value="1" style="rounded=0;whiteSpace=wrap;html=1;fillColor=#ffffff;" vertex="1" parent="1">
          <mxGeometry x="823.25" y="2507" width="56" height="26" as="geometry" />
        </mxCell>
        <mxCell id="yGgz9N2xFHgXJwQMNSEJ-338" style="edgeStyle=none;rounded=0;orthogonalLoop=1;jettySize=auto;html=1;exitX=0;exitY=1;exitDx=0;exitDy=0;entryX=0.5;entryY=0;entryDx=0;entryDy=0;" edge="1" parent="1" source="yGgz9N2xFHgXJwQMNSEJ-340" target="yGgz9N2xFHgXJwQMNSEJ-344">
          <mxGeometry relative="1" as="geometry" />
        </mxCell>
        <mxCell id="yGgz9N2xFHgXJwQMNSEJ-339" style="edgeStyle=none;rounded=0;orthogonalLoop=1;jettySize=auto;html=1;exitX=1;exitY=1;exitDx=0;exitDy=0;entryX=0;entryY=0;entryDx=0;entryDy=0;" edge="1" parent="1" source="yGgz9N2xFHgXJwQMNSEJ-340" target="yGgz9N2xFHgXJwQMNSEJ-351">
          <mxGeometry relative="1" as="geometry" />
        </mxCell>
        <mxCell id="yGgz9N2xFHgXJwQMNSEJ-340" value="9" style="rounded=0;whiteSpace=wrap;html=1;fillColor=#ffffff;" vertex="1" parent="1">
          <mxGeometry x="1030.25" y="2347" width="56" height="26" as="geometry" />
        </mxCell>
        <mxCell id="yGgz9N2xFHgXJwQMNSEJ-341" value="11" style="rounded=0;whiteSpace=wrap;html=1;" vertex="1" parent="1">
          <mxGeometry x="1101.25" y="2507" width="56" height="26" as="geometry" />
        </mxCell>
        <mxCell id="yGgz9N2xFHgXJwQMNSEJ-342" style="edgeStyle=none;rounded=0;orthogonalLoop=1;jettySize=auto;html=1;exitX=0;exitY=1;exitDx=0;exitDy=0;entryX=1;entryY=0;entryDx=0;entryDy=0;" edge="1" parent="1" source="yGgz9N2xFHgXJwQMNSEJ-344" target="yGgz9N2xFHgXJwQMNSEJ-345">
          <mxGeometry relative="1" as="geometry" />
        </mxCell>
        <mxCell id="yGgz9N2xFHgXJwQMNSEJ-343" style="edgeStyle=none;rounded=0;orthogonalLoop=1;jettySize=auto;html=1;exitX=1;exitY=1;exitDx=0;exitDy=0;entryX=0.5;entryY=0;entryDx=0;entryDy=0;" edge="1" parent="1" source="yGgz9N2xFHgXJwQMNSEJ-344" target="yGgz9N2xFHgXJwQMNSEJ-349">
          <mxGeometry relative="1" as="geometry" />
        </mxCell>
        <mxCell id="yGgz9N2xFHgXJwQMNSEJ-344" value="2" style="rounded=0;whiteSpace=wrap;html=1;fillColor=#ffffff;" vertex="1" parent="1">
          <mxGeometry x="888.25" y="2419" width="56" height="26" as="geometry" />
        </mxCell>
        <mxCell id="yGgz9N2xFHgXJwQMNSEJ-345" value="0" style="rounded=0;whiteSpace=wrap;html=1;" vertex="1" parent="1">
          <mxGeometry x="767.25" y="2507" width="56" height="26" as="geometry" />
        </mxCell>
        <mxCell id="yGgz9N2xFHgXJwQMNSEJ-346" style="edgeStyle=none;rounded=0;orthogonalLoop=1;jettySize=auto;html=1;exitX=1;exitY=1;exitDx=0;exitDy=0;entryX=0;entryY=0;entryDx=0;entryDy=0;" edge="1" parent="1" source="yGgz9N2xFHgXJwQMNSEJ-348" target="yGgz9N2xFHgXJwQMNSEJ-356">
          <mxGeometry relative="1" as="geometry" />
        </mxCell>
        <mxCell id="yGgz9N2xFHgXJwQMNSEJ-347" style="edgeStyle=none;rounded=0;orthogonalLoop=1;jettySize=auto;html=1;exitX=0;exitY=1;exitDx=0;exitDy=0;entryX=0.5;entryY=0;entryDx=0;entryDy=0;" edge="1" parent="1" source="yGgz9N2xFHgXJwQMNSEJ-348" target="yGgz9N2xFHgXJwQMNSEJ-341">
          <mxGeometry relative="1" as="geometry" />
        </mxCell>
        <mxCell id="yGgz9N2xFHgXJwQMNSEJ-348" value="12" style="rounded=0;whiteSpace=wrap;html=1;fillColor=#ffffff;" vertex="1" parent="1">
          <mxGeometry x="1202.25" y="2419" width="56" height="26" as="geometry" />
        </mxCell>
        <mxCell id="yGgz9N2xFHgXJwQMNSEJ-349" value="5" style="rounded=0;whiteSpace=wrap;html=1;" vertex="1" parent="1">
          <mxGeometry x="970.25" y="2507" width="56" height="26" as="geometry" />
        </mxCell>
        <mxCell id="yGgz9N2xFHgXJwQMNSEJ-350" style="edgeStyle=none;rounded=0;orthogonalLoop=1;jettySize=auto;html=1;exitX=1;exitY=1;exitDx=0;exitDy=0;entryX=0;entryY=0;entryDx=0;entryDy=0;" edge="1" parent="1" source="yGgz9N2xFHgXJwQMNSEJ-351" target="yGgz9N2xFHgXJwQMNSEJ-354">
          <mxGeometry relative="1" as="geometry" />
        </mxCell>
        <mxCell id="yGgz9N2xFHgXJwQMNSEJ-351" value="15" style="rounded=0;whiteSpace=wrap;html=1;" vertex="1" parent="1">
          <mxGeometry x="1258.25" y="2419" width="56" height="26" as="geometry" />
        </mxCell>
        <mxCell id="yGgz9N2xFHgXJwQMNSEJ-352" value="4" style="rounded=0;whiteSpace=wrap;html=1;" vertex="1" parent="1">
          <mxGeometry x="914.25" y="2507" width="56" height="26" as="geometry" />
        </mxCell>
        <mxCell id="yGgz9N2xFHgXJwQMNSEJ-353" value="18" style="rounded=0;whiteSpace=wrap;html=1;" vertex="1" parent="1">
          <mxGeometry x="1328.75" y="2507" width="56" height="26" as="geometry" />
        </mxCell>
        <mxCell id="yGgz9N2xFHgXJwQMNSEJ-354" value="19" style="rounded=0;whiteSpace=wrap;html=1;" vertex="1" parent="1">
          <mxGeometry x="1384.75" y="2507" width="56" height="26" as="geometry" />
        </mxCell>
        <mxCell id="yGgz9N2xFHgXJwQMNSEJ-355" value="7" style="rounded=0;whiteSpace=wrap;html=1;" vertex="1" parent="1">
          <mxGeometry x="1026.25" y="2507" width="56" height="26" as="geometry" />
        </mxCell>
        <mxCell id="yGgz9N2xFHgXJwQMNSEJ-356" value="14" style="rounded=0;whiteSpace=wrap;html=1;" vertex="1" parent="1">
          <mxGeometry x="1247.75" y="2507" width="56" height="26" as="geometry" />
        </mxCell>
        <mxCell id="yGgz9N2xFHgXJwQMNSEJ-357" value="13" style="rounded=0;whiteSpace=wrap;html=1;fillColor=#f8cecc;strokeColor=#b85450;" vertex="1" parent="1">
          <mxGeometry x="1191.75" y="2507" width="56" height="26" as="geometry" />
        </mxCell>
        <mxCell id="yGgz9N2xFHgXJwQMNSEJ-358" value="1" style="rounded=0;whiteSpace=wrap;html=1;fillColor=#ffffff;" vertex="1" parent="1">
          <mxGeometry x="92.5" y="2809" width="56" height="26" as="geometry" />
        </mxCell>
        <mxCell id="yGgz9N2xFHgXJwQMNSEJ-359" style="edgeStyle=none;rounded=0;orthogonalLoop=1;jettySize=auto;html=1;exitX=0;exitY=1;exitDx=0;exitDy=0;entryX=0.5;entryY=0;entryDx=0;entryDy=0;" edge="1" parent="1" source="yGgz9N2xFHgXJwQMNSEJ-361" target="yGgz9N2xFHgXJwQMNSEJ-365">
          <mxGeometry relative="1" as="geometry" />
        </mxCell>
        <mxCell id="yGgz9N2xFHgXJwQMNSEJ-360" style="edgeStyle=none;rounded=0;orthogonalLoop=1;jettySize=auto;html=1;exitX=1;exitY=1;exitDx=0;exitDy=0;entryX=0;entryY=0;entryDx=0;entryDy=0;" edge="1" parent="1" source="yGgz9N2xFHgXJwQMNSEJ-361" target="yGgz9N2xFHgXJwQMNSEJ-372">
          <mxGeometry relative="1" as="geometry" />
        </mxCell>
        <mxCell id="yGgz9N2xFHgXJwQMNSEJ-361" value="9" style="rounded=0;whiteSpace=wrap;html=1;fillColor=#ffffff;" vertex="1" parent="1">
          <mxGeometry x="299.5" y="2649" width="56" height="26" as="geometry" />
        </mxCell>
        <mxCell id="yGgz9N2xFHgXJwQMNSEJ-362" value="11" style="rounded=0;whiteSpace=wrap;html=1;" vertex="1" parent="1">
          <mxGeometry x="370.5" y="2809" width="56" height="26" as="geometry" />
        </mxCell>
        <mxCell id="yGgz9N2xFHgXJwQMNSEJ-363" style="edgeStyle=none;rounded=0;orthogonalLoop=1;jettySize=auto;html=1;exitX=0;exitY=1;exitDx=0;exitDy=0;entryX=1;entryY=0;entryDx=0;entryDy=0;" edge="1" parent="1" source="yGgz9N2xFHgXJwQMNSEJ-365" target="yGgz9N2xFHgXJwQMNSEJ-366">
          <mxGeometry relative="1" as="geometry" />
        </mxCell>
        <mxCell id="yGgz9N2xFHgXJwQMNSEJ-364" style="edgeStyle=none;rounded=0;orthogonalLoop=1;jettySize=auto;html=1;exitX=1;exitY=1;exitDx=0;exitDy=0;entryX=0.5;entryY=0;entryDx=0;entryDy=0;" edge="1" parent="1" source="yGgz9N2xFHgXJwQMNSEJ-365" target="yGgz9N2xFHgXJwQMNSEJ-370">
          <mxGeometry relative="1" as="geometry" />
        </mxCell>
        <mxCell id="yGgz9N2xFHgXJwQMNSEJ-365" value="2" style="rounded=0;whiteSpace=wrap;html=1;fillColor=#ffffff;" vertex="1" parent="1">
          <mxGeometry x="157.5" y="2721" width="56" height="26" as="geometry" />
        </mxCell>
        <mxCell id="yGgz9N2xFHgXJwQMNSEJ-366" value="0" style="rounded=0;whiteSpace=wrap;html=1;" vertex="1" parent="1">
          <mxGeometry x="36.5" y="2809" width="56" height="26" as="geometry" />
        </mxCell>
        <mxCell id="yGgz9N2xFHgXJwQMNSEJ-367" style="edgeStyle=none;rounded=0;orthogonalLoop=1;jettySize=auto;html=1;exitX=1;exitY=1;exitDx=0;exitDy=0;entryX=0;entryY=0;entryDx=0;entryDy=0;" edge="1" parent="1" source="yGgz9N2xFHgXJwQMNSEJ-369" target="yGgz9N2xFHgXJwQMNSEJ-377">
          <mxGeometry relative="1" as="geometry" />
        </mxCell>
        <mxCell id="yGgz9N2xFHgXJwQMNSEJ-368" style="edgeStyle=none;rounded=0;orthogonalLoop=1;jettySize=auto;html=1;exitX=0;exitY=1;exitDx=0;exitDy=0;entryX=0.5;entryY=0;entryDx=0;entryDy=0;" edge="1" parent="1" source="yGgz9N2xFHgXJwQMNSEJ-369" target="yGgz9N2xFHgXJwQMNSEJ-362">
          <mxGeometry relative="1" as="geometry" />
        </mxCell>
        <mxCell id="yGgz9N2xFHgXJwQMNSEJ-369" value="12" style="rounded=0;whiteSpace=wrap;html=1;fillColor=#ffffff;" vertex="1" parent="1">
          <mxGeometry x="471.5" y="2721" width="56" height="26" as="geometry" />
        </mxCell>
        <mxCell id="yGgz9N2xFHgXJwQMNSEJ-370" value="5" style="rounded=0;whiteSpace=wrap;html=1;" vertex="1" parent="1">
          <mxGeometry x="239.5" y="2809" width="56" height="26" as="geometry" />
        </mxCell>
        <mxCell id="yGgz9N2xFHgXJwQMNSEJ-371" style="edgeStyle=none;rounded=0;orthogonalLoop=1;jettySize=auto;html=1;exitX=1;exitY=1;exitDx=0;exitDy=0;entryX=0;entryY=0;entryDx=0;entryDy=0;" edge="1" parent="1" source="yGgz9N2xFHgXJwQMNSEJ-372" target="yGgz9N2xFHgXJwQMNSEJ-375">
          <mxGeometry relative="1" as="geometry" />
        </mxCell>
        <mxCell id="yGgz9N2xFHgXJwQMNSEJ-372" value="15" style="rounded=0;whiteSpace=wrap;html=1;" vertex="1" parent="1">
          <mxGeometry x="527.5" y="2721" width="56" height="26" as="geometry" />
        </mxCell>
        <mxCell id="yGgz9N2xFHgXJwQMNSEJ-373" value="4" style="rounded=0;whiteSpace=wrap;html=1;" vertex="1" parent="1">
          <mxGeometry x="183.5" y="2809" width="56" height="26" as="geometry" />
        </mxCell>
        <mxCell id="yGgz9N2xFHgXJwQMNSEJ-374" value="18" style="rounded=0;whiteSpace=wrap;html=1;" vertex="1" parent="1">
          <mxGeometry x="598" y="2809" width="56" height="26" as="geometry" />
        </mxCell>
        <mxCell id="yGgz9N2xFHgXJwQMNSEJ-375" value="19" style="rounded=0;whiteSpace=wrap;html=1;" vertex="1" parent="1">
          <mxGeometry x="654" y="2809" width="56" height="26" as="geometry" />
        </mxCell>
        <mxCell id="yGgz9N2xFHgXJwQMNSEJ-376" value="7" style="rounded=0;whiteSpace=wrap;html=1;" vertex="1" parent="1">
          <mxGeometry x="295.5" y="2809" width="56" height="26" as="geometry" />
        </mxCell>
        <mxCell id="yGgz9N2xFHgXJwQMNSEJ-377" value="14" style="rounded=0;whiteSpace=wrap;html=1;" vertex="1" parent="1">
          <mxGeometry x="517" y="2809" width="56" height="26" as="geometry" />
        </mxCell>
        <mxCell id="yGgz9N2xFHgXJwQMNSEJ-378" value="13" style="rounded=0;whiteSpace=wrap;html=1;" vertex="1" parent="1">
          <mxGeometry x="461" y="2809" width="56" height="26" as="geometry" />
        </mxCell>
        <mxCell id="yGgz9N2xFHgXJwQMNSEJ-379" value="1" style="rounded=0;whiteSpace=wrap;html=1;fillColor=#ffffff;" vertex="1" parent="1">
          <mxGeometry x="853.5" y="2809" width="56" height="26" as="geometry" />
        </mxCell>
        <mxCell id="yGgz9N2xFHgXJwQMNSEJ-380" style="edgeStyle=none;rounded=0;orthogonalLoop=1;jettySize=auto;html=1;exitX=0;exitY=1;exitDx=0;exitDy=0;entryX=0.5;entryY=0;entryDx=0;entryDy=0;" edge="1" parent="1" source="yGgz9N2xFHgXJwQMNSEJ-382" target="yGgz9N2xFHgXJwQMNSEJ-386">
          <mxGeometry relative="1" as="geometry" />
        </mxCell>
        <mxCell id="yGgz9N2xFHgXJwQMNSEJ-381" style="edgeStyle=none;rounded=0;orthogonalLoop=1;jettySize=auto;html=1;exitX=1;exitY=1;exitDx=0;exitDy=0;entryX=0;entryY=0;entryDx=0;entryDy=0;" edge="1" parent="1" source="yGgz9N2xFHgXJwQMNSEJ-382" target="yGgz9N2xFHgXJwQMNSEJ-393">
          <mxGeometry relative="1" as="geometry" />
        </mxCell>
        <mxCell id="yGgz9N2xFHgXJwQMNSEJ-382" value="9" style="rounded=0;whiteSpace=wrap;html=1;fillColor=#ffffff;" vertex="1" parent="1">
          <mxGeometry x="1110" y="2649" width="56" height="26" as="geometry" />
        </mxCell>
        <mxCell id="yGgz9N2xFHgXJwQMNSEJ-383" value="11" style="rounded=0;whiteSpace=wrap;html=1;" vertex="1" parent="1">
          <mxGeometry x="1187" y="2809" width="56" height="26" as="geometry" />
        </mxCell>
        <mxCell id="yGgz9N2xFHgXJwQMNSEJ-384" style="edgeStyle=none;rounded=0;orthogonalLoop=1;jettySize=auto;html=1;exitX=0;exitY=1;exitDx=0;exitDy=0;entryX=1;entryY=0;entryDx=0;entryDy=0;" edge="1" parent="1" source="yGgz9N2xFHgXJwQMNSEJ-386" target="yGgz9N2xFHgXJwQMNSEJ-387">
          <mxGeometry relative="1" as="geometry" />
        </mxCell>
        <mxCell id="yGgz9N2xFHgXJwQMNSEJ-385" style="edgeStyle=none;rounded=0;orthogonalLoop=1;jettySize=auto;html=1;exitX=1;exitY=1;exitDx=0;exitDy=0;entryX=0.5;entryY=0;entryDx=0;entryDy=0;" edge="1" parent="1" source="yGgz9N2xFHgXJwQMNSEJ-386" target="yGgz9N2xFHgXJwQMNSEJ-391">
          <mxGeometry relative="1" as="geometry" />
        </mxCell>
        <mxCell id="yGgz9N2xFHgXJwQMNSEJ-386" value="2" style="rounded=0;whiteSpace=wrap;html=1;fillColor=#ffffff;" vertex="1" parent="1">
          <mxGeometry x="918.5" y="2721" width="56" height="26" as="geometry" />
        </mxCell>
        <mxCell id="yGgz9N2xFHgXJwQMNSEJ-387" value="0" style="rounded=0;whiteSpace=wrap;html=1;" vertex="1" parent="1">
          <mxGeometry x="797.5" y="2809" width="56" height="26" as="geometry" />
        </mxCell>
        <mxCell id="yGgz9N2xFHgXJwQMNSEJ-388" style="edgeStyle=none;rounded=0;orthogonalLoop=1;jettySize=auto;html=1;exitX=1;exitY=1;exitDx=0;exitDy=0;entryX=0;entryY=0;entryDx=0;entryDy=0;" edge="1" parent="1" source="yGgz9N2xFHgXJwQMNSEJ-390" target="yGgz9N2xFHgXJwQMNSEJ-398">
          <mxGeometry relative="1" as="geometry" />
        </mxCell>
        <mxCell id="yGgz9N2xFHgXJwQMNSEJ-389" style="edgeStyle=none;rounded=0;orthogonalLoop=1;jettySize=auto;html=1;exitX=0;exitY=1;exitDx=0;exitDy=0;entryX=0.5;entryY=0;entryDx=0;entryDy=0;" edge="1" parent="1" source="yGgz9N2xFHgXJwQMNSEJ-390" target="yGgz9N2xFHgXJwQMNSEJ-383">
          <mxGeometry relative="1" as="geometry" />
        </mxCell>
        <mxCell id="yGgz9N2xFHgXJwQMNSEJ-390" value="12" style="rounded=0;whiteSpace=wrap;html=1;fillColor=#ffffff;" vertex="1" parent="1">
          <mxGeometry x="1288" y="2721" width="56" height="26" as="geometry" />
        </mxCell>
        <mxCell id="yGgz9N2xFHgXJwQMNSEJ-391" value="5" style="rounded=0;whiteSpace=wrap;html=1;" vertex="1" parent="1">
          <mxGeometry x="1000.5" y="2809" width="56" height="26" as="geometry" />
        </mxCell>
        <mxCell id="yGgz9N2xFHgXJwQMNSEJ-392" style="edgeStyle=none;rounded=0;orthogonalLoop=1;jettySize=auto;html=1;exitX=1;exitY=1;exitDx=0;exitDy=0;entryX=0;entryY=0;entryDx=0;entryDy=0;" edge="1" parent="1" source="yGgz9N2xFHgXJwQMNSEJ-393" target="yGgz9N2xFHgXJwQMNSEJ-396">
          <mxGeometry relative="1" as="geometry" />
        </mxCell>
        <mxCell id="yGgz9N2xFHgXJwQMNSEJ-393" value="15" style="rounded=0;whiteSpace=wrap;html=1;" vertex="1" parent="1">
          <mxGeometry x="1344" y="2721" width="56" height="26" as="geometry" />
        </mxCell>
        <mxCell id="yGgz9N2xFHgXJwQMNSEJ-394" value="4" style="rounded=0;whiteSpace=wrap;html=1;" vertex="1" parent="1">
          <mxGeometry x="944.5" y="2809" width="56" height="26" as="geometry" />
        </mxCell>
        <mxCell id="yGgz9N2xFHgXJwQMNSEJ-395" value="18" style="rounded=0;whiteSpace=wrap;html=1;" vertex="1" parent="1">
          <mxGeometry x="1414.5" y="2809" width="56" height="26" as="geometry" />
        </mxCell>
        <mxCell id="yGgz9N2xFHgXJwQMNSEJ-396" value="19" style="rounded=0;whiteSpace=wrap;html=1;" vertex="1" parent="1">
          <mxGeometry x="1470.5" y="2809" width="56" height="26" as="geometry" />
        </mxCell>
        <mxCell id="yGgz9N2xFHgXJwQMNSEJ-397" value="7" style="rounded=0;whiteSpace=wrap;html=1;" vertex="1" parent="1">
          <mxGeometry x="1056.5" y="2809" width="56" height="26" as="geometry" />
        </mxCell>
        <mxCell id="yGgz9N2xFHgXJwQMNSEJ-398" value="14" style="rounded=0;whiteSpace=wrap;html=1;" vertex="1" parent="1">
          <mxGeometry x="1333.5" y="2809" width="56" height="26" as="geometry" />
        </mxCell>
        <mxCell id="yGgz9N2xFHgXJwQMNSEJ-399" value="13" style="rounded=0;whiteSpace=wrap;html=1;" vertex="1" parent="1">
          <mxGeometry x="1277.5" y="2809" width="56" height="26" as="geometry" />
        </mxCell>
        <mxCell id="yGgz9N2xFHgXJwQMNSEJ-400" value="10" style="rounded=0;whiteSpace=wrap;html=1;fillColor=#f8cecc;strokeColor=#b85450;" vertex="1" parent="1">
          <mxGeometry x="1131" y="2809" width="56" height="26" as="geometry" />
        </mxCell>
        <mxCell id="yGgz9N2xFHgXJwQMNSEJ-401" value="1" style="rounded=0;whiteSpace=wrap;html=1;fillColor=#ffffff;" vertex="1" parent="1">
          <mxGeometry x="84.5" y="3165" width="56" height="26" as="geometry" />
        </mxCell>
        <mxCell id="yGgz9N2xFHgXJwQMNSEJ-402" style="edgeStyle=none;rounded=0;orthogonalLoop=1;jettySize=auto;html=1;exitX=0;exitY=1;exitDx=0;exitDy=0;entryX=0.5;entryY=0;entryDx=0;entryDy=0;" edge="1" parent="1" source="yGgz9N2xFHgXJwQMNSEJ-404" target="yGgz9N2xFHgXJwQMNSEJ-408">
          <mxGeometry relative="1" as="geometry" />
        </mxCell>
        <mxCell id="yGgz9N2xFHgXJwQMNSEJ-403" style="edgeStyle=none;rounded=0;orthogonalLoop=1;jettySize=auto;html=1;exitX=1;exitY=1;exitDx=0;exitDy=0;entryX=0;entryY=0;entryDx=0;entryDy=0;" edge="1" parent="1" source="yGgz9N2xFHgXJwQMNSEJ-404" target="yGgz9N2xFHgXJwQMNSEJ-415">
          <mxGeometry relative="1" as="geometry" />
        </mxCell>
        <mxCell id="yGgz9N2xFHgXJwQMNSEJ-404" value="9" style="rounded=0;whiteSpace=wrap;html=1;fillColor=#ffffff;" vertex="1" parent="1">
          <mxGeometry x="341" y="3005" width="56" height="26" as="geometry" />
        </mxCell>
        <mxCell id="yGgz9N2xFHgXJwQMNSEJ-405" value="11" style="rounded=0;whiteSpace=wrap;html=1;" vertex="1" parent="1">
          <mxGeometry x="418" y="3165" width="56" height="26" as="geometry" />
        </mxCell>
        <mxCell id="yGgz9N2xFHgXJwQMNSEJ-406" style="edgeStyle=none;rounded=0;orthogonalLoop=1;jettySize=auto;html=1;exitX=0;exitY=1;exitDx=0;exitDy=0;entryX=1;entryY=0;entryDx=0;entryDy=0;" edge="1" parent="1" source="yGgz9N2xFHgXJwQMNSEJ-408" target="yGgz9N2xFHgXJwQMNSEJ-409">
          <mxGeometry relative="1" as="geometry" />
        </mxCell>
        <mxCell id="yGgz9N2xFHgXJwQMNSEJ-407" style="edgeStyle=none;rounded=0;orthogonalLoop=1;jettySize=auto;html=1;exitX=1;exitY=1;exitDx=0;exitDy=0;entryX=0.5;entryY=0;entryDx=0;entryDy=0;" edge="1" parent="1" source="yGgz9N2xFHgXJwQMNSEJ-408" target="yGgz9N2xFHgXJwQMNSEJ-413">
          <mxGeometry relative="1" as="geometry" />
        </mxCell>
        <mxCell id="yGgz9N2xFHgXJwQMNSEJ-408" value="2" style="rounded=0;whiteSpace=wrap;html=1;fillColor=#ffffff;" vertex="1" parent="1">
          <mxGeometry x="149.5" y="3077" width="56" height="26" as="geometry" />
        </mxCell>
        <mxCell id="yGgz9N2xFHgXJwQMNSEJ-409" value="0" style="rounded=0;whiteSpace=wrap;html=1;" vertex="1" parent="1">
          <mxGeometry x="28.5" y="3165" width="56" height="26" as="geometry" />
        </mxCell>
        <mxCell id="yGgz9N2xFHgXJwQMNSEJ-410" style="edgeStyle=none;rounded=0;orthogonalLoop=1;jettySize=auto;html=1;exitX=1;exitY=1;exitDx=0;exitDy=0;entryX=0;entryY=0;entryDx=0;entryDy=0;" edge="1" parent="1" source="yGgz9N2xFHgXJwQMNSEJ-412" target="yGgz9N2xFHgXJwQMNSEJ-420">
          <mxGeometry relative="1" as="geometry" />
        </mxCell>
        <mxCell id="yGgz9N2xFHgXJwQMNSEJ-411" style="edgeStyle=none;rounded=0;orthogonalLoop=1;jettySize=auto;html=1;exitX=0;exitY=1;exitDx=0;exitDy=0;entryX=0.5;entryY=0;entryDx=0;entryDy=0;" edge="1" parent="1" source="yGgz9N2xFHgXJwQMNSEJ-412" target="yGgz9N2xFHgXJwQMNSEJ-405">
          <mxGeometry relative="1" as="geometry" />
        </mxCell>
        <mxCell id="yGgz9N2xFHgXJwQMNSEJ-412" value="12" style="rounded=0;whiteSpace=wrap;html=1;fillColor=#ffffff;" vertex="1" parent="1">
          <mxGeometry x="519" y="3077" width="56" height="26" as="geometry" />
        </mxCell>
        <mxCell id="yGgz9N2xFHgXJwQMNSEJ-413" value="5" style="rounded=0;whiteSpace=wrap;html=1;" vertex="1" parent="1">
          <mxGeometry x="231.5" y="3165" width="56" height="26" as="geometry" />
        </mxCell>
        <mxCell id="yGgz9N2xFHgXJwQMNSEJ-414" style="edgeStyle=none;rounded=0;orthogonalLoop=1;jettySize=auto;html=1;exitX=1;exitY=1;exitDx=0;exitDy=0;entryX=0;entryY=0;entryDx=0;entryDy=0;" edge="1" parent="1" source="yGgz9N2xFHgXJwQMNSEJ-415" target="yGgz9N2xFHgXJwQMNSEJ-418">
          <mxGeometry relative="1" as="geometry" />
        </mxCell>
        <mxCell id="yGgz9N2xFHgXJwQMNSEJ-415" value="15" style="rounded=0;whiteSpace=wrap;html=1;" vertex="1" parent="1">
          <mxGeometry x="575" y="3077" width="56" height="26" as="geometry" />
        </mxCell>
        <mxCell id="yGgz9N2xFHgXJwQMNSEJ-416" value="4" style="rounded=0;whiteSpace=wrap;html=1;" vertex="1" parent="1">
          <mxGeometry x="175.5" y="3165" width="56" height="26" as="geometry" />
        </mxCell>
        <mxCell id="yGgz9N2xFHgXJwQMNSEJ-417" value="18" style="rounded=0;whiteSpace=wrap;html=1;" vertex="1" parent="1">
          <mxGeometry x="645.5" y="3165" width="56" height="26" as="geometry" />
        </mxCell>
        <mxCell id="yGgz9N2xFHgXJwQMNSEJ-418" value="19" style="rounded=0;whiteSpace=wrap;html=1;" vertex="1" parent="1">
          <mxGeometry x="701.5" y="3165" width="56" height="26" as="geometry" />
        </mxCell>
        <mxCell id="yGgz9N2xFHgXJwQMNSEJ-419" value="7" style="rounded=0;whiteSpace=wrap;html=1;" vertex="1" parent="1">
          <mxGeometry x="287.5" y="3165" width="56" height="26" as="geometry" />
        </mxCell>
        <mxCell id="yGgz9N2xFHgXJwQMNSEJ-420" value="14" style="rounded=0;whiteSpace=wrap;html=1;" vertex="1" parent="1">
          <mxGeometry x="564.5" y="3165" width="56" height="26" as="geometry" />
        </mxCell>
        <mxCell id="yGgz9N2xFHgXJwQMNSEJ-421" value="13" style="rounded=0;whiteSpace=wrap;html=1;" vertex="1" parent="1">
          <mxGeometry x="508.5" y="3165" width="56" height="26" as="geometry" />
        </mxCell>
        <mxCell id="yGgz9N2xFHgXJwQMNSEJ-422" value="10" style="rounded=0;whiteSpace=wrap;html=1;" vertex="1" parent="1">
          <mxGeometry x="362" y="3165" width="56" height="26" as="geometry" />
        </mxCell>
        <mxCell id="yGgz9N2xFHgXJwQMNSEJ-423" value="1" style="rounded=0;whiteSpace=wrap;html=1;fillColor=#ffffff;" vertex="1" parent="1">
          <mxGeometry x="866" y="3165" width="56" height="26" as="geometry" />
        </mxCell>
        <mxCell id="yGgz9N2xFHgXJwQMNSEJ-424" style="edgeStyle=none;rounded=0;orthogonalLoop=1;jettySize=auto;html=1;exitX=0;exitY=1;exitDx=0;exitDy=0;entryX=0.5;entryY=0;entryDx=0;entryDy=0;" edge="1" parent="1" source="yGgz9N2xFHgXJwQMNSEJ-426" target="yGgz9N2xFHgXJwQMNSEJ-430">
          <mxGeometry relative="1" as="geometry" />
        </mxCell>
        <mxCell id="yGgz9N2xFHgXJwQMNSEJ-425" style="edgeStyle=none;rounded=0;orthogonalLoop=1;jettySize=auto;html=1;exitX=1;exitY=1;exitDx=0;exitDy=0;entryX=0;entryY=0;entryDx=0;entryDy=0;" edge="1" parent="1" source="yGgz9N2xFHgXJwQMNSEJ-426" target="yGgz9N2xFHgXJwQMNSEJ-437">
          <mxGeometry relative="1" as="geometry" />
        </mxCell>
        <mxCell id="yGgz9N2xFHgXJwQMNSEJ-426" value="9" style="rounded=0;whiteSpace=wrap;html=1;fillColor=#ffffff;" vertex="1" parent="1">
          <mxGeometry x="1122.5" y="3005" width="56" height="26" as="geometry" />
        </mxCell>
        <mxCell id="yGgz9N2xFHgXJwQMNSEJ-427" value="11" style="rounded=0;whiteSpace=wrap;html=1;" vertex="1" parent="1">
          <mxGeometry x="1199.5" y="3165" width="56" height="26" as="geometry" />
        </mxCell>
        <mxCell id="yGgz9N2xFHgXJwQMNSEJ-428" style="edgeStyle=none;rounded=0;orthogonalLoop=1;jettySize=auto;html=1;exitX=0;exitY=1;exitDx=0;exitDy=0;entryX=1;entryY=0;entryDx=0;entryDy=0;" edge="1" parent="1" source="yGgz9N2xFHgXJwQMNSEJ-430" target="yGgz9N2xFHgXJwQMNSEJ-431">
          <mxGeometry relative="1" as="geometry" />
        </mxCell>
        <mxCell id="yGgz9N2xFHgXJwQMNSEJ-429" style="edgeStyle=none;rounded=0;orthogonalLoop=1;jettySize=auto;html=1;exitX=1;exitY=1;exitDx=0;exitDy=0;entryX=0.5;entryY=0;entryDx=0;entryDy=0;" edge="1" parent="1" source="yGgz9N2xFHgXJwQMNSEJ-430" target="yGgz9N2xFHgXJwQMNSEJ-435">
          <mxGeometry relative="1" as="geometry" />
        </mxCell>
        <mxCell id="yGgz9N2xFHgXJwQMNSEJ-430" value="2" style="rounded=0;whiteSpace=wrap;html=1;fillColor=#ffffff;" vertex="1" parent="1">
          <mxGeometry x="931" y="3077" width="56" height="26" as="geometry" />
        </mxCell>
        <mxCell id="yGgz9N2xFHgXJwQMNSEJ-431" value="0" style="rounded=0;whiteSpace=wrap;html=1;" vertex="1" parent="1">
          <mxGeometry x="810" y="3165" width="56" height="26" as="geometry" />
        </mxCell>
        <mxCell id="yGgz9N2xFHgXJwQMNSEJ-432" style="edgeStyle=none;rounded=0;orthogonalLoop=1;jettySize=auto;html=1;exitX=1;exitY=1;exitDx=0;exitDy=0;entryX=0;entryY=0;entryDx=0;entryDy=0;" edge="1" parent="1" source="yGgz9N2xFHgXJwQMNSEJ-434" target="yGgz9N2xFHgXJwQMNSEJ-442">
          <mxGeometry relative="1" as="geometry" />
        </mxCell>
        <mxCell id="yGgz9N2xFHgXJwQMNSEJ-433" style="edgeStyle=none;rounded=0;orthogonalLoop=1;jettySize=auto;html=1;exitX=0;exitY=1;exitDx=0;exitDy=0;entryX=0.5;entryY=0;entryDx=0;entryDy=0;" edge="1" parent="1" source="yGgz9N2xFHgXJwQMNSEJ-434" target="yGgz9N2xFHgXJwQMNSEJ-427">
          <mxGeometry relative="1" as="geometry" />
        </mxCell>
        <mxCell id="yGgz9N2xFHgXJwQMNSEJ-434" value="12" style="rounded=0;whiteSpace=wrap;html=1;fillColor=#ffffff;" vertex="1" parent="1">
          <mxGeometry x="1300.5" y="3077" width="56" height="26" as="geometry" />
        </mxCell>
        <mxCell id="yGgz9N2xFHgXJwQMNSEJ-435" value="5" style="rounded=0;whiteSpace=wrap;html=1;" vertex="1" parent="1">
          <mxGeometry x="1013" y="3165" width="56" height="26" as="geometry" />
        </mxCell>
        <mxCell id="yGgz9N2xFHgXJwQMNSEJ-436" style="edgeStyle=none;rounded=0;orthogonalLoop=1;jettySize=auto;html=1;exitX=1;exitY=1;exitDx=0;exitDy=0;entryX=0.5;entryY=0;entryDx=0;entryDy=0;" edge="1" parent="1" source="yGgz9N2xFHgXJwQMNSEJ-437" target="yGgz9N2xFHgXJwQMNSEJ-439">
          <mxGeometry relative="1" as="geometry" />
        </mxCell>
        <mxCell id="yGgz9N2xFHgXJwQMNSEJ-437" value="15" style="rounded=0;whiteSpace=wrap;html=1;" vertex="1" parent="1">
          <mxGeometry x="1356.5" y="3077" width="56" height="26" as="geometry" />
        </mxCell>
        <mxCell id="yGgz9N2xFHgXJwQMNSEJ-438" value="4" style="rounded=0;whiteSpace=wrap;html=1;" vertex="1" parent="1">
          <mxGeometry x="957" y="3165" width="56" height="26" as="geometry" />
        </mxCell>
        <mxCell id="yGgz9N2xFHgXJwQMNSEJ-439" value="18" style="rounded=0;whiteSpace=wrap;html=1;" vertex="1" parent="1">
          <mxGeometry x="1478" y="3165" width="56" height="26" as="geometry" />
        </mxCell>
        <mxCell id="yGgz9N2xFHgXJwQMNSEJ-440" value="19" style="rounded=0;whiteSpace=wrap;html=1;" vertex="1" parent="1">
          <mxGeometry x="1534" y="3165" width="56" height="26" as="geometry" />
        </mxCell>
        <mxCell id="yGgz9N2xFHgXJwQMNSEJ-441" value="7" style="rounded=0;whiteSpace=wrap;html=1;" vertex="1" parent="1">
          <mxGeometry x="1069" y="3165" width="56" height="26" as="geometry" />
        </mxCell>
        <mxCell id="yGgz9N2xFHgXJwQMNSEJ-442" value="14" style="rounded=0;whiteSpace=wrap;html=1;" vertex="1" parent="1">
          <mxGeometry x="1346" y="3165" width="56" height="26" as="geometry" />
        </mxCell>
        <mxCell id="yGgz9N2xFHgXJwQMNSEJ-443" value="13" style="rounded=0;whiteSpace=wrap;html=1;" vertex="1" parent="1">
          <mxGeometry x="1290" y="3165" width="56" height="26" as="geometry" />
        </mxCell>
        <mxCell id="yGgz9N2xFHgXJwQMNSEJ-444" value="10" style="rounded=0;whiteSpace=wrap;html=1;" vertex="1" parent="1">
          <mxGeometry x="1143.5" y="3165" width="56" height="26" as="geometry" />
        </mxCell>
        <mxCell id="yGgz9N2xFHgXJwQMNSEJ-445" value="16" style="rounded=0;whiteSpace=wrap;html=1;fillColor=#f8cecc;strokeColor=#b85450;" vertex="1" parent="1">
          <mxGeometry x="1422" y="3165" width="56" height="26" as="geometry" />
        </mxCell>
        <mxCell id="yGgz9N2xFHgXJwQMNSEJ-446" value="1" style="rounded=0;whiteSpace=wrap;html=1;fillColor=#ffffff;" vertex="1" parent="1">
          <mxGeometry x="99.25" y="3520" width="56" height="26" as="geometry" />
        </mxCell>
        <mxCell id="yGgz9N2xFHgXJwQMNSEJ-447" style="edgeStyle=none;rounded=0;orthogonalLoop=1;jettySize=auto;html=1;exitX=0;exitY=1;exitDx=0;exitDy=0;entryX=0.5;entryY=0;entryDx=0;entryDy=0;" edge="1" parent="1" source="yGgz9N2xFHgXJwQMNSEJ-449" target="yGgz9N2xFHgXJwQMNSEJ-453">
          <mxGeometry relative="1" as="geometry" />
        </mxCell>
        <mxCell id="yGgz9N2xFHgXJwQMNSEJ-448" style="edgeStyle=none;rounded=0;orthogonalLoop=1;jettySize=auto;html=1;exitX=1;exitY=1;exitDx=0;exitDy=0;entryX=0;entryY=0;entryDx=0;entryDy=0;" edge="1" parent="1" source="yGgz9N2xFHgXJwQMNSEJ-449" target="yGgz9N2xFHgXJwQMNSEJ-460">
          <mxGeometry relative="1" as="geometry" />
        </mxCell>
        <mxCell id="yGgz9N2xFHgXJwQMNSEJ-449" value="9" style="rounded=0;whiteSpace=wrap;html=1;fillColor=#ffffff;" vertex="1" parent="1">
          <mxGeometry x="355.75" y="3360" width="56" height="26" as="geometry" />
        </mxCell>
        <mxCell id="yGgz9N2xFHgXJwQMNSEJ-450" value="11" style="rounded=0;whiteSpace=wrap;html=1;" vertex="1" parent="1">
          <mxGeometry x="432.75" y="3520" width="56" height="26" as="geometry" />
        </mxCell>
        <mxCell id="yGgz9N2xFHgXJwQMNSEJ-451" style="edgeStyle=none;rounded=0;orthogonalLoop=1;jettySize=auto;html=1;exitX=0;exitY=1;exitDx=0;exitDy=0;entryX=1;entryY=0;entryDx=0;entryDy=0;" edge="1" parent="1" source="yGgz9N2xFHgXJwQMNSEJ-453" target="yGgz9N2xFHgXJwQMNSEJ-454">
          <mxGeometry relative="1" as="geometry" />
        </mxCell>
        <mxCell id="yGgz9N2xFHgXJwQMNSEJ-452" style="edgeStyle=none;rounded=0;orthogonalLoop=1;jettySize=auto;html=1;exitX=1;exitY=1;exitDx=0;exitDy=0;entryX=0.5;entryY=0;entryDx=0;entryDy=0;" edge="1" parent="1" source="yGgz9N2xFHgXJwQMNSEJ-453" target="yGgz9N2xFHgXJwQMNSEJ-458">
          <mxGeometry relative="1" as="geometry" />
        </mxCell>
        <mxCell id="yGgz9N2xFHgXJwQMNSEJ-453" value="2" style="rounded=0;whiteSpace=wrap;html=1;fillColor=#ffffff;" vertex="1" parent="1">
          <mxGeometry x="164.25" y="3432" width="56" height="26" as="geometry" />
        </mxCell>
        <mxCell id="yGgz9N2xFHgXJwQMNSEJ-454" value="0" style="rounded=0;whiteSpace=wrap;html=1;" vertex="1" parent="1">
          <mxGeometry x="43.25" y="3520" width="56" height="26" as="geometry" />
        </mxCell>
        <mxCell id="yGgz9N2xFHgXJwQMNSEJ-455" style="edgeStyle=none;rounded=0;orthogonalLoop=1;jettySize=auto;html=1;exitX=1;exitY=1;exitDx=0;exitDy=0;entryX=0;entryY=0;entryDx=0;entryDy=0;" edge="1" parent="1" source="yGgz9N2xFHgXJwQMNSEJ-457" target="yGgz9N2xFHgXJwQMNSEJ-465">
          <mxGeometry relative="1" as="geometry" />
        </mxCell>
        <mxCell id="yGgz9N2xFHgXJwQMNSEJ-456" style="edgeStyle=none;rounded=0;orthogonalLoop=1;jettySize=auto;html=1;exitX=0;exitY=1;exitDx=0;exitDy=0;entryX=0.5;entryY=0;entryDx=0;entryDy=0;" edge="1" parent="1" source="yGgz9N2xFHgXJwQMNSEJ-457" target="yGgz9N2xFHgXJwQMNSEJ-450">
          <mxGeometry relative="1" as="geometry" />
        </mxCell>
        <mxCell id="yGgz9N2xFHgXJwQMNSEJ-457" value="12" style="rounded=0;whiteSpace=wrap;html=1;fillColor=#ffffff;" vertex="1" parent="1">
          <mxGeometry x="533.75" y="3432" width="56" height="26" as="geometry" />
        </mxCell>
        <mxCell id="yGgz9N2xFHgXJwQMNSEJ-458" value="5" style="rounded=0;whiteSpace=wrap;html=1;" vertex="1" parent="1">
          <mxGeometry x="246.25" y="3520" width="56" height="26" as="geometry" />
        </mxCell>
        <mxCell id="yGgz9N2xFHgXJwQMNSEJ-459" style="edgeStyle=none;rounded=0;orthogonalLoop=1;jettySize=auto;html=1;exitX=1;exitY=1;exitDx=0;exitDy=0;entryX=0.5;entryY=0;entryDx=0;entryDy=0;" edge="1" parent="1" source="yGgz9N2xFHgXJwQMNSEJ-460" target="yGgz9N2xFHgXJwQMNSEJ-462">
          <mxGeometry relative="1" as="geometry" />
        </mxCell>
        <mxCell id="yGgz9N2xFHgXJwQMNSEJ-460" value="15" style="rounded=0;whiteSpace=wrap;html=1;" vertex="1" parent="1">
          <mxGeometry x="589.75" y="3432" width="56" height="26" as="geometry" />
        </mxCell>
        <mxCell id="yGgz9N2xFHgXJwQMNSEJ-461" value="4" style="rounded=0;whiteSpace=wrap;html=1;" vertex="1" parent="1">
          <mxGeometry x="190.25" y="3520" width="56" height="26" as="geometry" />
        </mxCell>
        <mxCell id="yGgz9N2xFHgXJwQMNSEJ-462" value="18" style="rounded=0;whiteSpace=wrap;html=1;" vertex="1" parent="1">
          <mxGeometry x="711.25" y="3520" width="56" height="26" as="geometry" />
        </mxCell>
        <mxCell id="yGgz9N2xFHgXJwQMNSEJ-463" value="19" style="rounded=0;whiteSpace=wrap;html=1;" vertex="1" parent="1">
          <mxGeometry x="767.25" y="3520" width="56" height="26" as="geometry" />
        </mxCell>
        <mxCell id="yGgz9N2xFHgXJwQMNSEJ-464" value="7" style="rounded=0;whiteSpace=wrap;html=1;" vertex="1" parent="1">
          <mxGeometry x="302.25" y="3520" width="56" height="26" as="geometry" />
        </mxCell>
        <mxCell id="yGgz9N2xFHgXJwQMNSEJ-465" value="14" style="rounded=0;whiteSpace=wrap;html=1;" vertex="1" parent="1">
          <mxGeometry x="579.25" y="3520" width="56" height="26" as="geometry" />
        </mxCell>
        <mxCell id="yGgz9N2xFHgXJwQMNSEJ-466" value="13" style="rounded=0;whiteSpace=wrap;html=1;" vertex="1" parent="1">
          <mxGeometry x="523.25" y="3520" width="56" height="26" as="geometry" />
        </mxCell>
        <mxCell id="yGgz9N2xFHgXJwQMNSEJ-467" value="10" style="rounded=0;whiteSpace=wrap;html=1;" vertex="1" parent="1">
          <mxGeometry x="376.75" y="3520" width="56" height="26" as="geometry" />
        </mxCell>
        <mxCell id="yGgz9N2xFHgXJwQMNSEJ-468" value="16" style="rounded=0;whiteSpace=wrap;html=1;" vertex="1" parent="1">
          <mxGeometry x="655.25" y="3520" width="56" height="26" as="geometry" />
        </mxCell>
        <mxCell id="yGgz9N2xFHgXJwQMNSEJ-469" value="1" style="rounded=0;whiteSpace=wrap;html=1;fillColor=#ffffff;" vertex="1" parent="1">
          <mxGeometry x="924" y="3520" width="56" height="26" as="geometry" />
        </mxCell>
        <mxCell id="yGgz9N2xFHgXJwQMNSEJ-470" style="edgeStyle=none;rounded=0;orthogonalLoop=1;jettySize=auto;html=1;exitX=0;exitY=1;exitDx=0;exitDy=0;" edge="1" parent="1" source="yGgz9N2xFHgXJwQMNSEJ-472" target="yGgz9N2xFHgXJwQMNSEJ-476">
          <mxGeometry relative="1" as="geometry" />
        </mxCell>
        <mxCell id="yGgz9N2xFHgXJwQMNSEJ-471" style="edgeStyle=none;rounded=0;orthogonalLoop=1;jettySize=auto;html=1;exitX=1;exitY=1;exitDx=0;exitDy=0;entryX=0;entryY=0;entryDx=0;entryDy=0;" edge="1" parent="1" source="yGgz9N2xFHgXJwQMNSEJ-472" target="yGgz9N2xFHgXJwQMNSEJ-483">
          <mxGeometry relative="1" as="geometry" />
        </mxCell>
        <mxCell id="yGgz9N2xFHgXJwQMNSEJ-472" value="9" style="rounded=0;whiteSpace=wrap;html=1;fillColor=#ffffff;" vertex="1" parent="1">
          <mxGeometry x="1218.5" y="3360" width="56" height="26" as="geometry" />
        </mxCell>
        <mxCell id="yGgz9N2xFHgXJwQMNSEJ-473" value="11" style="rounded=0;whiteSpace=wrap;html=1;" vertex="1" parent="1">
          <mxGeometry x="1295.5" y="3520" width="56" height="26" as="geometry" />
        </mxCell>
        <mxCell id="yGgz9N2xFHgXJwQMNSEJ-474" style="edgeStyle=none;rounded=0;orthogonalLoop=1;jettySize=auto;html=1;exitX=0;exitY=1;exitDx=0;exitDy=0;entryX=1;entryY=0;entryDx=0;entryDy=0;" edge="1" parent="1" source="yGgz9N2xFHgXJwQMNSEJ-476" target="yGgz9N2xFHgXJwQMNSEJ-477">
          <mxGeometry relative="1" as="geometry" />
        </mxCell>
        <mxCell id="yGgz9N2xFHgXJwQMNSEJ-493" style="edgeStyle=none;rounded=0;orthogonalLoop=1;jettySize=auto;html=1;exitX=1;exitY=1;exitDx=0;exitDy=0;entryX=0;entryY=0;entryDx=0;entryDy=0;" edge="1" parent="1" source="yGgz9N2xFHgXJwQMNSEJ-476" target="yGgz9N2xFHgXJwQMNSEJ-481">
          <mxGeometry relative="1" as="geometry" />
        </mxCell>
        <mxCell id="yGgz9N2xFHgXJwQMNSEJ-476" value="2" style="rounded=0;whiteSpace=wrap;html=1;fillColor=#ffffff;" vertex="1" parent="1">
          <mxGeometry x="989" y="3432" width="56" height="26" as="geometry" />
        </mxCell>
        <mxCell id="yGgz9N2xFHgXJwQMNSEJ-477" value="0" style="rounded=0;whiteSpace=wrap;html=1;" vertex="1" parent="1">
          <mxGeometry x="868" y="3520" width="56" height="26" as="geometry" />
        </mxCell>
        <mxCell id="yGgz9N2xFHgXJwQMNSEJ-478" style="edgeStyle=none;rounded=0;orthogonalLoop=1;jettySize=auto;html=1;exitX=1;exitY=1;exitDx=0;exitDy=0;entryX=0;entryY=0;entryDx=0;entryDy=0;" edge="1" parent="1" source="yGgz9N2xFHgXJwQMNSEJ-480" target="yGgz9N2xFHgXJwQMNSEJ-488">
          <mxGeometry relative="1" as="geometry" />
        </mxCell>
        <mxCell id="yGgz9N2xFHgXJwQMNSEJ-479" style="edgeStyle=none;rounded=0;orthogonalLoop=1;jettySize=auto;html=1;exitX=0;exitY=1;exitDx=0;exitDy=0;entryX=0.5;entryY=0;entryDx=0;entryDy=0;" edge="1" parent="1" source="yGgz9N2xFHgXJwQMNSEJ-480" target="yGgz9N2xFHgXJwQMNSEJ-473">
          <mxGeometry relative="1" as="geometry" />
        </mxCell>
        <mxCell id="yGgz9N2xFHgXJwQMNSEJ-480" value="12" style="rounded=0;whiteSpace=wrap;html=1;fillColor=#ffffff;" vertex="1" parent="1">
          <mxGeometry x="1396.5" y="3432" width="56" height="26" as="geometry" />
        </mxCell>
        <mxCell id="yGgz9N2xFHgXJwQMNSEJ-481" value="6" style="rounded=0;whiteSpace=wrap;html=1;fillColor=#f8cecc;strokeColor=#b85450;" vertex="1" parent="1">
          <mxGeometry x="1110.5" y="3520" width="56" height="26" as="geometry" />
        </mxCell>
        <mxCell id="yGgz9N2xFHgXJwQMNSEJ-482" style="edgeStyle=none;rounded=0;orthogonalLoop=1;jettySize=auto;html=1;exitX=1;exitY=1;exitDx=0;exitDy=0;entryX=0.5;entryY=0;entryDx=0;entryDy=0;" edge="1" parent="1" source="yGgz9N2xFHgXJwQMNSEJ-483" target="yGgz9N2xFHgXJwQMNSEJ-485">
          <mxGeometry relative="1" as="geometry" />
        </mxCell>
        <mxCell id="yGgz9N2xFHgXJwQMNSEJ-483" value="15" style="rounded=0;whiteSpace=wrap;html=1;" vertex="1" parent="1">
          <mxGeometry x="1452.5" y="3432" width="56" height="26" as="geometry" />
        </mxCell>
        <mxCell id="yGgz9N2xFHgXJwQMNSEJ-484" value="4" style="rounded=0;whiteSpace=wrap;html=1;" vertex="1" parent="1">
          <mxGeometry x="1000.5" y="3520" width="56" height="26" as="geometry" />
        </mxCell>
        <mxCell id="yGgz9N2xFHgXJwQMNSEJ-485" value="18" style="rounded=0;whiteSpace=wrap;html=1;" vertex="1" parent="1">
          <mxGeometry x="1574" y="3520" width="56" height="26" as="geometry" />
        </mxCell>
        <mxCell id="yGgz9N2xFHgXJwQMNSEJ-486" value="19" style="rounded=0;whiteSpace=wrap;html=1;" vertex="1" parent="1">
          <mxGeometry x="1630" y="3520" width="56" height="26" as="geometry" />
        </mxCell>
        <mxCell id="yGgz9N2xFHgXJwQMNSEJ-487" value="7" style="rounded=0;whiteSpace=wrap;html=1;" vertex="1" parent="1">
          <mxGeometry x="1166.5" y="3520" width="56" height="26" as="geometry" />
        </mxCell>
        <mxCell id="yGgz9N2xFHgXJwQMNSEJ-488" value="14" style="rounded=0;whiteSpace=wrap;html=1;" vertex="1" parent="1">
          <mxGeometry x="1442" y="3520" width="56" height="26" as="geometry" />
        </mxCell>
        <mxCell id="yGgz9N2xFHgXJwQMNSEJ-489" value="13" style="rounded=0;whiteSpace=wrap;html=1;" vertex="1" parent="1">
          <mxGeometry x="1386" y="3520" width="56" height="26" as="geometry" />
        </mxCell>
        <mxCell id="yGgz9N2xFHgXJwQMNSEJ-490" value="10" style="rounded=0;whiteSpace=wrap;html=1;" vertex="1" parent="1">
          <mxGeometry x="1239.5" y="3520" width="56" height="26" as="geometry" />
        </mxCell>
        <mxCell id="yGgz9N2xFHgXJwQMNSEJ-491" value="16" style="rounded=0;whiteSpace=wrap;html=1;" vertex="1" parent="1">
          <mxGeometry x="1518" y="3520" width="56" height="26" as="geometry" />
        </mxCell>
        <mxCell id="yGgz9N2xFHgXJwQMNSEJ-492" value="5" style="rounded=0;whiteSpace=wrap;html=1;" vertex="1" parent="1">
          <mxGeometry x="1054.5" y="3520" width="56" height="26" as="geometry" />
        </mxCell>
        <mxCell id="yGgz9N2xFHgXJwQMNSEJ-494" value="1" style="rounded=0;whiteSpace=wrap;html=1;fillColor=#ffffff;" vertex="1" parent="1">
          <mxGeometry x="1827" y="3523" width="56" height="26" as="geometry" />
        </mxCell>
        <mxCell id="yGgz9N2xFHgXJwQMNSEJ-495" style="edgeStyle=none;rounded=0;orthogonalLoop=1;jettySize=auto;html=1;exitX=0;exitY=1;exitDx=0;exitDy=0;entryX=0;entryY=0;entryDx=0;entryDy=0;" edge="1" parent="1" source="yGgz9N2xFHgXJwQMNSEJ-497" target="yGgz9N2xFHgXJwQMNSEJ-517">
          <mxGeometry relative="1" as="geometry" />
        </mxCell>
        <mxCell id="yGgz9N2xFHgXJwQMNSEJ-496" style="edgeStyle=none;rounded=0;orthogonalLoop=1;jettySize=auto;html=1;exitX=1;exitY=1;exitDx=0;exitDy=0;entryX=0;entryY=0;entryDx=0;entryDy=0;" edge="1" parent="1" source="yGgz9N2xFHgXJwQMNSEJ-497" target="yGgz9N2xFHgXJwQMNSEJ-508">
          <mxGeometry relative="1" as="geometry" />
        </mxCell>
        <mxCell id="yGgz9N2xFHgXJwQMNSEJ-497" value="9" style="rounded=0;whiteSpace=wrap;html=1;fillColor=#ffffff;" vertex="1" parent="1">
          <mxGeometry x="2121.5" y="3363" width="56" height="26" as="geometry" />
        </mxCell>
        <mxCell id="yGgz9N2xFHgXJwQMNSEJ-498" value="11" style="rounded=0;whiteSpace=wrap;html=1;" vertex="1" parent="1">
          <mxGeometry x="2198.5" y="3523" width="56" height="26" as="geometry" />
        </mxCell>
        <mxCell id="yGgz9N2xFHgXJwQMNSEJ-499" style="edgeStyle=none;rounded=0;orthogonalLoop=1;jettySize=auto;html=1;exitX=0;exitY=1;exitDx=0;exitDy=0;entryX=1;entryY=0;entryDx=0;entryDy=0;" edge="1" parent="1" source="yGgz9N2xFHgXJwQMNSEJ-501" target="yGgz9N2xFHgXJwQMNSEJ-502">
          <mxGeometry relative="1" as="geometry" />
        </mxCell>
        <mxCell id="yGgz9N2xFHgXJwQMNSEJ-501" value="2" style="rounded=0;whiteSpace=wrap;html=1;fillColor=#ffffff;" vertex="1" parent="1">
          <mxGeometry x="1892" y="3435" width="56" height="26" as="geometry" />
        </mxCell>
        <mxCell id="yGgz9N2xFHgXJwQMNSEJ-502" value="0" style="rounded=0;whiteSpace=wrap;html=1;" vertex="1" parent="1">
          <mxGeometry x="1771" y="3523" width="56" height="26" as="geometry" />
        </mxCell>
        <mxCell id="yGgz9N2xFHgXJwQMNSEJ-503" style="edgeStyle=none;rounded=0;orthogonalLoop=1;jettySize=auto;html=1;exitX=1;exitY=1;exitDx=0;exitDy=0;entryX=0;entryY=0;entryDx=0;entryDy=0;" edge="1" parent="1" source="yGgz9N2xFHgXJwQMNSEJ-505" target="yGgz9N2xFHgXJwQMNSEJ-513">
          <mxGeometry relative="1" as="geometry" />
        </mxCell>
        <mxCell id="yGgz9N2xFHgXJwQMNSEJ-504" style="edgeStyle=none;rounded=0;orthogonalLoop=1;jettySize=auto;html=1;exitX=0;exitY=1;exitDx=0;exitDy=0;entryX=0.5;entryY=0;entryDx=0;entryDy=0;" edge="1" parent="1" source="yGgz9N2xFHgXJwQMNSEJ-505" target="yGgz9N2xFHgXJwQMNSEJ-498">
          <mxGeometry relative="1" as="geometry" />
        </mxCell>
        <mxCell id="yGgz9N2xFHgXJwQMNSEJ-505" value="12" style="rounded=0;whiteSpace=wrap;html=1;fillColor=#ffffff;" vertex="1" parent="1">
          <mxGeometry x="2299.5" y="3435" width="56" height="26" as="geometry" />
        </mxCell>
        <mxCell id="yGgz9N2xFHgXJwQMNSEJ-506" value="6" style="rounded=0;whiteSpace=wrap;html=1;" vertex="1" parent="1">
          <mxGeometry x="2013.5" y="3523" width="56" height="26" as="geometry" />
        </mxCell>
        <mxCell id="yGgz9N2xFHgXJwQMNSEJ-507" style="edgeStyle=none;rounded=0;orthogonalLoop=1;jettySize=auto;html=1;exitX=1;exitY=1;exitDx=0;exitDy=0;entryX=0.5;entryY=0;entryDx=0;entryDy=0;" edge="1" parent="1" source="yGgz9N2xFHgXJwQMNSEJ-508" target="yGgz9N2xFHgXJwQMNSEJ-510">
          <mxGeometry relative="1" as="geometry" />
        </mxCell>
        <mxCell id="yGgz9N2xFHgXJwQMNSEJ-508" value="15" style="rounded=0;whiteSpace=wrap;html=1;" vertex="1" parent="1">
          <mxGeometry x="2355.5" y="3435" width="56" height="26" as="geometry" />
        </mxCell>
        <mxCell id="yGgz9N2xFHgXJwQMNSEJ-509" value="4" style="rounded=0;whiteSpace=wrap;html=1;" vertex="1" parent="1">
          <mxGeometry x="1903.5" y="3523" width="56" height="26" as="geometry" />
        </mxCell>
        <mxCell id="yGgz9N2xFHgXJwQMNSEJ-510" value="18" style="rounded=0;whiteSpace=wrap;html=1;" vertex="1" parent="1">
          <mxGeometry x="2477" y="3523" width="56" height="26" as="geometry" />
        </mxCell>
        <mxCell id="yGgz9N2xFHgXJwQMNSEJ-511" value="19" style="rounded=0;whiteSpace=wrap;html=1;" vertex="1" parent="1">
          <mxGeometry x="2533" y="3523" width="56" height="26" as="geometry" />
        </mxCell>
        <mxCell id="yGgz9N2xFHgXJwQMNSEJ-512" value="7" style="rounded=0;whiteSpace=wrap;html=1;" vertex="1" parent="1">
          <mxGeometry x="2069.5" y="3523" width="56" height="26" as="geometry" />
        </mxCell>
        <mxCell id="yGgz9N2xFHgXJwQMNSEJ-513" value="14" style="rounded=0;whiteSpace=wrap;html=1;" vertex="1" parent="1">
          <mxGeometry x="2345" y="3523" width="56" height="26" as="geometry" />
        </mxCell>
        <mxCell id="yGgz9N2xFHgXJwQMNSEJ-514" value="13" style="rounded=0;whiteSpace=wrap;html=1;" vertex="1" parent="1">
          <mxGeometry x="2289" y="3523" width="56" height="26" as="geometry" />
        </mxCell>
        <mxCell id="yGgz9N2xFHgXJwQMNSEJ-515" value="10" style="rounded=0;whiteSpace=wrap;html=1;" vertex="1" parent="1">
          <mxGeometry x="2142.5" y="3523" width="56" height="26" as="geometry" />
        </mxCell>
        <mxCell id="yGgz9N2xFHgXJwQMNSEJ-516" value="16" style="rounded=0;whiteSpace=wrap;html=1;" vertex="1" parent="1">
          <mxGeometry x="2421" y="3523" width="56" height="26" as="geometry" />
        </mxCell>
        <mxCell id="yGgz9N2xFHgXJwQMNSEJ-518" style="edgeStyle=none;rounded=0;orthogonalLoop=1;jettySize=auto;html=1;exitX=0;exitY=0.75;exitDx=0;exitDy=0;entryX=0.5;entryY=0;entryDx=0;entryDy=0;" edge="1" parent="1" source="yGgz9N2xFHgXJwQMNSEJ-517" target="yGgz9N2xFHgXJwQMNSEJ-509">
          <mxGeometry relative="1" as="geometry" />
        </mxCell>
        <mxCell id="yGgz9N2xFHgXJwQMNSEJ-519" style="edgeStyle=none;rounded=0;orthogonalLoop=1;jettySize=auto;html=1;exitX=1;exitY=1;exitDx=0;exitDy=0;entryX=0;entryY=0;entryDx=0;entryDy=0;" edge="1" parent="1" source="yGgz9N2xFHgXJwQMNSEJ-517" target="yGgz9N2xFHgXJwQMNSEJ-512">
          <mxGeometry relative="1" as="geometry" />
        </mxCell>
        <mxCell id="yGgz9N2xFHgXJwQMNSEJ-517" value="5" style="rounded=0;whiteSpace=wrap;html=1;" vertex="1" parent="1">
          <mxGeometry x="1948" y="3435" width="56" height="26" as="geometry" />
        </mxCell>
        <mxCell id="yGgz9N2xFHgXJwQMNSEJ-520" value="1" style="rounded=0;whiteSpace=wrap;html=1;fillColor=#ffffff;" vertex="1" parent="1">
          <mxGeometry x="95" y="3817" width="56" height="26" as="geometry" />
        </mxCell>
        <mxCell id="yGgz9N2xFHgXJwQMNSEJ-521" style="edgeStyle=none;rounded=0;orthogonalLoop=1;jettySize=auto;html=1;exitX=0;exitY=1;exitDx=0;exitDy=0;entryX=0;entryY=0;entryDx=0;entryDy=0;" edge="1" parent="1" source="yGgz9N2xFHgXJwQMNSEJ-523" target="yGgz9N2xFHgXJwQMNSEJ-544">
          <mxGeometry relative="1" as="geometry" />
        </mxCell>
        <mxCell id="yGgz9N2xFHgXJwQMNSEJ-522" style="edgeStyle=none;rounded=0;orthogonalLoop=1;jettySize=auto;html=1;exitX=1;exitY=1;exitDx=0;exitDy=0;entryX=0;entryY=0;entryDx=0;entryDy=0;" edge="1" parent="1" source="yGgz9N2xFHgXJwQMNSEJ-523" target="yGgz9N2xFHgXJwQMNSEJ-533">
          <mxGeometry relative="1" as="geometry" />
        </mxCell>
        <mxCell id="yGgz9N2xFHgXJwQMNSEJ-523" value="9" style="rounded=0;whiteSpace=wrap;html=1;fillColor=#ffffff;" vertex="1" parent="1">
          <mxGeometry x="389.5" y="3657" width="56" height="26" as="geometry" />
        </mxCell>
        <mxCell id="yGgz9N2xFHgXJwQMNSEJ-524" value="11" style="rounded=0;whiteSpace=wrap;html=1;" vertex="1" parent="1">
          <mxGeometry x="466.5" y="3817" width="56" height="26" as="geometry" />
        </mxCell>
        <mxCell id="yGgz9N2xFHgXJwQMNSEJ-525" style="edgeStyle=none;rounded=0;orthogonalLoop=1;jettySize=auto;html=1;exitX=0;exitY=1;exitDx=0;exitDy=0;entryX=1;entryY=0;entryDx=0;entryDy=0;" edge="1" parent="1" source="yGgz9N2xFHgXJwQMNSEJ-526" target="yGgz9N2xFHgXJwQMNSEJ-527">
          <mxGeometry relative="1" as="geometry" />
        </mxCell>
        <mxCell id="yGgz9N2xFHgXJwQMNSEJ-526" value="2" style="rounded=0;whiteSpace=wrap;html=1;fillColor=#ffffff;" vertex="1" parent="1">
          <mxGeometry x="160" y="3729" width="56" height="26" as="geometry" />
        </mxCell>
        <mxCell id="yGgz9N2xFHgXJwQMNSEJ-527" value="0" style="rounded=0;whiteSpace=wrap;html=1;" vertex="1" parent="1">
          <mxGeometry x="39" y="3817" width="56" height="26" as="geometry" />
        </mxCell>
        <mxCell id="yGgz9N2xFHgXJwQMNSEJ-528" style="edgeStyle=none;rounded=0;orthogonalLoop=1;jettySize=auto;html=1;exitX=1;exitY=1;exitDx=0;exitDy=0;entryX=0;entryY=0;entryDx=0;entryDy=0;" edge="1" parent="1" source="yGgz9N2xFHgXJwQMNSEJ-530" target="yGgz9N2xFHgXJwQMNSEJ-538">
          <mxGeometry relative="1" as="geometry" />
        </mxCell>
        <mxCell id="yGgz9N2xFHgXJwQMNSEJ-529" style="edgeStyle=none;rounded=0;orthogonalLoop=1;jettySize=auto;html=1;exitX=0;exitY=1;exitDx=0;exitDy=0;entryX=0.5;entryY=0;entryDx=0;entryDy=0;" edge="1" parent="1" source="yGgz9N2xFHgXJwQMNSEJ-530" target="yGgz9N2xFHgXJwQMNSEJ-524">
          <mxGeometry relative="1" as="geometry" />
        </mxCell>
        <mxCell id="yGgz9N2xFHgXJwQMNSEJ-530" value="12" style="rounded=0;whiteSpace=wrap;html=1;fillColor=#ffffff;" vertex="1" parent="1">
          <mxGeometry x="567.5" y="3729" width="56" height="26" as="geometry" />
        </mxCell>
        <mxCell id="yGgz9N2xFHgXJwQMNSEJ-531" value="6" style="rounded=0;whiteSpace=wrap;html=1;" vertex="1" parent="1">
          <mxGeometry x="281.5" y="3817" width="56" height="26" as="geometry" />
        </mxCell>
        <mxCell id="yGgz9N2xFHgXJwQMNSEJ-532" style="edgeStyle=none;rounded=0;orthogonalLoop=1;jettySize=auto;html=1;exitX=1;exitY=1;exitDx=0;exitDy=0;entryX=0.5;entryY=0;entryDx=0;entryDy=0;" edge="1" parent="1" source="yGgz9N2xFHgXJwQMNSEJ-533" target="yGgz9N2xFHgXJwQMNSEJ-535">
          <mxGeometry relative="1" as="geometry" />
        </mxCell>
        <mxCell id="yGgz9N2xFHgXJwQMNSEJ-533" value="15" style="rounded=0;whiteSpace=wrap;html=1;" vertex="1" parent="1">
          <mxGeometry x="623.5" y="3729" width="56" height="26" as="geometry" />
        </mxCell>
        <mxCell id="yGgz9N2xFHgXJwQMNSEJ-534" value="4" style="rounded=0;whiteSpace=wrap;html=1;" vertex="1" parent="1">
          <mxGeometry x="189" y="3817" width="56" height="26" as="geometry" />
        </mxCell>
        <mxCell id="yGgz9N2xFHgXJwQMNSEJ-535" value="18" style="rounded=0;whiteSpace=wrap;html=1;" vertex="1" parent="1">
          <mxGeometry x="745" y="3817" width="56" height="26" as="geometry" />
        </mxCell>
        <mxCell id="yGgz9N2xFHgXJwQMNSEJ-536" value="19" style="rounded=0;whiteSpace=wrap;html=1;" vertex="1" parent="1">
          <mxGeometry x="801" y="3817" width="56" height="26" as="geometry" />
        </mxCell>
        <mxCell id="yGgz9N2xFHgXJwQMNSEJ-537" value="7" style="rounded=0;whiteSpace=wrap;html=1;" vertex="1" parent="1">
          <mxGeometry x="337.5" y="3817" width="56" height="26" as="geometry" />
        </mxCell>
        <mxCell id="yGgz9N2xFHgXJwQMNSEJ-538" value="14" style="rounded=0;whiteSpace=wrap;html=1;" vertex="1" parent="1">
          <mxGeometry x="613" y="3817" width="56" height="26" as="geometry" />
        </mxCell>
        <mxCell id="yGgz9N2xFHgXJwQMNSEJ-539" value="13" style="rounded=0;whiteSpace=wrap;html=1;" vertex="1" parent="1">
          <mxGeometry x="557" y="3817" width="56" height="26" as="geometry" />
        </mxCell>
        <mxCell id="yGgz9N2xFHgXJwQMNSEJ-540" value="10" style="rounded=0;whiteSpace=wrap;html=1;" vertex="1" parent="1">
          <mxGeometry x="410.5" y="3817" width="56" height="26" as="geometry" />
        </mxCell>
        <mxCell id="yGgz9N2xFHgXJwQMNSEJ-541" value="16" style="rounded=0;whiteSpace=wrap;html=1;" vertex="1" parent="1">
          <mxGeometry x="689" y="3817" width="56" height="26" as="geometry" />
        </mxCell>
        <mxCell id="yGgz9N2xFHgXJwQMNSEJ-542" style="edgeStyle=none;rounded=0;orthogonalLoop=1;jettySize=auto;html=1;exitX=0;exitY=0.75;exitDx=0;exitDy=0;entryX=0.5;entryY=0;entryDx=0;entryDy=0;" edge="1" parent="1" source="yGgz9N2xFHgXJwQMNSEJ-544" target="yGgz9N2xFHgXJwQMNSEJ-534">
          <mxGeometry relative="1" as="geometry" />
        </mxCell>
        <mxCell id="yGgz9N2xFHgXJwQMNSEJ-543" style="edgeStyle=none;rounded=0;orthogonalLoop=1;jettySize=auto;html=1;exitX=1;exitY=1;exitDx=0;exitDy=0;entryX=0;entryY=0;entryDx=0;entryDy=0;" edge="1" parent="1" source="yGgz9N2xFHgXJwQMNSEJ-544" target="yGgz9N2xFHgXJwQMNSEJ-537">
          <mxGeometry relative="1" as="geometry" />
        </mxCell>
        <mxCell id="yGgz9N2xFHgXJwQMNSEJ-544" value="5" style="rounded=0;whiteSpace=wrap;html=1;" vertex="1" parent="1">
          <mxGeometry x="216" y="3729" width="56" height="26" as="geometry" />
        </mxCell>
        <mxCell id="yGgz9N2xFHgXJwQMNSEJ-545" value="1" style="rounded=0;whiteSpace=wrap;html=1;fillColor=#ffffff;" vertex="1" parent="1">
          <mxGeometry x="956" y="3817" width="56" height="26" as="geometry" />
        </mxCell>
        <mxCell id="yGgz9N2xFHgXJwQMNSEJ-546" style="edgeStyle=none;rounded=0;orthogonalLoop=1;jettySize=auto;html=1;exitX=0;exitY=1;exitDx=0;exitDy=0;entryX=0;entryY=0;entryDx=0;entryDy=0;" edge="1" parent="1" source="yGgz9N2xFHgXJwQMNSEJ-548" target="yGgz9N2xFHgXJwQMNSEJ-569">
          <mxGeometry relative="1" as="geometry" />
        </mxCell>
        <mxCell id="yGgz9N2xFHgXJwQMNSEJ-547" style="edgeStyle=none;rounded=0;orthogonalLoop=1;jettySize=auto;html=1;exitX=1;exitY=1;exitDx=0;exitDy=0;entryX=0;entryY=0;entryDx=0;entryDy=0;" edge="1" parent="1" source="yGgz9N2xFHgXJwQMNSEJ-548" target="yGgz9N2xFHgXJwQMNSEJ-558">
          <mxGeometry relative="1" as="geometry" />
        </mxCell>
        <mxCell id="yGgz9N2xFHgXJwQMNSEJ-548" value="9" style="rounded=0;whiteSpace=wrap;html=1;fillColor=#ffffff;" vertex="1" parent="1">
          <mxGeometry x="1250.5" y="3657" width="56" height="26" as="geometry" />
        </mxCell>
        <mxCell id="yGgz9N2xFHgXJwQMNSEJ-549" value="11" style="rounded=0;whiteSpace=wrap;html=1;" vertex="1" parent="1">
          <mxGeometry x="1327.5" y="3817" width="56" height="26" as="geometry" />
        </mxCell>
        <mxCell id="yGgz9N2xFHgXJwQMNSEJ-550" style="edgeStyle=none;rounded=0;orthogonalLoop=1;jettySize=auto;html=1;exitX=0;exitY=1;exitDx=0;exitDy=0;entryX=1;entryY=0;entryDx=0;entryDy=0;" edge="1" parent="1" source="yGgz9N2xFHgXJwQMNSEJ-551" target="yGgz9N2xFHgXJwQMNSEJ-552">
          <mxGeometry relative="1" as="geometry" />
        </mxCell>
        <mxCell id="yGgz9N2xFHgXJwQMNSEJ-551" value="2" style="rounded=0;whiteSpace=wrap;html=1;fillColor=#ffffff;" vertex="1" parent="1">
          <mxGeometry x="1021" y="3729" width="56" height="26" as="geometry" />
        </mxCell>
        <mxCell id="yGgz9N2xFHgXJwQMNSEJ-552" value="0" style="rounded=0;whiteSpace=wrap;html=1;" vertex="1" parent="1">
          <mxGeometry x="900" y="3817" width="56" height="26" as="geometry" />
        </mxCell>
        <mxCell id="yGgz9N2xFHgXJwQMNSEJ-553" style="edgeStyle=none;rounded=0;orthogonalLoop=1;jettySize=auto;html=1;exitX=1;exitY=1;exitDx=0;exitDy=0;entryX=0;entryY=0;entryDx=0;entryDy=0;" edge="1" parent="1" source="yGgz9N2xFHgXJwQMNSEJ-555" target="yGgz9N2xFHgXJwQMNSEJ-563">
          <mxGeometry relative="1" as="geometry" />
        </mxCell>
        <mxCell id="yGgz9N2xFHgXJwQMNSEJ-554" style="edgeStyle=none;rounded=0;orthogonalLoop=1;jettySize=auto;html=1;exitX=0;exitY=1;exitDx=0;exitDy=0;entryX=0.5;entryY=0;entryDx=0;entryDy=0;" edge="1" parent="1" source="yGgz9N2xFHgXJwQMNSEJ-555" target="yGgz9N2xFHgXJwQMNSEJ-549">
          <mxGeometry relative="1" as="geometry" />
        </mxCell>
        <mxCell id="yGgz9N2xFHgXJwQMNSEJ-555" value="12" style="rounded=0;whiteSpace=wrap;html=1;fillColor=#ffffff;" vertex="1" parent="1">
          <mxGeometry x="1428.5" y="3729" width="56" height="26" as="geometry" />
        </mxCell>
        <mxCell id="yGgz9N2xFHgXJwQMNSEJ-556" value="6" style="rounded=0;whiteSpace=wrap;html=1;" vertex="1" parent="1">
          <mxGeometry x="1142.5" y="3817" width="56" height="26" as="geometry" />
        </mxCell>
        <mxCell id="yGgz9N2xFHgXJwQMNSEJ-557" style="edgeStyle=none;rounded=0;orthogonalLoop=1;jettySize=auto;html=1;exitX=1;exitY=1;exitDx=0;exitDy=0;entryX=0.5;entryY=0;entryDx=0;entryDy=0;" edge="1" parent="1" source="yGgz9N2xFHgXJwQMNSEJ-558" target="yGgz9N2xFHgXJwQMNSEJ-560">
          <mxGeometry relative="1" as="geometry" />
        </mxCell>
        <mxCell id="yGgz9N2xFHgXJwQMNSEJ-558" value="15" style="rounded=0;whiteSpace=wrap;html=1;" vertex="1" parent="1">
          <mxGeometry x="1484.5" y="3729" width="56" height="26" as="geometry" />
        </mxCell>
        <mxCell id="yGgz9N2xFHgXJwQMNSEJ-559" value="4" style="rounded=0;whiteSpace=wrap;html=1;" vertex="1" parent="1">
          <mxGeometry x="1074" y="3817" width="56" height="26" as="geometry" />
        </mxCell>
        <mxCell id="yGgz9N2xFHgXJwQMNSEJ-560" value="18" style="rounded=0;whiteSpace=wrap;html=1;" vertex="1" parent="1">
          <mxGeometry x="1606" y="3817" width="56" height="26" as="geometry" />
        </mxCell>
        <mxCell id="yGgz9N2xFHgXJwQMNSEJ-561" value="19" style="rounded=0;whiteSpace=wrap;html=1;" vertex="1" parent="1">
          <mxGeometry x="1662" y="3817" width="56" height="26" as="geometry" />
        </mxCell>
        <mxCell id="yGgz9N2xFHgXJwQMNSEJ-562" value="7" style="rounded=0;whiteSpace=wrap;html=1;" vertex="1" parent="1">
          <mxGeometry x="1198.5" y="3817" width="56" height="26" as="geometry" />
        </mxCell>
        <mxCell id="yGgz9N2xFHgXJwQMNSEJ-563" value="14" style="rounded=0;whiteSpace=wrap;html=1;" vertex="1" parent="1">
          <mxGeometry x="1474" y="3817" width="56" height="26" as="geometry" />
        </mxCell>
        <mxCell id="yGgz9N2xFHgXJwQMNSEJ-564" value="13" style="rounded=0;whiteSpace=wrap;html=1;" vertex="1" parent="1">
          <mxGeometry x="1418" y="3817" width="56" height="26" as="geometry" />
        </mxCell>
        <mxCell id="yGgz9N2xFHgXJwQMNSEJ-565" value="10" style="rounded=0;whiteSpace=wrap;html=1;" vertex="1" parent="1">
          <mxGeometry x="1271.5" y="3817" width="56" height="26" as="geometry" />
        </mxCell>
        <mxCell id="yGgz9N2xFHgXJwQMNSEJ-566" value="16" style="rounded=0;whiteSpace=wrap;html=1;" vertex="1" parent="1">
          <mxGeometry x="1550" y="3817" width="56" height="26" as="geometry" />
        </mxCell>
        <mxCell id="yGgz9N2xFHgXJwQMNSEJ-567" style="edgeStyle=none;rounded=0;orthogonalLoop=1;jettySize=auto;html=1;exitX=0;exitY=0.75;exitDx=0;exitDy=0;entryX=1;entryY=0;entryDx=0;entryDy=0;" edge="1" parent="1" source="yGgz9N2xFHgXJwQMNSEJ-569" target="yGgz9N2xFHgXJwQMNSEJ-570">
          <mxGeometry relative="1" as="geometry" />
        </mxCell>
        <mxCell id="yGgz9N2xFHgXJwQMNSEJ-568" style="edgeStyle=none;rounded=0;orthogonalLoop=1;jettySize=auto;html=1;exitX=1;exitY=1;exitDx=0;exitDy=0;entryX=0;entryY=0;entryDx=0;entryDy=0;" edge="1" parent="1" source="yGgz9N2xFHgXJwQMNSEJ-569" target="yGgz9N2xFHgXJwQMNSEJ-562">
          <mxGeometry relative="1" as="geometry" />
        </mxCell>
        <mxCell id="yGgz9N2xFHgXJwQMNSEJ-569" value="5" style="rounded=0;whiteSpace=wrap;html=1;" vertex="1" parent="1">
          <mxGeometry x="1077" y="3729" width="56" height="26" as="geometry" />
        </mxCell>
        <mxCell id="yGgz9N2xFHgXJwQMNSEJ-570" value="3" style="rounded=0;whiteSpace=wrap;html=1;fillColor=#f8cecc;strokeColor=#b85450;" vertex="1" parent="1">
          <mxGeometry x="1018" y="3817" width="56" height="26" as="geometry" />
        </mxCell>
        <mxCell id="yGgz9N2xFHgXJwQMNSEJ-573" value="1" style="rounded=0;whiteSpace=wrap;html=1;fillColor=#ffffff;" vertex="1" parent="1">
          <mxGeometry x="99" y="4095" width="56" height="26" as="geometry" />
        </mxCell>
        <mxCell id="yGgz9N2xFHgXJwQMNSEJ-574" style="edgeStyle=none;rounded=0;orthogonalLoop=1;jettySize=auto;html=1;exitX=0;exitY=1;exitDx=0;exitDy=0;entryX=0;entryY=0;entryDx=0;entryDy=0;" edge="1" parent="1" source="yGgz9N2xFHgXJwQMNSEJ-576" target="yGgz9N2xFHgXJwQMNSEJ-597">
          <mxGeometry relative="1" as="geometry" />
        </mxCell>
        <mxCell id="yGgz9N2xFHgXJwQMNSEJ-575" style="edgeStyle=none;rounded=0;orthogonalLoop=1;jettySize=auto;html=1;exitX=1;exitY=1;exitDx=0;exitDy=0;entryX=0;entryY=0;entryDx=0;entryDy=0;" edge="1" parent="1" source="yGgz9N2xFHgXJwQMNSEJ-576" target="yGgz9N2xFHgXJwQMNSEJ-586">
          <mxGeometry relative="1" as="geometry" />
        </mxCell>
        <mxCell id="yGgz9N2xFHgXJwQMNSEJ-576" value="9" style="rounded=0;whiteSpace=wrap;html=1;fillColor=#ffffff;" vertex="1" parent="1">
          <mxGeometry x="393.5" y="3935" width="56" height="26" as="geometry" />
        </mxCell>
        <mxCell id="yGgz9N2xFHgXJwQMNSEJ-577" value="11" style="rounded=0;whiteSpace=wrap;html=1;" vertex="1" parent="1">
          <mxGeometry x="470.5" y="4095" width="56" height="26" as="geometry" />
        </mxCell>
        <mxCell id="yGgz9N2xFHgXJwQMNSEJ-578" style="edgeStyle=none;rounded=0;orthogonalLoop=1;jettySize=auto;html=1;exitX=0;exitY=1;exitDx=0;exitDy=0;entryX=1;entryY=0;entryDx=0;entryDy=0;" edge="1" parent="1" source="yGgz9N2xFHgXJwQMNSEJ-579" target="yGgz9N2xFHgXJwQMNSEJ-580">
          <mxGeometry relative="1" as="geometry" />
        </mxCell>
        <mxCell id="yGgz9N2xFHgXJwQMNSEJ-579" value="2" style="rounded=0;whiteSpace=wrap;html=1;fillColor=#ffffff;" vertex="1" parent="1">
          <mxGeometry x="164" y="4007" width="56" height="26" as="geometry" />
        </mxCell>
        <mxCell id="yGgz9N2xFHgXJwQMNSEJ-580" value="0" style="rounded=0;whiteSpace=wrap;html=1;" vertex="1" parent="1">
          <mxGeometry x="43" y="4095" width="56" height="26" as="geometry" />
        </mxCell>
        <mxCell id="yGgz9N2xFHgXJwQMNSEJ-581" style="edgeStyle=none;rounded=0;orthogonalLoop=1;jettySize=auto;html=1;exitX=1;exitY=1;exitDx=0;exitDy=0;entryX=0;entryY=0;entryDx=0;entryDy=0;" edge="1" parent="1" source="yGgz9N2xFHgXJwQMNSEJ-583" target="yGgz9N2xFHgXJwQMNSEJ-591">
          <mxGeometry relative="1" as="geometry" />
        </mxCell>
        <mxCell id="yGgz9N2xFHgXJwQMNSEJ-582" style="edgeStyle=none;rounded=0;orthogonalLoop=1;jettySize=auto;html=1;exitX=0;exitY=1;exitDx=0;exitDy=0;entryX=0.5;entryY=0;entryDx=0;entryDy=0;" edge="1" parent="1" source="yGgz9N2xFHgXJwQMNSEJ-583" target="yGgz9N2xFHgXJwQMNSEJ-577">
          <mxGeometry relative="1" as="geometry" />
        </mxCell>
        <mxCell id="yGgz9N2xFHgXJwQMNSEJ-583" value="12" style="rounded=0;whiteSpace=wrap;html=1;fillColor=#ffffff;" vertex="1" parent="1">
          <mxGeometry x="571.5" y="4007" width="56" height="26" as="geometry" />
        </mxCell>
        <mxCell id="yGgz9N2xFHgXJwQMNSEJ-584" value="6" style="rounded=0;whiteSpace=wrap;html=1;" vertex="1" parent="1">
          <mxGeometry x="285.5" y="4095" width="56" height="26" as="geometry" />
        </mxCell>
        <mxCell id="yGgz9N2xFHgXJwQMNSEJ-585" style="edgeStyle=none;rounded=0;orthogonalLoop=1;jettySize=auto;html=1;exitX=1;exitY=1;exitDx=0;exitDy=0;entryX=0.5;entryY=0;entryDx=0;entryDy=0;" edge="1" parent="1" source="yGgz9N2xFHgXJwQMNSEJ-586" target="yGgz9N2xFHgXJwQMNSEJ-588">
          <mxGeometry relative="1" as="geometry" />
        </mxCell>
        <mxCell id="yGgz9N2xFHgXJwQMNSEJ-586" value="15" style="rounded=0;whiteSpace=wrap;html=1;" vertex="1" parent="1">
          <mxGeometry x="627.5" y="4007" width="56" height="26" as="geometry" />
        </mxCell>
        <mxCell id="yGgz9N2xFHgXJwQMNSEJ-587" value="4" style="rounded=0;whiteSpace=wrap;html=1;" vertex="1" parent="1">
          <mxGeometry x="217" y="4095" width="56" height="26" as="geometry" />
        </mxCell>
        <mxCell id="yGgz9N2xFHgXJwQMNSEJ-588" value="18" style="rounded=0;whiteSpace=wrap;html=1;" vertex="1" parent="1">
          <mxGeometry x="749" y="4095" width="56" height="26" as="geometry" />
        </mxCell>
        <mxCell id="yGgz9N2xFHgXJwQMNSEJ-589" value="19" style="rounded=0;whiteSpace=wrap;html=1;" vertex="1" parent="1">
          <mxGeometry x="805" y="4095" width="56" height="26" as="geometry" />
        </mxCell>
        <mxCell id="yGgz9N2xFHgXJwQMNSEJ-590" value="7" style="rounded=0;whiteSpace=wrap;html=1;" vertex="1" parent="1">
          <mxGeometry x="341.5" y="4095" width="56" height="26" as="geometry" />
        </mxCell>
        <mxCell id="yGgz9N2xFHgXJwQMNSEJ-591" value="14" style="rounded=0;whiteSpace=wrap;html=1;" vertex="1" parent="1">
          <mxGeometry x="617" y="4095" width="56" height="26" as="geometry" />
        </mxCell>
        <mxCell id="yGgz9N2xFHgXJwQMNSEJ-592" value="13" style="rounded=0;whiteSpace=wrap;html=1;" vertex="1" parent="1">
          <mxGeometry x="561" y="4095" width="56" height="26" as="geometry" />
        </mxCell>
        <mxCell id="yGgz9N2xFHgXJwQMNSEJ-593" value="10" style="rounded=0;whiteSpace=wrap;html=1;" vertex="1" parent="1">
          <mxGeometry x="414.5" y="4095" width="56" height="26" as="geometry" />
        </mxCell>
        <mxCell id="yGgz9N2xFHgXJwQMNSEJ-594" value="16" style="rounded=0;whiteSpace=wrap;html=1;" vertex="1" parent="1">
          <mxGeometry x="693" y="4095" width="56" height="26" as="geometry" />
        </mxCell>
        <mxCell id="yGgz9N2xFHgXJwQMNSEJ-595" style="edgeStyle=none;rounded=0;orthogonalLoop=1;jettySize=auto;html=1;exitX=0;exitY=0.75;exitDx=0;exitDy=0;entryX=1;entryY=0;entryDx=0;entryDy=0;" edge="1" parent="1" source="yGgz9N2xFHgXJwQMNSEJ-597" target="yGgz9N2xFHgXJwQMNSEJ-598">
          <mxGeometry relative="1" as="geometry" />
        </mxCell>
        <mxCell id="yGgz9N2xFHgXJwQMNSEJ-596" style="edgeStyle=none;rounded=0;orthogonalLoop=1;jettySize=auto;html=1;exitX=1;exitY=1;exitDx=0;exitDy=0;entryX=0;entryY=0;entryDx=0;entryDy=0;" edge="1" parent="1" source="yGgz9N2xFHgXJwQMNSEJ-597" target="yGgz9N2xFHgXJwQMNSEJ-590">
          <mxGeometry relative="1" as="geometry" />
        </mxCell>
        <mxCell id="yGgz9N2xFHgXJwQMNSEJ-597" value="5" style="rounded=0;whiteSpace=wrap;html=1;" vertex="1" parent="1">
          <mxGeometry x="220" y="4007" width="56" height="26" as="geometry" />
        </mxCell>
        <mxCell id="yGgz9N2xFHgXJwQMNSEJ-598" value="3" style="rounded=0;whiteSpace=wrap;html=1;" vertex="1" parent="1">
          <mxGeometry x="161" y="4095" width="56" height="26" as="geometry" />
        </mxCell>
        <mxCell id="yGgz9N2xFHgXJwQMNSEJ-599" value="1" style="rounded=0;whiteSpace=wrap;html=1;fillColor=#ffffff;" vertex="1" parent="1">
          <mxGeometry x="956" y="4095" width="56" height="26" as="geometry" />
        </mxCell>
        <mxCell id="yGgz9N2xFHgXJwQMNSEJ-600" style="edgeStyle=none;rounded=0;orthogonalLoop=1;jettySize=auto;html=1;exitX=0;exitY=1;exitDx=0;exitDy=0;entryX=0;entryY=0;entryDx=0;entryDy=0;" edge="1" parent="1" source="yGgz9N2xFHgXJwQMNSEJ-602" target="yGgz9N2xFHgXJwQMNSEJ-623">
          <mxGeometry relative="1" as="geometry" />
        </mxCell>
        <mxCell id="yGgz9N2xFHgXJwQMNSEJ-601" style="edgeStyle=none;rounded=0;orthogonalLoop=1;jettySize=auto;html=1;exitX=1;exitY=1;exitDx=0;exitDy=0;entryX=0;entryY=0;entryDx=0;entryDy=0;" edge="1" parent="1" source="yGgz9N2xFHgXJwQMNSEJ-602" target="yGgz9N2xFHgXJwQMNSEJ-612">
          <mxGeometry relative="1" as="geometry" />
        </mxCell>
        <mxCell id="yGgz9N2xFHgXJwQMNSEJ-602" value="9" style="rounded=0;whiteSpace=wrap;html=1;fillColor=#ffffff;" vertex="1" parent="1">
          <mxGeometry x="1328.75" y="3943" width="56" height="26" as="geometry" />
        </mxCell>
        <mxCell id="yGgz9N2xFHgXJwQMNSEJ-603" value="11" style="rounded=0;whiteSpace=wrap;html=1;" vertex="1" parent="1">
          <mxGeometry x="1405" y="4095" width="56" height="26" as="geometry" />
        </mxCell>
        <mxCell id="yGgz9N2xFHgXJwQMNSEJ-604" style="edgeStyle=none;rounded=0;orthogonalLoop=1;jettySize=auto;html=1;exitX=0;exitY=1;exitDx=0;exitDy=0;entryX=1;entryY=0;entryDx=0;entryDy=0;" edge="1" parent="1" source="yGgz9N2xFHgXJwQMNSEJ-605" target="yGgz9N2xFHgXJwQMNSEJ-606">
          <mxGeometry relative="1" as="geometry" />
        </mxCell>
        <mxCell id="yGgz9N2xFHgXJwQMNSEJ-605" value="2" style="rounded=0;whiteSpace=wrap;html=1;fillColor=#ffffff;" vertex="1" parent="1">
          <mxGeometry x="1021" y="4007" width="56" height="26" as="geometry" />
        </mxCell>
        <mxCell id="yGgz9N2xFHgXJwQMNSEJ-606" value="0" style="rounded=0;whiteSpace=wrap;html=1;" vertex="1" parent="1">
          <mxGeometry x="900" y="4095" width="56" height="26" as="geometry" />
        </mxCell>
        <mxCell id="yGgz9N2xFHgXJwQMNSEJ-607" style="edgeStyle=none;rounded=0;orthogonalLoop=1;jettySize=auto;html=1;exitX=1;exitY=1;exitDx=0;exitDy=0;entryX=0;entryY=0;entryDx=0;entryDy=0;" edge="1" parent="1" source="yGgz9N2xFHgXJwQMNSEJ-609" target="yGgz9N2xFHgXJwQMNSEJ-617">
          <mxGeometry relative="1" as="geometry" />
        </mxCell>
        <mxCell id="yGgz9N2xFHgXJwQMNSEJ-608" style="edgeStyle=none;rounded=0;orthogonalLoop=1;jettySize=auto;html=1;exitX=0;exitY=1;exitDx=0;exitDy=0;entryX=0.5;entryY=0;entryDx=0;entryDy=0;" edge="1" parent="1" source="yGgz9N2xFHgXJwQMNSEJ-609" target="yGgz9N2xFHgXJwQMNSEJ-603">
          <mxGeometry relative="1" as="geometry" />
        </mxCell>
        <mxCell id="yGgz9N2xFHgXJwQMNSEJ-609" value="12" style="rounded=0;whiteSpace=wrap;html=1;fillColor=#ffffff;" vertex="1" parent="1">
          <mxGeometry x="1506" y="4007" width="56" height="26" as="geometry" />
        </mxCell>
        <mxCell id="yGgz9N2xFHgXJwQMNSEJ-610" value="6" style="rounded=0;whiteSpace=wrap;html=1;" vertex="1" parent="1">
          <mxGeometry x="1142.5" y="4095" width="56" height="26" as="geometry" />
        </mxCell>
        <mxCell id="yGgz9N2xFHgXJwQMNSEJ-611" style="edgeStyle=none;rounded=0;orthogonalLoop=1;jettySize=auto;html=1;exitX=1;exitY=1;exitDx=0;exitDy=0;entryX=0.5;entryY=0;entryDx=0;entryDy=0;" edge="1" parent="1" source="yGgz9N2xFHgXJwQMNSEJ-612" target="yGgz9N2xFHgXJwQMNSEJ-614">
          <mxGeometry relative="1" as="geometry" />
        </mxCell>
        <mxCell id="yGgz9N2xFHgXJwQMNSEJ-612" value="15" style="rounded=0;whiteSpace=wrap;html=1;" vertex="1" parent="1">
          <mxGeometry x="1562" y="4007" width="56" height="26" as="geometry" />
        </mxCell>
        <mxCell id="yGgz9N2xFHgXJwQMNSEJ-613" value="4" style="rounded=0;whiteSpace=wrap;html=1;" vertex="1" parent="1">
          <mxGeometry x="1074" y="4095" width="56" height="26" as="geometry" />
        </mxCell>
        <mxCell id="yGgz9N2xFHgXJwQMNSEJ-614" value="18" style="rounded=0;whiteSpace=wrap;html=1;" vertex="1" parent="1">
          <mxGeometry x="1683.5" y="4095" width="56" height="26" as="geometry" />
        </mxCell>
        <mxCell id="yGgz9N2xFHgXJwQMNSEJ-615" value="19" style="rounded=0;whiteSpace=wrap;html=1;" vertex="1" parent="1">
          <mxGeometry x="1739.5" y="4095" width="56" height="26" as="geometry" />
        </mxCell>
        <mxCell id="yGgz9N2xFHgXJwQMNSEJ-616" value="7" style="rounded=0;whiteSpace=wrap;html=1;" vertex="1" parent="1">
          <mxGeometry x="1198.5" y="4095" width="56" height="26" as="geometry" />
        </mxCell>
        <mxCell id="yGgz9N2xFHgXJwQMNSEJ-617" value="14" style="rounded=0;whiteSpace=wrap;html=1;" vertex="1" parent="1">
          <mxGeometry x="1551.5" y="4095" width="56" height="26" as="geometry" />
        </mxCell>
        <mxCell id="yGgz9N2xFHgXJwQMNSEJ-618" value="13" style="rounded=0;whiteSpace=wrap;html=1;" vertex="1" parent="1">
          <mxGeometry x="1495.5" y="4095" width="56" height="26" as="geometry" />
        </mxCell>
        <mxCell id="yGgz9N2xFHgXJwQMNSEJ-619" value="10" style="rounded=0;whiteSpace=wrap;html=1;" vertex="1" parent="1">
          <mxGeometry x="1349" y="4095" width="56" height="26" as="geometry" />
        </mxCell>
        <mxCell id="yGgz9N2xFHgXJwQMNSEJ-620" value="16" style="rounded=0;whiteSpace=wrap;html=1;" vertex="1" parent="1">
          <mxGeometry x="1627.5" y="4095" width="56" height="26" as="geometry" />
        </mxCell>
        <mxCell id="yGgz9N2xFHgXJwQMNSEJ-621" style="edgeStyle=none;rounded=0;orthogonalLoop=1;jettySize=auto;html=1;exitX=0;exitY=0.75;exitDx=0;exitDy=0;entryX=1;entryY=0;entryDx=0;entryDy=0;" edge="1" parent="1" source="yGgz9N2xFHgXJwQMNSEJ-623" target="yGgz9N2xFHgXJwQMNSEJ-624">
          <mxGeometry relative="1" as="geometry" />
        </mxCell>
        <mxCell id="yGgz9N2xFHgXJwQMNSEJ-622" style="edgeStyle=none;rounded=0;orthogonalLoop=1;jettySize=auto;html=1;exitX=1;exitY=1;exitDx=0;exitDy=0;entryX=0;entryY=0;entryDx=0;entryDy=0;" edge="1" parent="1" source="yGgz9N2xFHgXJwQMNSEJ-623" target="yGgz9N2xFHgXJwQMNSEJ-616">
          <mxGeometry relative="1" as="geometry" />
        </mxCell>
        <mxCell id="yGgz9N2xFHgXJwQMNSEJ-623" value="5" style="rounded=0;whiteSpace=wrap;html=1;" vertex="1" parent="1">
          <mxGeometry x="1077" y="4007" width="56" height="26" as="geometry" />
        </mxCell>
        <mxCell id="yGgz9N2xFHgXJwQMNSEJ-624" value="3" style="rounded=0;whiteSpace=wrap;html=1;" vertex="1" parent="1">
          <mxGeometry x="1018" y="4095" width="56" height="26" as="geometry" />
        </mxCell>
        <mxCell id="yGgz9N2xFHgXJwQMNSEJ-625" value="8" style="rounded=0;whiteSpace=wrap;html=1;fillColor=#f8cecc;strokeColor=#b85450;" vertex="1" parent="1">
          <mxGeometry x="1254.5" y="4095" width="56" height="26" as="geometry" />
        </mxCell>
        <mxCell id="yGgz9N2xFHgXJwQMNSEJ-626" value="1" style="rounded=0;whiteSpace=wrap;html=1;fillColor=#ffffff;" vertex="1" parent="1">
          <mxGeometry x="1014.5" y="4405" width="56" height="26" as="geometry" />
        </mxCell>
        <mxCell id="yGgz9N2xFHgXJwQMNSEJ-627" style="edgeStyle=none;rounded=0;orthogonalLoop=1;jettySize=auto;html=1;exitX=0;exitY=1;exitDx=0;exitDy=0;entryX=0;entryY=0;entryDx=0;entryDy=0;" edge="1" parent="1" source="yGgz9N2xFHgXJwQMNSEJ-629" target="yGgz9N2xFHgXJwQMNSEJ-650">
          <mxGeometry relative="1" as="geometry" />
        </mxCell>
        <mxCell id="yGgz9N2xFHgXJwQMNSEJ-628" style="edgeStyle=none;rounded=0;orthogonalLoop=1;jettySize=auto;html=1;exitX=1;exitY=1;exitDx=0;exitDy=0;entryX=0;entryY=0;entryDx=0;entryDy=0;" edge="1" parent="1" source="yGgz9N2xFHgXJwQMNSEJ-629" target="yGgz9N2xFHgXJwQMNSEJ-639">
          <mxGeometry relative="1" as="geometry" />
        </mxCell>
        <mxCell id="yGgz9N2xFHgXJwQMNSEJ-629" value="9" style="rounded=0;whiteSpace=wrap;html=1;fillColor=#ffffff;" vertex="1" parent="1">
          <mxGeometry x="1387.25" y="4253" width="56" height="26" as="geometry" />
        </mxCell>
        <mxCell id="yGgz9N2xFHgXJwQMNSEJ-630" value="11" style="rounded=0;whiteSpace=wrap;html=1;" vertex="1" parent="1">
          <mxGeometry x="1463.5" y="4405" width="56" height="26" as="geometry" />
        </mxCell>
        <mxCell id="yGgz9N2xFHgXJwQMNSEJ-631" style="edgeStyle=none;rounded=0;orthogonalLoop=1;jettySize=auto;html=1;exitX=0;exitY=1;exitDx=0;exitDy=0;entryX=1;entryY=0;entryDx=0;entryDy=0;" edge="1" parent="1" source="yGgz9N2xFHgXJwQMNSEJ-632" target="yGgz9N2xFHgXJwQMNSEJ-633">
          <mxGeometry relative="1" as="geometry" />
        </mxCell>
        <mxCell id="yGgz9N2xFHgXJwQMNSEJ-632" value="2" style="rounded=0;whiteSpace=wrap;html=1;fillColor=#ffffff;" vertex="1" parent="1">
          <mxGeometry x="1079.5" y="4317" width="56" height="26" as="geometry" />
        </mxCell>
        <mxCell id="yGgz9N2xFHgXJwQMNSEJ-633" value="0" style="rounded=0;whiteSpace=wrap;html=1;" vertex="1" parent="1">
          <mxGeometry x="958.5" y="4405" width="56" height="26" as="geometry" />
        </mxCell>
        <mxCell id="yGgz9N2xFHgXJwQMNSEJ-634" style="edgeStyle=none;rounded=0;orthogonalLoop=1;jettySize=auto;html=1;exitX=1;exitY=1;exitDx=0;exitDy=0;entryX=0;entryY=0;entryDx=0;entryDy=0;" edge="1" parent="1" source="yGgz9N2xFHgXJwQMNSEJ-636" target="yGgz9N2xFHgXJwQMNSEJ-644">
          <mxGeometry relative="1" as="geometry" />
        </mxCell>
        <mxCell id="yGgz9N2xFHgXJwQMNSEJ-635" style="edgeStyle=none;rounded=0;orthogonalLoop=1;jettySize=auto;html=1;exitX=0;exitY=1;exitDx=0;exitDy=0;entryX=0.5;entryY=0;entryDx=0;entryDy=0;" edge="1" parent="1" source="yGgz9N2xFHgXJwQMNSEJ-636" target="yGgz9N2xFHgXJwQMNSEJ-630">
          <mxGeometry relative="1" as="geometry" />
        </mxCell>
        <mxCell id="yGgz9N2xFHgXJwQMNSEJ-636" value="12" style="rounded=0;whiteSpace=wrap;html=1;fillColor=#ffffff;" vertex="1" parent="1">
          <mxGeometry x="1564.5" y="4317" width="56" height="26" as="geometry" />
        </mxCell>
        <mxCell id="yGgz9N2xFHgXJwQMNSEJ-637" value="6" style="rounded=0;whiteSpace=wrap;html=1;" vertex="1" parent="1">
          <mxGeometry x="1201" y="4405" width="56" height="26" as="geometry" />
        </mxCell>
        <mxCell id="yGgz9N2xFHgXJwQMNSEJ-638" style="edgeStyle=none;rounded=0;orthogonalLoop=1;jettySize=auto;html=1;exitX=1;exitY=1;exitDx=0;exitDy=0;entryX=0;entryY=0;entryDx=0;entryDy=0;" edge="1" parent="1" source="yGgz9N2xFHgXJwQMNSEJ-639" target="yGgz9N2xFHgXJwQMNSEJ-641">
          <mxGeometry relative="1" as="geometry" />
        </mxCell>
        <mxCell id="yGgz9N2xFHgXJwQMNSEJ-639" value="15" style="rounded=0;whiteSpace=wrap;html=1;" vertex="1" parent="1">
          <mxGeometry x="1620.5" y="4317" width="56" height="26" as="geometry" />
        </mxCell>
        <mxCell id="yGgz9N2xFHgXJwQMNSEJ-640" value="4" style="rounded=0;whiteSpace=wrap;html=1;" vertex="1" parent="1">
          <mxGeometry x="1132.5" y="4405" width="56" height="26" as="geometry" />
        </mxCell>
        <mxCell id="yGgz9N2xFHgXJwQMNSEJ-641" value="18" style="rounded=0;whiteSpace=wrap;html=1;" vertex="1" parent="1">
          <mxGeometry x="1798" y="4405" width="56" height="26" as="geometry" />
        </mxCell>
        <mxCell id="yGgz9N2xFHgXJwQMNSEJ-642" value="19" style="rounded=0;whiteSpace=wrap;html=1;" vertex="1" parent="1">
          <mxGeometry x="1854" y="4405" width="56" height="26" as="geometry" />
        </mxCell>
        <mxCell id="yGgz9N2xFHgXJwQMNSEJ-643" value="7" style="rounded=0;whiteSpace=wrap;html=1;" vertex="1" parent="1">
          <mxGeometry x="1257" y="4405" width="56" height="26" as="geometry" />
        </mxCell>
        <mxCell id="yGgz9N2xFHgXJwQMNSEJ-644" value="14" style="rounded=0;whiteSpace=wrap;html=1;" vertex="1" parent="1">
          <mxGeometry x="1610" y="4405" width="56" height="26" as="geometry" />
        </mxCell>
        <mxCell id="yGgz9N2xFHgXJwQMNSEJ-645" value="13" style="rounded=0;whiteSpace=wrap;html=1;" vertex="1" parent="1">
          <mxGeometry x="1554" y="4405" width="56" height="26" as="geometry" />
        </mxCell>
        <mxCell id="yGgz9N2xFHgXJwQMNSEJ-646" value="10" style="rounded=0;whiteSpace=wrap;html=1;" vertex="1" parent="1">
          <mxGeometry x="1407.5" y="4405" width="56" height="26" as="geometry" />
        </mxCell>
        <mxCell id="yGgz9N2xFHgXJwQMNSEJ-647" value="16" style="rounded=0;whiteSpace=wrap;html=1;" vertex="1" parent="1">
          <mxGeometry x="1686" y="4405" width="56" height="26" as="geometry" />
        </mxCell>
        <mxCell id="yGgz9N2xFHgXJwQMNSEJ-648" style="edgeStyle=none;rounded=0;orthogonalLoop=1;jettySize=auto;html=1;exitX=0;exitY=0.75;exitDx=0;exitDy=0;entryX=1;entryY=0;entryDx=0;entryDy=0;" edge="1" parent="1" source="yGgz9N2xFHgXJwQMNSEJ-650" target="yGgz9N2xFHgXJwQMNSEJ-651">
          <mxGeometry relative="1" as="geometry" />
        </mxCell>
        <mxCell id="yGgz9N2xFHgXJwQMNSEJ-649" style="edgeStyle=none;rounded=0;orthogonalLoop=1;jettySize=auto;html=1;exitX=1;exitY=1;exitDx=0;exitDy=0;entryX=0;entryY=0;entryDx=0;entryDy=0;" edge="1" parent="1" source="yGgz9N2xFHgXJwQMNSEJ-650" target="yGgz9N2xFHgXJwQMNSEJ-643">
          <mxGeometry relative="1" as="geometry" />
        </mxCell>
        <mxCell id="yGgz9N2xFHgXJwQMNSEJ-650" value="5" style="rounded=0;whiteSpace=wrap;html=1;" vertex="1" parent="1">
          <mxGeometry x="1135.5" y="4317" width="56" height="26" as="geometry" />
        </mxCell>
        <mxCell id="yGgz9N2xFHgXJwQMNSEJ-651" value="3" style="rounded=0;whiteSpace=wrap;html=1;" vertex="1" parent="1">
          <mxGeometry x="1076.5" y="4405" width="56" height="26" as="geometry" />
        </mxCell>
        <mxCell id="yGgz9N2xFHgXJwQMNSEJ-652" value="8" style="rounded=0;whiteSpace=wrap;html=1;" vertex="1" parent="1">
          <mxGeometry x="1313" y="4405" width="56" height="26" as="geometry" />
        </mxCell>
        <mxCell id="yGgz9N2xFHgXJwQMNSEJ-653" value="17" style="rounded=0;whiteSpace=wrap;html=1;fillColor=#f8cecc;strokeColor=#b85450;" vertex="1" parent="1">
          <mxGeometry x="1742" y="4405" width="56" height="26" as="geometry" />
        </mxCell>
        <mxCell id="yGgz9N2xFHgXJwQMNSEJ-654" value="1" style="rounded=0;whiteSpace=wrap;html=1;fillColor=#ffffff;" vertex="1" parent="1">
          <mxGeometry x="106" y="4405" width="56" height="26" as="geometry" />
        </mxCell>
        <mxCell id="yGgz9N2xFHgXJwQMNSEJ-655" style="edgeStyle=none;rounded=0;orthogonalLoop=1;jettySize=auto;html=1;exitX=0;exitY=1;exitDx=0;exitDy=0;entryX=0;entryY=0;entryDx=0;entryDy=0;" edge="1" parent="1" source="yGgz9N2xFHgXJwQMNSEJ-657" target="yGgz9N2xFHgXJwQMNSEJ-678">
          <mxGeometry relative="1" as="geometry" />
        </mxCell>
        <mxCell id="yGgz9N2xFHgXJwQMNSEJ-656" style="edgeStyle=none;rounded=0;orthogonalLoop=1;jettySize=auto;html=1;exitX=1;exitY=1;exitDx=0;exitDy=0;entryX=0;entryY=0;entryDx=0;entryDy=0;" edge="1" parent="1" source="yGgz9N2xFHgXJwQMNSEJ-657" target="yGgz9N2xFHgXJwQMNSEJ-667">
          <mxGeometry relative="1" as="geometry" />
        </mxCell>
        <mxCell id="yGgz9N2xFHgXJwQMNSEJ-657" value="9" style="rounded=0;whiteSpace=wrap;html=1;fillColor=#ffffff;" vertex="1" parent="1">
          <mxGeometry x="478.75" y="4253" width="56" height="26" as="geometry" />
        </mxCell>
        <mxCell id="yGgz9N2xFHgXJwQMNSEJ-658" value="11" style="rounded=0;whiteSpace=wrap;html=1;" vertex="1" parent="1">
          <mxGeometry x="555" y="4405" width="56" height="26" as="geometry" />
        </mxCell>
        <mxCell id="yGgz9N2xFHgXJwQMNSEJ-659" style="edgeStyle=none;rounded=0;orthogonalLoop=1;jettySize=auto;html=1;exitX=0;exitY=1;exitDx=0;exitDy=0;entryX=1;entryY=0;entryDx=0;entryDy=0;" edge="1" parent="1" source="yGgz9N2xFHgXJwQMNSEJ-660" target="yGgz9N2xFHgXJwQMNSEJ-661">
          <mxGeometry relative="1" as="geometry" />
        </mxCell>
        <mxCell id="yGgz9N2xFHgXJwQMNSEJ-660" value="2" style="rounded=0;whiteSpace=wrap;html=1;fillColor=#ffffff;" vertex="1" parent="1">
          <mxGeometry x="171" y="4317" width="56" height="26" as="geometry" />
        </mxCell>
        <mxCell id="yGgz9N2xFHgXJwQMNSEJ-661" value="0" style="rounded=0;whiteSpace=wrap;html=1;" vertex="1" parent="1">
          <mxGeometry x="50" y="4405" width="56" height="26" as="geometry" />
        </mxCell>
        <mxCell id="yGgz9N2xFHgXJwQMNSEJ-662" style="edgeStyle=none;rounded=0;orthogonalLoop=1;jettySize=auto;html=1;exitX=1;exitY=1;exitDx=0;exitDy=0;entryX=0;entryY=0;entryDx=0;entryDy=0;" edge="1" parent="1" source="yGgz9N2xFHgXJwQMNSEJ-664" target="yGgz9N2xFHgXJwQMNSEJ-672">
          <mxGeometry relative="1" as="geometry" />
        </mxCell>
        <mxCell id="yGgz9N2xFHgXJwQMNSEJ-663" style="edgeStyle=none;rounded=0;orthogonalLoop=1;jettySize=auto;html=1;exitX=0;exitY=1;exitDx=0;exitDy=0;entryX=0.5;entryY=0;entryDx=0;entryDy=0;" edge="1" parent="1" source="yGgz9N2xFHgXJwQMNSEJ-664" target="yGgz9N2xFHgXJwQMNSEJ-658">
          <mxGeometry relative="1" as="geometry" />
        </mxCell>
        <mxCell id="yGgz9N2xFHgXJwQMNSEJ-664" value="12" style="rounded=0;whiteSpace=wrap;html=1;fillColor=#ffffff;" vertex="1" parent="1">
          <mxGeometry x="656" y="4317" width="56" height="26" as="geometry" />
        </mxCell>
        <mxCell id="yGgz9N2xFHgXJwQMNSEJ-665" value="6" style="rounded=0;whiteSpace=wrap;html=1;" vertex="1" parent="1">
          <mxGeometry x="292.5" y="4405" width="56" height="26" as="geometry" />
        </mxCell>
        <mxCell id="yGgz9N2xFHgXJwQMNSEJ-666" style="edgeStyle=none;rounded=0;orthogonalLoop=1;jettySize=auto;html=1;exitX=1;exitY=1;exitDx=0;exitDy=0;entryX=0.5;entryY=0;entryDx=0;entryDy=0;" edge="1" parent="1" source="yGgz9N2xFHgXJwQMNSEJ-667" target="yGgz9N2xFHgXJwQMNSEJ-669">
          <mxGeometry relative="1" as="geometry" />
        </mxCell>
        <mxCell id="yGgz9N2xFHgXJwQMNSEJ-667" value="15" style="rounded=0;whiteSpace=wrap;html=1;" vertex="1" parent="1">
          <mxGeometry x="712" y="4317" width="56" height="26" as="geometry" />
        </mxCell>
        <mxCell id="yGgz9N2xFHgXJwQMNSEJ-668" value="4" style="rounded=0;whiteSpace=wrap;html=1;" vertex="1" parent="1">
          <mxGeometry x="224" y="4405" width="56" height="26" as="geometry" />
        </mxCell>
        <mxCell id="yGgz9N2xFHgXJwQMNSEJ-669" value="18" style="rounded=0;whiteSpace=wrap;html=1;" vertex="1" parent="1">
          <mxGeometry x="833.5" y="4405" width="56" height="26" as="geometry" />
        </mxCell>
        <mxCell id="yGgz9N2xFHgXJwQMNSEJ-670" value="19" style="rounded=0;whiteSpace=wrap;html=1;" vertex="1" parent="1">
          <mxGeometry x="889.5" y="4405" width="56" height="26" as="geometry" />
        </mxCell>
        <mxCell id="yGgz9N2xFHgXJwQMNSEJ-671" value="7" style="rounded=0;whiteSpace=wrap;html=1;" vertex="1" parent="1">
          <mxGeometry x="348.5" y="4405" width="56" height="26" as="geometry" />
        </mxCell>
        <mxCell id="yGgz9N2xFHgXJwQMNSEJ-672" value="14" style="rounded=0;whiteSpace=wrap;html=1;" vertex="1" parent="1">
          <mxGeometry x="701.5" y="4405" width="56" height="26" as="geometry" />
        </mxCell>
        <mxCell id="yGgz9N2xFHgXJwQMNSEJ-673" value="13" style="rounded=0;whiteSpace=wrap;html=1;" vertex="1" parent="1">
          <mxGeometry x="645.5" y="4405" width="56" height="26" as="geometry" />
        </mxCell>
        <mxCell id="yGgz9N2xFHgXJwQMNSEJ-674" value="10" style="rounded=0;whiteSpace=wrap;html=1;" vertex="1" parent="1">
          <mxGeometry x="499" y="4405" width="56" height="26" as="geometry" />
        </mxCell>
        <mxCell id="yGgz9N2xFHgXJwQMNSEJ-675" value="16" style="rounded=0;whiteSpace=wrap;html=1;" vertex="1" parent="1">
          <mxGeometry x="777.5" y="4405" width="56" height="26" as="geometry" />
        </mxCell>
        <mxCell id="yGgz9N2xFHgXJwQMNSEJ-676" style="edgeStyle=none;rounded=0;orthogonalLoop=1;jettySize=auto;html=1;exitX=0;exitY=0.75;exitDx=0;exitDy=0;entryX=1;entryY=0;entryDx=0;entryDy=0;" edge="1" parent="1" source="yGgz9N2xFHgXJwQMNSEJ-678" target="yGgz9N2xFHgXJwQMNSEJ-679">
          <mxGeometry relative="1" as="geometry" />
        </mxCell>
        <mxCell id="yGgz9N2xFHgXJwQMNSEJ-677" style="edgeStyle=none;rounded=0;orthogonalLoop=1;jettySize=auto;html=1;exitX=1;exitY=1;exitDx=0;exitDy=0;entryX=0;entryY=0;entryDx=0;entryDy=0;" edge="1" parent="1" source="yGgz9N2xFHgXJwQMNSEJ-678" target="yGgz9N2xFHgXJwQMNSEJ-671">
          <mxGeometry relative="1" as="geometry" />
        </mxCell>
        <mxCell id="yGgz9N2xFHgXJwQMNSEJ-678" value="5" style="rounded=0;whiteSpace=wrap;html=1;" vertex="1" parent="1">
          <mxGeometry x="227" y="4317" width="56" height="26" as="geometry" />
        </mxCell>
        <mxCell id="yGgz9N2xFHgXJwQMNSEJ-679" value="3" style="rounded=0;whiteSpace=wrap;html=1;" vertex="1" parent="1">
          <mxGeometry x="168" y="4405" width="56" height="26" as="geometry" />
        </mxCell>
        <mxCell id="yGgz9N2xFHgXJwQMNSEJ-680" value="8" style="rounded=0;whiteSpace=wrap;html=1;" vertex="1" parent="1">
          <mxGeometry x="404.5" y="4405" width="56" height="26" as="geometry" />
        </mxCell>
        <mxCell id="yGgz9N2xFHgXJwQMNSEJ-681" value="1" style="rounded=0;whiteSpace=wrap;html=1;fillColor=#ffffff;" vertex="1" parent="1">
          <mxGeometry x="2025" y="4405" width="56" height="26" as="geometry" />
        </mxCell>
        <mxCell id="yGgz9N2xFHgXJwQMNSEJ-682" style="edgeStyle=none;rounded=0;orthogonalLoop=1;jettySize=auto;html=1;exitX=0;exitY=1;exitDx=0;exitDy=0;entryX=0;entryY=0;entryDx=0;entryDy=0;" edge="1" parent="1" source="yGgz9N2xFHgXJwQMNSEJ-684" target="yGgz9N2xFHgXJwQMNSEJ-705">
          <mxGeometry relative="1" as="geometry" />
        </mxCell>
        <mxCell id="yGgz9N2xFHgXJwQMNSEJ-683" style="edgeStyle=none;rounded=0;orthogonalLoop=1;jettySize=auto;html=1;exitX=1;exitY=1;exitDx=0;exitDy=0;entryX=0.5;entryY=0;entryDx=0;entryDy=0;" edge="1" parent="1" source="yGgz9N2xFHgXJwQMNSEJ-684" target="yGgz9N2xFHgXJwQMNSEJ-694">
          <mxGeometry relative="1" as="geometry" />
        </mxCell>
        <mxCell id="yGgz9N2xFHgXJwQMNSEJ-684" value="9" style="rounded=0;whiteSpace=wrap;html=1;fillColor=#ffffff;" vertex="1" parent="1">
          <mxGeometry x="2379.5" y="4253" width="56" height="26" as="geometry" />
        </mxCell>
        <mxCell id="yGgz9N2xFHgXJwQMNSEJ-685" value="11" style="rounded=0;whiteSpace=wrap;html=1;" vertex="1" parent="1">
          <mxGeometry x="2474" y="4405" width="56" height="26" as="geometry" />
        </mxCell>
        <mxCell id="yGgz9N2xFHgXJwQMNSEJ-686" style="edgeStyle=none;rounded=0;orthogonalLoop=1;jettySize=auto;html=1;exitX=0;exitY=1;exitDx=0;exitDy=0;entryX=1;entryY=0;entryDx=0;entryDy=0;" edge="1" parent="1" source="yGgz9N2xFHgXJwQMNSEJ-687" target="yGgz9N2xFHgXJwQMNSEJ-688">
          <mxGeometry relative="1" as="geometry" />
        </mxCell>
        <mxCell id="yGgz9N2xFHgXJwQMNSEJ-687" value="2" style="rounded=0;whiteSpace=wrap;html=1;fillColor=#ffffff;" vertex="1" parent="1">
          <mxGeometry x="2090" y="4317" width="56" height="26" as="geometry" />
        </mxCell>
        <mxCell id="yGgz9N2xFHgXJwQMNSEJ-688" value="0" style="rounded=0;whiteSpace=wrap;html=1;" vertex="1" parent="1">
          <mxGeometry x="1969" y="4405" width="56" height="26" as="geometry" />
        </mxCell>
        <mxCell id="yGgz9N2xFHgXJwQMNSEJ-689" style="edgeStyle=none;rounded=0;orthogonalLoop=1;jettySize=auto;html=1;exitX=1;exitY=1;exitDx=0;exitDy=0;entryX=0;entryY=0;entryDx=0;entryDy=0;" edge="1" parent="1" source="yGgz9N2xFHgXJwQMNSEJ-691" target="yGgz9N2xFHgXJwQMNSEJ-699">
          <mxGeometry relative="1" as="geometry" />
        </mxCell>
        <mxCell id="yGgz9N2xFHgXJwQMNSEJ-690" style="edgeStyle=none;rounded=0;orthogonalLoop=1;jettySize=auto;html=1;exitX=0;exitY=1;exitDx=0;exitDy=0;entryX=0.5;entryY=0;entryDx=0;entryDy=0;" edge="1" parent="1" source="yGgz9N2xFHgXJwQMNSEJ-691" target="yGgz9N2xFHgXJwQMNSEJ-685">
          <mxGeometry relative="1" as="geometry" />
        </mxCell>
        <mxCell id="yGgz9N2xFHgXJwQMNSEJ-691" value="12" style="rounded=0;whiteSpace=wrap;html=1;fillColor=#ffffff;" vertex="1" parent="1">
          <mxGeometry x="2575" y="4317" width="56" height="26" as="geometry" />
        </mxCell>
        <mxCell id="yGgz9N2xFHgXJwQMNSEJ-692" value="6" style="rounded=0;whiteSpace=wrap;html=1;" vertex="1" parent="1">
          <mxGeometry x="2211.5" y="4405" width="56" height="26" as="geometry" />
        </mxCell>
        <mxCell id="yGgz9N2xFHgXJwQMNSEJ-694" value="15" style="rounded=0;whiteSpace=wrap;html=1;" vertex="1" parent="1">
          <mxGeometry x="2631" y="4317" width="56" height="26" as="geometry" />
        </mxCell>
        <mxCell id="yGgz9N2xFHgXJwQMNSEJ-695" value="4" style="rounded=0;whiteSpace=wrap;html=1;" vertex="1" parent="1">
          <mxGeometry x="2143" y="4405" width="56" height="26" as="geometry" />
        </mxCell>
        <mxCell id="yGgz9N2xFHgXJwQMNSEJ-696" value="18" style="rounded=0;whiteSpace=wrap;html=1;" vertex="1" parent="1">
          <mxGeometry x="2808.5" y="4405" width="56" height="26" as="geometry" />
        </mxCell>
        <mxCell id="yGgz9N2xFHgXJwQMNSEJ-697" value="19" style="rounded=0;whiteSpace=wrap;html=1;" vertex="1" parent="1">
          <mxGeometry x="2864.5" y="4405" width="56" height="26" as="geometry" />
        </mxCell>
        <mxCell id="yGgz9N2xFHgXJwQMNSEJ-698" value="7" style="rounded=0;whiteSpace=wrap;html=1;" vertex="1" parent="1">
          <mxGeometry x="2267.5" y="4405" width="56" height="26" as="geometry" />
        </mxCell>
        <mxCell id="yGgz9N2xFHgXJwQMNSEJ-699" value="14" style="rounded=0;whiteSpace=wrap;html=1;" vertex="1" parent="1">
          <mxGeometry x="2620.5" y="4405" width="56" height="26" as="geometry" />
        </mxCell>
        <mxCell id="yGgz9N2xFHgXJwQMNSEJ-700" value="13" style="rounded=0;whiteSpace=wrap;html=1;" vertex="1" parent="1">
          <mxGeometry x="2564.5" y="4405" width="56" height="26" as="geometry" />
        </mxCell>
        <mxCell id="yGgz9N2xFHgXJwQMNSEJ-701" value="10" style="rounded=0;whiteSpace=wrap;html=1;" vertex="1" parent="1">
          <mxGeometry x="2418" y="4405" width="56" height="26" as="geometry" />
        </mxCell>
        <mxCell id="yGgz9N2xFHgXJwQMNSEJ-702" value="16" style="rounded=0;whiteSpace=wrap;html=1;" vertex="1" parent="1">
          <mxGeometry x="2696.5" y="4405" width="56" height="26" as="geometry" />
        </mxCell>
        <mxCell id="yGgz9N2xFHgXJwQMNSEJ-703" style="edgeStyle=none;rounded=0;orthogonalLoop=1;jettySize=auto;html=1;exitX=0;exitY=0.75;exitDx=0;exitDy=0;entryX=1;entryY=0;entryDx=0;entryDy=0;" edge="1" parent="1" source="yGgz9N2xFHgXJwQMNSEJ-705" target="yGgz9N2xFHgXJwQMNSEJ-706">
          <mxGeometry relative="1" as="geometry" />
        </mxCell>
        <mxCell id="yGgz9N2xFHgXJwQMNSEJ-704" style="edgeStyle=none;rounded=0;orthogonalLoop=1;jettySize=auto;html=1;exitX=1;exitY=1;exitDx=0;exitDy=0;entryX=0;entryY=0;entryDx=0;entryDy=0;" edge="1" parent="1" source="yGgz9N2xFHgXJwQMNSEJ-705" target="yGgz9N2xFHgXJwQMNSEJ-698">
          <mxGeometry relative="1" as="geometry" />
        </mxCell>
        <mxCell id="yGgz9N2xFHgXJwQMNSEJ-705" value="5" style="rounded=0;whiteSpace=wrap;html=1;" vertex="1" parent="1">
          <mxGeometry x="2146" y="4317" width="56" height="26" as="geometry" />
        </mxCell>
        <mxCell id="yGgz9N2xFHgXJwQMNSEJ-706" value="3" style="rounded=0;whiteSpace=wrap;html=1;" vertex="1" parent="1">
          <mxGeometry x="2087" y="4405" width="56" height="26" as="geometry" />
        </mxCell>
        <mxCell id="yGgz9N2xFHgXJwQMNSEJ-707" value="8" style="rounded=0;whiteSpace=wrap;html=1;" vertex="1" parent="1">
          <mxGeometry x="2323.5" y="4405" width="56" height="26" as="geometry" />
        </mxCell>
        <mxCell id="yGgz9N2xFHgXJwQMNSEJ-709" style="edgeStyle=none;rounded=0;orthogonalLoop=1;jettySize=auto;html=1;exitX=0;exitY=1;exitDx=0;exitDy=0;entryX=0.5;entryY=0;entryDx=0;entryDy=0;" edge="1" parent="1" source="yGgz9N2xFHgXJwQMNSEJ-708" target="yGgz9N2xFHgXJwQMNSEJ-702">
          <mxGeometry relative="1" as="geometry" />
        </mxCell>
        <mxCell id="yGgz9N2xFHgXJwQMNSEJ-710" style="edgeStyle=none;rounded=0;orthogonalLoop=1;jettySize=auto;html=1;exitX=1;exitY=1;exitDx=0;exitDy=0;entryX=0;entryY=0;entryDx=0;entryDy=0;" edge="1" parent="1" source="yGgz9N2xFHgXJwQMNSEJ-708" target="yGgz9N2xFHgXJwQMNSEJ-697">
          <mxGeometry relative="1" as="geometry" />
        </mxCell>
        <mxCell id="yGgz9N2xFHgXJwQMNSEJ-708" value="17" style="rounded=0;whiteSpace=wrap;html=1;" vertex="1" parent="1">
          <mxGeometry x="2687" y="4317" width="56" height="26" as="geometry" />
        </mxCell>
      </root>
    </mxGraphModel>
  </diagram>
</mxfile>
